<?xml version="1.0" standalone="no"?>
<!DOCTYPE svg PUBLIC "-//W3C//DTD SVG 20010904//EN"
 "http://www.w3.org/TR/2001/REC-SVG-20010904/DTD/svg10.dtd">
<svg version="1.0" xmlns="http://www.w3.org/2000/svg"
 width="247.000000pt" height="222.000000pt" viewBox="0 0 247.000000 222.000000"
 preserveAspectRatio="xMidYMid meet">

<g transform="translate(0.000000,222.000000) scale(0.100000,-0.100000)"
fill="#000000" stroke="none">
<path d="M1823 1950 c-12 -5 -26 -18 -32 -29 -14 -25 -14 -91 -1 -91 6 0 10 8
10 18 0 13 13 21 47 30 42 12 49 11 60 -4 7 -10 13 -27 14 -38 0 -21 1 -21 9
-1 34 79 -29 146 -107 115z"/>
<path d="M1200 1761 c-39 -38 -41 -88 -5 -128 17 -20 27 -24 33 -16 5 8 13 9
22 3 20 -13 67 -12 91 0 27 15 46 60 40 94 -8 38 -44 63 -104 71 -43 6 -50 4
-77 -24z m118 -69 c3 -16 -2 -22 -16 -22 -28 0 -45 23 -29 39 17 17 42 9 45
-17z"/>
<path d="M722 1742 c-13 -2 -26 -10 -29 -18 -3 -8 -11 -14 -18 -14 -16 0 -41
-29 -54 -63 -7 -19 -7 -27 0 -27 6 0 13 9 16 20 6 24 7 24 67 4 44 -15 47 -18
41 -45 -4 -17 -2 -29 4 -29 10 0 14 18 26 112 7 52 -8 68 -53 60z"/>
<path d="M1866 1701 c-18 -7 -18 -8 -2 -14 27 -11 36 -8 36 8 0 16 -5 17 -34
6z"/>
<path d="M1928 1628 c-20 -56 -101 -58 -126 -2 -9 17 -20 24 -41 24 -28 0 -30
-3 -36 -47 -3 -27 -7 -59 -9 -73 -2 -13 5 -60 16 -104 22 -85 21 -110 -8 -266
l-16 -90 -32 -1 c-29 0 -30 -1 -8 -10 16 -6 22 -15 20 -30 -3 -18 -10 -21 -66
-22 -61 -2 -62 -2 -62 25 0 20 6 28 23 31 19 4 18 4 -5 6 -26 1 -28 -2 -28
-36 -1 -21 -7 -49 -15 -63 -55 -96 45 -197 144 -146 21 11 37 12 71 5 74 -17
88 -8 95 59 13 124 29 138 40 34 9 -95 12 -97 76 -84 47 9 57 8 80 -9 52 -37
127 -19 154 36 18 40 19 62 0 95 -8 14 -14 44 -15 68 0 39 -2 42 -27 41 -28 0
-28 0 -5 -10 16 -6 22 -15 20 -30 -3 -19 -9 -22 -63 -22 -57 0 -60 2 -63 26
-3 20 2 26 20 30 21 4 20 4 -4 6 -30 1 -28 -4 -53 121 -19 96 -19 157 1 234
11 42 14 79 9 121 -10 95 -13 102 -47 107 -26 4 -32 1 -40 -24z"/>
<path d="M650 1458 c18 -15 25 -16 31 -6 14 21 11 25 -23 25 l-31 0 23 -19z"/>
<path d="M1185 1420 c-12 -4 -27 -15 -34 -24 -16 -19 -6 -35 44 -66 25 -15 36
-32 44 -66 7 -26 13 -45 15 -43 2 2 6 50 9 107 l5 102 -31 -1 c-18 0 -41 -4
-52 -9z"/>
<path d="M1325 1360 c2 -25 7 -89 11 -142 3 -54 10 -98 15 -98 5 0 9 -12 9
-27 0 -19 3 -24 11 -16 7 7 5 30 -10 78 -13 43 -21 95 -21 144 0 42 -5 83 -10
91 -7 11 -8 2 -5 -30z"/>
<path d="M386 1055 c-3 -11 -7 -54 -11 -95 -3 -41 -8 -97 -11 -123 l-5 -48 62
3 c62 3 63 3 72 38 10 36 13 34 31 -22 4 -15 17 -18 65 -18 l60 0 -4 58 c-13
158 -16 189 -21 207 -5 19 -13 21 -119 20 -106 0 -114 -1 -119 -20z"/>
<path d="M1367 977 c-4 -23 -9 -58 -12 -77 l-6 -35 19 35 c27 49 36 106 18
113 -10 4 -15 -6 -19 -36z"/>
<path d="M787 853 c-4 -3 -7 -25 -7 -48 0 -22 -5 -46 -11 -52 -14 -14 -14 -75
0 -102 13 -24 61 -51 91 -51 77 0 125 91 85 160 -8 14 -14 42 -15 63 0 33 -3
37 -26 37 -14 0 -23 -4 -19 -10 3 -5 13 -10 21 -10 8 0 14 -10 14 -22 0 -21
-4 -23 -60 -23 -55 0 -60 2 -60 23 0 12 6 22 14 22 8 0 18 5 21 10 7 11 -38
14 -48 3z"/>
<path d="M1346 695 c-28 -21 -183 -75 -216 -75 -35 0 -58 -29 -62 -80 l-3 -34
60 -13 c125 -27 133 -30 146 -71 18 -57 23 -60 76 -51 63 12 72 22 72 82 0 29
3 78 6 110 6 50 4 62 -19 102 -29 49 -32 51 -60 30z"/>
<path d="M1685 320 c-3 -5 1 -10 10 -10 9 0 13 5 10 10 -3 6 -8 10 -10 10 -2
0 -7 -4 -10 -10z"/>
<path d="M2021 317 c-13 -13 -15 -34 -3 -40 15 -9 52 12 46 27 -8 20 -29 27
-43 13z"/>
<path d="M1705 258 c-8 -19 -18 -23 -50 -23 -33 0 -40 -3 -40 -20 0 -14 8 -21
26 -23 36 -4 82 36 77 67 l-3 22 -10 -23z"/>
<path d="M2010 251 c0 -24 49 -61 80 -61 25 0 30 4 30 25 0 20 -5 25 -24 25
-14 0 -28 -5 -32 -11 -3 -6 -9 -7 -13 -3 -14 21 -41 36 -41 25z"/>
</g>
</svg>
