<?xml version="1.0" standalone="no"?>
<!DOCTYPE svg PUBLIC "-//W3C//DTD SVG 20010904//EN"
 "http://www.w3.org/TR/2001/REC-SVG-20010904/DTD/svg10.dtd">
<svg version="1.0" xmlns="http://www.w3.org/2000/svg"
 width="363.000000pt" height="322.000000pt" viewBox="0 0 363.000000 322.000000"
 preserveAspectRatio="xMidYMid meet">

<g transform="translate(0.000000,322.000000) scale(0.100000,-0.100000)"
fill="#000000" stroke="none">
<path d="M1140 3080 c0 -7 390 -10 1150 -10 l1150 0 -2 -1457 -3 -1458 -1450
0 -1450 0 -3 200 c-1 113 -7 204 -12 209 -7 7 -10 -66 -10 -207 0 -167 3 -217
13 -217 35 0 2895 0 2915 0 l22 0 0 1475 0 1475 -1160 0 c-767 0 -1160 -3
-1160 -10z"/>
<path d="M159 2600 c27 -37 57 -110 194 -460 51 -130 274 -700 291 -742 6 -16
13 -28 16 -28 3 0 73 174 156 386 83 212 155 386 159 387 9 2 37 -67 240 -586
42 -109 78 -197 80 -195 1 2 107 271 235 598 128 327 242 609 254 625 40 54
40 55 -1 55 -38 0 -38 0 -39 -43 -1 -23 -11 -64 -22 -92 -12 -27 -94 -237
-182 -465 -217 -561 -203 -529 -215 -489 -4 13 -31 85 -60 159 -282 721 -335
862 -335 894 l0 36 -80 0 c-44 0 -80 -3 -80 -6 0 -3 11 -20 25 -39 28 -35 165
-373 165 -403 -1 -25 -246 -646 -257 -649 -5 -2 -14 11 -20 29 -6 18 -43 116
-83 218 -40 102 -94 239 -120 305 -153 391 -180 468 -180 505 l0 40 -85 0 -85
0 29 -40z"/>
<path d="M2126 2623 c5 -10 11 -225 15 -478 6 -506 6 -506 71 -615 45 -75 131
-133 233 -155 109 -25 281 -17 352 14 60 26 117 84 143 145 44 99 50 173 50
604 0 322 3 419 14 455 l14 47 -38 0 -38 0 14 -37 c16 -46 19 -777 4 -885 -21
-145 -77 -236 -178 -285 -52 -26 -67 -28 -167 -28 -102 0 -114 2 -169 30 -74
37 -128 99 -157 178 -23 61 -23 72 -27 514 -3 396 -1 456 13 483 l16 30 -87 0
c-79 0 -85 -2 -78 -17z"/>
<path d="M1349 1193 l-44 -168 -71 -3 c-54 -2 -74 1 -84 13 -18 22 -30 19 -68
-17 l-33 -33 6 28 c7 27 -2 35 -20 18 -12 -11 -105 -31 -144 -31 -20 0 -30 6
-34 20 -8 29 -35 35 -69 16 -19 -12 -53 -18 -94 -19 -54 -2 -68 1 -80 17 -16
22 -16 22 -34 -22 -25 -65 -64 -60 -80 11 l-7 32 -11 -26 c-11 -26 -56 -69
-74 -69 -5 0 -9 17 -8 38 3 52 1 59 -10 42 -14 -22 -12 -90 3 -91 24 -3 42 3
69 22 26 19 27 19 33 -1 10 -31 59 -27 85 8 20 27 24 28 60 19 26 -8 53 -7 84
0 l46 10 0 -28 c0 -25 4 -29 29 -29 16 0 34 6 40 14 6 7 39 16 74 19 34 4 74
9 89 13 24 6 27 3 30 -27 l3 -34 22 25 c12 14 30 36 41 50 19 24 21 24 39 7
15 -13 37 -17 91 -17 l72 0 -6 -27 c-4 -16 -13 -48 -20 -73 -7 -24 -11 -46 -9
-48 10 -11 23 12 34 62 l12 55 30 -11 c50 -17 159 -6 214 22 74 38 66 54 -9
19 -85 -40 -175 -44 -208 -11 -19 18 -20 23 -7 38 19 23 71 44 109 44 16 0 30
5 30 10 0 15 -67 12 -100 -5 -18 -9 -30 -11 -30 -5 0 5 16 70 35 143 38 145
39 147 27 147 -5 0 -29 -75 -53 -167z m-514 -174 c10 -15 -1 -23 -20 -15 -9 3
-13 10 -10 16 8 13 22 13 30 -1z m-15 -43 c0 -11 -19 -15 -25 -6 -3 5 1 10 9
10 9 0 16 -2 16 -4z"/>
<path d="M2349 1050 c-37 -19 -78 -65 -118 -130 -25 -41 -27 -23 -6 46 8 27
15 58 15 68 0 19 -1 19 -20 -2 -33 -36 -97 -63 -138 -60 -35 3 -37 5 -40 41
l-3 38 -40 -36 c-43 -39 -85 -59 -101 -49 -6 4 -8 22 -5 41 4 24 2 33 -6 30
-7 -2 -12 -21 -12 -43 0 -36 2 -39 30 -42 20 -2 44 6 69 23 21 14 39 25 40 23
24 -54 81 -63 151 -24 27 14 45 20 45 13 -1 -7 -14 -66 -30 -132 -15 -66 -27
-122 -25 -123 8 -9 23 10 30 35 3 16 22 61 42 100 33 69 37 72 62 66 84 -24
235 5 315 59 46 32 36 44 -13 15 -20 -13 -48 -28 -63 -34 -43 -19 -147 -35
-180 -28 l-30 7 49 23 c56 26 88 58 80 80 -9 21 -54 18 -98 -5z m79 -12 c-5
-16 -73 -54 -113 -64 l-30 -7 20 23 c11 13 34 31 50 41 35 22 79 25 73 7z"/>
</g>
</svg>
