<?xml version="1.0" standalone="no"?>
<!DOCTYPE svg PUBLIC "-//W3C//DTD SVG 20010904//EN"
 "http://www.w3.org/TR/2001/REC-SVG-20010904/DTD/svg10.dtd">
<svg version="1.0" xmlns="http://www.w3.org/2000/svg"
 width="500.000000pt" height="500.000000pt" viewBox="0 0 500.000000 500.000000"
 preserveAspectRatio="xMidYMid meet">

<g transform="translate(0.000000,500.000000) scale(0.100000,-0.100000)"
fill="#000000" stroke="none">
<path d="M1865 3800 c-4 -7 340 -10 1024 -10 l1031 0 0 -1295 0 -1295 -1295 0
-1295 0 0 179 c0 109 -4 182 -10 186 -7 4 -10 -61 -10 -187 l0 -193 1315 3
1314 2 1 1310 0 1310 -1034 0 c-679 0 -1037 -3 -1041 -10z"/>
<path d="M998 3372 c15 -21 119 -275 232 -565 113 -290 207 -527 210 -527 5 0
35 75 191 475 45 116 85 213 88 218 6 5 182 -430 271 -668 10 -26 13 -28 21
-13 5 9 100 248 210 530 132 338 211 526 230 551 l30 37 -39 0 c-36 0 -39 -2
-35 -23 5 -27 -11 -72 -211 -582 -80 -203 -148 -369 -152 -368 -13 3 -355 886
-361 931 l-6 42 -75 0 -76 0 28 -29 c23 -24 156 -335 156 -366 0 -15 -224
-585 -230 -585 -13 0 -360 911 -360 944 l0 36 -75 0 -75 0 28 -38z"/>
<path d="M2746 3393 c5 -10 11 -202 14 -428 7 -454 9 -473 73 -557 66 -86 155
-126 305 -135 204 -13 313 59 360 237 11 41 15 152 19 450 2 217 8 407 13 423
9 26 8 27 -26 27 -33 0 -34 -1 -22 -22 17 -31 24 -633 9 -768 -26 -222 -131
-319 -335 -308 -137 7 -221 68 -268 193 -22 58 -23 74 -26 447 -3 326 -1 392
12 422 l15 36 -76 0 c-68 0 -74 -2 -67 -17z"/>
<path d="M2095 2268 c-3 -8 -23 -78 -43 -154 l-37 -139 -57 -3 c-42 -2 -65 2
-84 15 -26 17 -27 17 -57 -17 -30 -33 -30 -33 -23 -7 6 27 -2 35 -19 18 -9 -9
-112 -31 -142 -31 -7 0 -13 6 -13 14 0 7 -7 19 -16 27 -13 10 -20 10 -44 -4
-42 -25 -132 -27 -158 -3 -21 18 -21 18 -27 -7 -4 -14 -16 -33 -26 -43 -24
-21 -38 -10 -49 38 l-7 33 -11 -26 c-10 -26 -47 -59 -65 -59 -5 0 -7 16 -5 35
4 36 -5 47 -16 19 -10 -27 -7 -64 7 -65 24 -3 42 3 59 18 15 13 19 12 37 -6
18 -18 25 -19 46 -9 13 6 27 18 30 27 4 13 20 16 85 16 75 0 80 -1 80 -21 0
-28 22 -36 48 -18 11 7 53 18 92 24 40 6 76 13 81 16 5 3 9 -10 9 -28 l1 -33
38 44 c38 43 39 43 64 26 19 -12 42 -16 82 -13 30 1 55 0 55 -3 0 -3 -7 -29
-16 -58 -8 -29 -13 -60 -11 -69 2 -9 12 11 22 45 16 54 20 61 36 53 45 -24
162 -6 234 37 39 23 8 22 -38 -1 -61 -32 -137 -42 -174 -24 -15 7 -28 19 -28
27 0 22 48 52 96 58 32 5 38 8 24 13 -11 4 -40 1 -65 -6 -25 -8 -46 -14 -47
-14 -1 0 14 59 33 131 20 72 33 134 30 136 -3 3 -8 -1 -11 -9z m-495 -304 c0
-11 -5 -14 -16 -10 -9 3 -18 6 -20 6 -3 0 -2 5 1 10 10 16 35 12 35 -6z m-20
-34 c0 -5 -4 -10 -9 -10 -6 0 -13 5 -16 10 -3 6 1 10 9 10 9 0 16 -4 16 -10z"/>
<path d="M2952 2003 c-33 -16 -88 -76 -111 -121 -20 -39 -23 -18 -7 46 19 71
19 82 3 62 -16 -21 -76 -56 -109 -64 -42 -10 -58 2 -58 42 l0 36 -32 -31 c-71
-66 -113 -69 -103 -6 5 28 4 34 -4 23 -6 -8 -11 -30 -11 -47 0 -30 3 -33 29
-33 15 0 44 11 64 24 l35 24 6 -24 c5 -20 12 -24 47 -24 22 0 58 9 79 20 22
11 40 18 40 15 0 -2 -12 -55 -26 -115 -14 -61 -23 -114 -20 -117 3 -3 9 3 12
13 16 45 72 162 80 166 5 3 29 3 54 -1 25 -4 69 -3 99 1 55 7 181 62 181 79 0
5 -26 -5 -57 -21 -65 -33 -154 -54 -196 -44 -26 5 -26 6 25 32 43 22 53 32 53
52 0 31 -27 36 -73 13z m62 -17 c-5 -14 -40 -33 -97 -55 -26 -10 -27 -9 -17
10 23 41 129 83 114 45z"/>
</g>
</svg>
