<?xml version="1.0" standalone="no"?>
<!DOCTYPE svg PUBLIC "-//W3C//DTD SVG 20010904//EN"
 "http://www.w3.org/TR/2001/REC-SVG-20010904/DTD/svg10.dtd">
<svg version="1.0" xmlns="http://www.w3.org/2000/svg"
 width="821.000000pt" height="821.000000pt" viewBox="0 0 821.000000 821.000000"
 preserveAspectRatio="xMidYMid meet">

<g transform="translate(0.000000,821.000000) scale(0.100000,-0.100000)"
fill="#000000" stroke="none">
<path d="M247 8204 c-10 -11 -9 -46 2 -40 5 4 12 0 14 -6 4 -9 5 -8 6 2 0 24
-14 52 -22 44z"/>
<path d="M368 8205 c-10 -10 13 -55 28 -55 7 0 15 -6 17 -12 4 -10 6 -10 6 0
1 7 6 10 12 6 6 -3 3 8 -5 25 -9 17 -19 31 -22 31 -2 0 0 -9 6 -19 14 -26 13
-31 -4 -25 -8 3 -19 17 -23 30 -5 14 -11 22 -15 19z"/>
<path d="M145 8192 c-7 -7 12 -56 23 -60 6 -2 14 8 18 22 3 14 10 26 16 26 5
0 6 -10 3 -21 -5 -15 -4 -19 4 -15 6 4 11 17 11 30 0 19 -5 22 -36 22 -19 -1
-37 -2 -39 -4z m35 -21 c0 -6 -4 -13 -10 -16 -5 -3 -10 1 -10 9 0 9 5 16 10
16 6 0 10 -4 10 -9z"/>
<path d="M289 8183 c6 -12 7 -24 2 -27 -10 -7 -33 -66 -25 -66 3 0 10 14 15
30 11 31 29 41 29 16 0 -8 -5 -27 -11 -43 -5 -15 -6 -23 -1 -18 5 6 14 25 21
44 10 31 9 36 -16 60 -23 23 -25 23 -14 4z"/>
<path d="M334 8180 c3 -14 5 -27 6 -30 2 -3 2 -9 0 -15 -1 -5 4 -5 10 1 9 9 8
19 -4 40 -15 28 -15 28 -12 4z"/>
<path d="M2241 8184 c0 -11 3 -14 6 -6 3 7 2 16 -1 19 -3 4 -6 -2 -5 -13z"/>
<path d="M4404 8178 l-19 -23 23 19 c21 18 27 26 19 26 -2 0 -12 -10 -23 -22z"/>
<path d="M6821 8174 c0 -11 3 -14 6 -6 3 7 2 16 -1 19 -3 4 -6 -2 -5 -13z"/>
<path d="M6312 8160 c0 -14 2 -19 5 -12 2 6 2 18 0 25 -3 6 -5 1 -5 -13z"/>
<path d="M6873 8125 c0 -33 2 -45 4 -27 2 18 2 45 0 60 -2 15 -4 0 -4 -33z"/>
<path d="M469 8153 c-13 -16 -12 -17 4 -4 9 7 17 15 17 17 0 8 -8 3 -21 -13z"/>
<path d="M1671 8154 c0 -11 3 -14 6 -6 3 7 2 16 -1 19 -3 4 -6 -2 -5 -13z"/>
<path d="M2001 8154 c0 -11 3 -14 6 -6 3 7 2 16 -1 19 -3 4 -6 -2 -5 -13z"/>
<path d="M1831 8144 c0 -11 3 -14 6 -6 3 7 2 16 -1 19 -3 4 -6 -2 -5 -13z"/>
<path d="M1961 8144 c0 -11 3 -14 6 -6 3 7 2 16 -1 19 -3 4 -6 -2 -5 -13z"/>
<path d="M2091 8144 c0 -11 3 -14 6 -6 3 7 2 16 -1 19 -3 4 -6 -2 -5 -13z"/>
<path d="M2252 8140 c0 -14 2 -19 5 -12 2 6 2 18 0 25 -3 6 -5 1 -5 -13z"/>
<path d="M1921 8134 c0 -11 3 -14 6 -6 3 7 2 16 -1 19 -3 4 -6 -2 -5 -13z"/>
<path d="M4354 8118 l-19 -23 23 19 c21 18 27 26 19 26 -2 0 -12 -10 -23 -22z"/>
<path d="M6580 8120 c0 -13 5 -18 15 -14 8 4 15 12 15 20 0 8 -7 14 -15 14 -8
0 -15 -9 -15 -20z"/>
<path d="M234 8119 c-3 -6 -1 -16 6 -22 10 -9 11 -9 5 2 -4 8 -2 17 6 22 9 6
10 9 2 9 -6 0 -15 -5 -19 -11z"/>
<path d="M1681 8104 c0 -11 3 -14 6 -6 3 7 2 16 -1 19 -3 4 -6 -2 -5 -13z"/>
<path d="M2011 8104 c0 -11 3 -14 6 -6 3 7 2 16 -1 19 -3 4 -6 -2 -5 -13z"/>
<path d="M2141 8104 c0 -11 3 -14 6 -6 3 7 2 16 -1 19 -3 4 -6 -2 -5 -13z"/>
<path d="M367 8103 c-17 -31 -16 -64 2 -80 15 -13 18 -20 9 -30 -7 -9 -7 -13
1 -13 16 0 27 33 13 38 -7 2 -12 8 -12 13 0 6 5 7 10 4 6 -3 10 1 10 9 0 9 -7
16 -15 16 -18 0 -20 27 -3 32 9 3 9 6 1 11 -7 4 -14 4 -16 0z"/>
<path d="M1971 8094 c0 -11 3 -14 6 -6 3 7 2 16 -1 19 -3 4 -6 -2 -5 -13z"/>
<path d="M2101 8094 c0 -11 3 -14 6 -6 3 7 2 16 -1 19 -3 4 -6 -2 -5 -13z"/>
<path d="M1931 8084 c0 -11 3 -14 6 -6 3 7 2 16 -1 19 -3 4 -6 -2 -5 -13z"/>
<path d="M6311 8084 c0 -11 3 -14 6 -6 3 7 2 16 -1 19 -3 4 -6 -2 -5 -13z"/>
<path d="M4314 8068 l-19 -23 23 19 c21 18 27 26 19 26 -2 0 -12 -10 -23 -22z"/>
<path d="M2239 8063 c-13 -16 -12 -17 4 -4 16 13 21 21 13 21 -2 0 -10 -8 -17
-17z"/>
<path d="M6361 8064 c0 -11 3 -14 6 -6 3 7 2 16 -1 19 -3 4 -6 -2 -5 -13z"/>
<path d="M1691 8054 c0 -11 3 -14 6 -6 3 7 2 16 -1 19 -3 4 -6 -2 -5 -13z"/>
<path d="M189 8033 c-13 -16 -12 -17 4 -4 9 7 17 15 17 17 0 8 -8 3 -21 -13z"/>
<path d="M4160 8035 c0 -8 4 -15 10 -15 5 0 7 7 4 15 -4 8 -8 15 -10 15 -2 0
-4 -7 -4 -15z"/>
<path d="M100 8036 c0 -2 7 -7 16 -10 8 -3 12 -2 9 4 -6 10 -25 14 -25 6z"/>
<path d="M140 8030 c0 -5 5 -10 11 -10 5 0 7 5 4 10 -3 6 -8 10 -11 10 -2 0
-4 -4 -4 -10z"/>
<path d="M262 7993 c6 -60 -4 -69 -20 -20 -11 32 -12 32 -6 2 6 -35 11 -40 44
-50 22 -7 23 -6 11 9 -7 9 -16 35 -18 59 -7 61 -16 61 -11 0z"/>
<path d="M2128 8033 c7 -3 16 -2 19 1 4 3 -2 6 -13 5 -11 0 -14 -3 -6 -6z"/>
<path d="M4280 8029 c0 -5 5 -7 10 -4 6 3 10 8 10 11 0 2 -4 4 -10 4 -5 0 -10
-5 -10 -11z"/>
<path d="M2078 8023 c7 -3 16 -2 19 1 4 3 -2 6 -13 5 -11 0 -14 -3 -6 -6z"/>
<path d="M296 8011 c-5 -8 -2 -37 9 -72 4 -10 15 -19 26 -19 21 0 22 5 8 35
-9 19 -9 18 -5 -2 2 -13 1 -23 -3 -23 -12 0 -28 42 -26 68 2 24 -1 27 -9 13z"/>
<path d="M2028 8013 c7 -3 16 -2 19 1 4 3 -2 6 -13 5 -11 0 -14 -3 -6 -6z"/>
<path d="M6828 7975 c-14 -24 -45 -58 -69 -74 -23 -17 -38 -31 -32 -31 27 0
146 131 132 144 -2 2 -16 -16 -31 -39z"/>
<path d="M4175 7990 c-10 -11 -16 -22 -14 -24 2 -2 12 7 22 20 22 29 17 32 -8
4z"/>
<path d="M6405 7976 c10 -14 19 -26 22 -26 7 0 -17 39 -28 46 -6 3 -3 -5 6
-20z"/>
<path d="M6779 7983 c-13 -16 -12 -17 4 -4 9 7 17 15 17 17 0 8 -8 3 -21 -13z"/>
<path d="M1868 7983 c7 -3 16 -2 19 1 4 3 -2 6 -13 5 -11 0 -14 -3 -6 -6z"/>
<path d="M1717 7969 c7 -7 15 -10 18 -7 3 3 -2 9 -12 12 -14 6 -15 5 -6 -5z"/>
<path d="M1818 7973 c7 -3 16 -2 19 1 4 3 -2 6 -13 5 -11 0 -14 -3 -6 -6z"/>
<path d="M4225 7970 c3 -5 8 -10 11 -10 2 0 4 5 4 10 0 6 -5 10 -11 10 -5 0
-7 -4 -4 -10z"/>
<path d="M6358 7965 c17 -33 103 -105 126 -105 6 0 -10 13 -35 29 -25 15 -58
44 -73 62 -15 19 -23 25 -18 14z"/>
<path d="M6440 7946 c0 -2 8 -10 18 -17 15 -13 16 -12 3 4 -13 16 -21 21 -21
13z"/>
<path d="M6729 7933 c-13 -16 -12 -17 4 -4 9 7 17 15 17 17 0 8 -8 3 -21 -13z"/>
<path d="M4160 7933 c0 -5 10 -18 23 -29 l22 -19 -20 25 c-11 14 -21 27 -22
29 -2 2 -3 0 -3 -6z"/>
<path d="M4195 7930 c3 -5 8 -10 11 -10 2 0 4 5 4 10 0 6 -5 10 -11 10 -5 0
-7 -4 -4 -10z"/>
<path d="M4256 7905 c-11 -8 -15 -15 -9 -15 6 0 16 7 23 15 16 19 11 19 -14 0z"/>
<path d="M6553 7843 c9 -2 23 -2 30 0 6 3 -1 5 -18 5 -16 0 -22 -2 -12 -5z"/>
<path d="M6613 7843 c9 -2 23 -2 30 0 6 3 -1 5 -18 5 -16 0 -22 -2 -12 -5z"/>
<path d="M2988 7583 c7 -3 16 -2 19 1 4 3 -2 6 -13 5 -11 0 -14 -3 -6 -6z"/>
<path d="M2742 7514 l-47 -47 50 43 c28 24 52 45 54 47 2 2 1 3 -3 3 -4 0 -28
-21 -54 -46z"/>
<path d="M3097 7534 c18 -13 46 -42 64 -62 17 -20 26 -28 21 -16 -12 22 -97
104 -109 104 -5 0 6 -12 24 -26z"/>
<path d="M2918 7543 c12 -2 30 -2 40 0 9 3 -1 5 -23 4 -22 0 -30 -2 -17 -4z"/>
<path d="M5219 7523 c-13 -16 -12 -17 4 -4 9 7 17 15 17 17 0 8 -8 3 -21 -13z"/>
<path d="M2763 7478 c-11 -13 -24 -30 -28 -38 -8 -16 -6 -14 34 33 14 15 22
27 19 27 -2 0 -14 -10 -25 -22z"/>
<path d="M3100 7475 c13 -14 26 -25 28 -25 3 0 -5 11 -18 25 -13 14 -26 25
-28 25 -3 0 5 -11 18 -25z"/>
<path d="M5187 7465 c-24 -50 -20 -58 4 -12 11 22 19 41 17 43 -3 2 -12 -12
-21 -31z"/>
<path d="M5430 7466 c0 -2 7 -7 16 -10 8 -3 12 -2 9 4 -6 10 -25 14 -25 6z"/>
<path d="M2680 7439 c-7 -11 -10 -23 -7 -25 2 -2 9 7 15 21 14 30 7 33 -8 4z"/>
<path d="M3141 7420 c14 -31 19 -36 19 -24 0 6 -7 19 -16 30 -14 18 -14 18 -3
-6z"/>
<path d="M5520 7420 c19 -11 40 -19 45 -19 6 0 -6 8 -25 19 -19 11 -39 19 -45
19 -5 0 6 -8 25 -19z"/>
<path d="M3065 7390 c-3 -6 1 -7 9 -4 18 7 21 14 7 14 -6 0 -13 -4 -16 -10z"/>
<path d="M5145 7379 c-4 -6 -5 -12 -2 -15 2 -3 7 2 10 11 7 17 1 20 -8 4z"/>
<path d="M3024 7364 c-18 -14 -18 -15 4 -4 12 6 22 13 22 15 0 8 -5 6 -26 -11z"/>
<path d="M5700 7336 c0 -2 8 -10 18 -17 15 -13 16 -12 3 4 -13 16 -21 21 -21
13z"/>
<path d="M2925 7320 c-4 -6 -3 -16 3 -22 6 -6 12 -6 17 2 4 6 3 16 -3 22 -6 6
-12 6 -17 -2z"/>
<path d="M5362 7318 c-7 -7 -12 -17 -12 -22 0 -6 5 -3 11 7 6 9 15 14 21 11 7
-4 8 -2 4 4 -9 15 -9 15 -24 0z"/>
<path d="M2853 7313 c9 -2 23 -2 30 0 6 3 -1 5 -18 5 -16 0 -22 -2 -12 -5z"/>
<path d="M5104 7284 c-5 -20 -1 -31 17 -47 l23 -22 -18 22 c-13 15 -16 30 -12
48 4 14 4 25 1 25 -2 0 -8 -12 -11 -26z"/>
<path d="M5443 7284 c31 -17 31 -18 16 -46 -8 -16 -8 -19 1 -13 8 5 25 -7 47
-31 l35 -39 -31 41 c-17 23 -31 51 -31 61 0 11 -11 25 -25 31 -37 17 -45 14
-12 -4z"/>
<path d="M3211 7274 c0 -11 3 -14 6 -6 3 7 2 16 -1 19 -3 4 -6 -2 -5 -13z"/>
<path d="M2651 7264 c0 -11 3 -14 6 -6 3 7 2 16 -1 19 -3 4 -6 -2 -5 -13z"/>
<path d="M5364 7266 c11 -9 24 -16 30 -16 12 0 7 5 -24 19 -24 11 -24 11 -6
-3z"/>
<path d="M2660 7232 c0 -18 35 -82 61 -112 l21 -25 -16 25 c-9 14 -28 48 -41
75 -14 28 -25 44 -25 37z"/>
<path d="M2710 7224 c0 -6 7 -19 16 -30 14 -18 14 -18 3 6 -14 31 -19 36 -19
24z"/>
<path d="M3106 7152 c-36 -42 -36 -44 -7 -17 28 25 58 66 49 65 -2 -1 -21 -22
-42 -48z"/>
<path d="M5222 7179 c33 -17 37 -23 32 -47 -5 -25 -1 -29 60 -59 37 -18 70
-33 75 -33 5 0 16 11 24 24 14 21 14 25 2 30 -8 3 -14 2 -14 -2 6 -40 -13 -41
-86 -5 -55 27 -69 48 -39 60 13 5 6 12 -27 29 -24 13 -48 23 -54 23 -5 0 7 -9
27 -20z"/>
<path d="M3165 7154 c-9 -15 -12 -23 -6 -20 11 7 35 46 28 46 -3 0 -12 -12
-22 -26z"/>
<path d="M2740 7167 c0 -2 15 -16 33 -33 l32 -29 -29 33 c-28 30 -36 37 -36
29z"/>
<path d="M5567 7115 c44 -60 46 -64 32 -83 -11 -14 -10 -14 8 1 24 21 26 17
-42 92 -25 28 -25 27 2 -10z"/>
<path d="M5656 7133 c-6 -14 -5 -15 5 -6 7 7 10 15 7 18 -3 3 -9 -2 -12 -12z"/>
<path d="M6799 7113 c-12 -16 -12 -17 1 -7 8 7 24 14 35 17 19 4 19 5 -1 6
-12 0 -28 -7 -35 -16z"/>
<path d="M3096 7084 c-26 -19 -44 -34 -39 -34 10 0 93 59 93 66 0 6 -1 5 -54
-32z"/>
<path d="M2750 7096 c0 -2 8 -10 18 -17 15 -13 16 -12 3 4 -13 16 -21 21 -21
13z"/>
<path d="M7076 7082 c-2 -4 4 -8 15 -8 10 0 19 4 19 8 0 4 -6 8 -14 8 -8 0
-17 -4 -20 -8z"/>
<path d="M2888 7073 c7 -3 16 -2 19 1 4 3 -2 6 -13 5 -11 0 -14 -3 -6 -6z"/>
<path d="M2968 7073 c7 -3 16 -2 19 1 4 3 -2 6 -13 5 -11 0 -14 -3 -6 -6z"/>
<path d="M5490 7055 c0 -7 61 -37 66 -33 2 3 -12 12 -31 21 -19 9 -35 15 -35
12z"/>
<path d="M2858 7033 c7 -3 16 -2 19 1 4 3 -2 6 -13 5 -11 0 -14 -3 -6 -6z"/>
<path d="M2998 7033 c7 -3 16 -2 19 1 4 3 -2 6 -13 5 -11 0 -14 -3 -6 -6z"/>
<path d="M2918 7023 c12 -2 30 -2 40 0 9 3 -1 5 -23 4 -22 0 -30 -2 -17 -4z"/>
<path d="M7019 7003 c-13 -16 -12 -17 4 -4 9 7 17 15 17 17 0 8 -8 3 -21 -13z"/>
<path d="M6959 6923 c-13 -16 -12 -17 4 -4 9 7 17 15 17 17 0 8 -8 3 -21 -13z"/>
<path d="M6920 6915 c0 -5 5 -17 10 -25 5 -8 10 -10 10 -5 0 6 -5 17 -10 25
-5 8 -10 11 -10 5z"/>
<path d="M4435 6849 c-4 -6 -5 -12 -2 -15 2 -3 7 2 10 11 7 17 1 20 -8 4z"/>
<path d="M1440 6810 c0 -5 5 -10 10 -10 6 0 10 5 10 10 0 6 -4 10 -10 10 -5 0
-10 -4 -10 -10z"/>
<path d="M3950 6773 c0 -13 5 -23 10 -23 13 0 13 11 0 30 -8 12 -10 11 -10 -7z"/>
<path d="M4395 6769 c-4 -6 -5 -12 -2 -15 2 -3 7 2 10 11 7 17 1 20 -8 4z"/>
<path d="M6915 6771 c-3 -5 -2 -12 3 -15 5 -3 9 1 9 9 0 17 -3 19 -12 6z"/>
<path d="M1863 6733 c-15 -5 -17 -23 -4 -23 5 0 11 7 15 15 3 8 4 15 3 14 -1
0 -8 -3 -14 -6z"/>
<path d="M6869 6713 c-13 -16 -12 -17 4 -4 16 13 21 21 13 21 -2 0 -10 -8 -17
-17z"/>
<path d="M8025 6720 c3 -5 8 -10 11 -10 2 0 4 5 4 10 0 6 -5 10 -11 10 -5 0
-7 -4 -4 -10z"/>
<path d="M6839 6673 c-13 -16 -12 -17 4 -4 9 7 17 15 17 17 0 8 -8 3 -21 -13z"/>
<path d="M0 6656 c0 -22 3 -27 11 -19 8 8 8 16 0 30 -9 16 -10 14 -11 -11z"/>
<path d="M3971 6664 c0 -11 3 -14 6 -6 3 7 2 16 -1 19 -3 4 -6 -2 -5 -13z"/>
<path d="M4170 6659 c0 -8 85 -99 93 -99 4 0 7 5 7 10 0 6 -4 9 -9 8 -4 -2
-27 17 -49 42 -23 25 -41 42 -42 39z"/>
<path d="M8190 6640 c-9 -6 -10 -10 -3 -10 6 0 15 5 18 10 8 12 4 12 -15 0z"/>
<path d="M4295 6620 c11 -14 20 -26 21 -28 1 -2 5 5 8 15 4 9 4 14 0 10 -4 -4
-17 1 -28 10 l-21 18 20 -25z"/>
<path d="M6799 6623 c-13 -16 -12 -17 4 -4 9 7 17 15 17 17 0 8 -8 3 -21 -13z"/>
<path d="M3982 6610 c0 -14 2 -19 5 -12 2 6 2 18 0 25 -3 6 -5 1 -5 -13z"/>
<path d="M8095 6590 c10 -11 20 -20 23 -20 3 0 -3 9 -13 20 -10 11 -20 20 -23
20 -3 0 3 -9 13 -20z"/>
<path d="M6760 6575 c-7 -9 -8 -15 -2 -15 5 0 12 7 16 15 3 8 4 15 2 15 -2 0
-9 -7 -16 -15z"/>
<path d="M8136 6563 c-6 -14 -5 -15 5 -6 7 7 10 15 7 18 -3 3 -9 -2 -12 -12z"/>
<path d="M46 6543 c-6 -14 -5 -15 5 -6 7 7 10 15 7 18 -3 3 -9 -2 -12 -12z"/>
<path d="M7015 6540 c-16 -7 -17 -9 -3 -9 9 -1 20 4 23 9 7 11 7 11 -20 0z"/>
<path d="M7950 6536 c0 -2 8 -10 18 -17 15 -13 16 -12 3 4 -13 16 -21 21 -21
13z"/>
<path d="M4040 6512 c0 -5 7 -9 15 -9 8 0 12 4 9 9 -3 4 -9 8 -15 8 -5 0 -9
-4 -9 -8z"/>
<path d="M4070 6486 c0 -2 8 -10 18 -17 15 -13 16 -12 3 4 -13 16 -21 21 -21
13z"/>
<path d="M4014 6455 c-3 -8 -4 -20 -2 -27 3 -7 7 -1 10 15 6 29 1 36 -8 12z"/>
<path d="M4120 6451 c0 -7 -5 -9 -12 -5 -7 5 -8 3 -3 -5 5 -9 10 -10 18 -2 6
6 8 14 4 18 -4 3 -7 1 -7 -6z"/>
<path d="M657 6408 c-18 -18 -23 -25 -11 -14 12 10 27 15 34 11 6 -3 9 -1 8 7
-6 26 43 20 76 -9 l31 -28 -29 33 c-17 18 -39 32 -53 32 -13 0 -38 -15 -56
-32z"/>
<path d="M4022 6380 c0 -14 2 -19 5 -12 2 6 2 18 0 25 -3 6 -5 1 -5 -13z"/>
<path d="M579 6343 l-24 -28 28 24 c15 14 27 26 27 28 0 8 -8 1 -31 -24z"/>
<path d="M889 6253 c57 -68 106 -123 109 -123 3 0 -4 10 -16 23 -22 24 -22 24
-2 42 23 21 20 28 -43 99 -40 45 -45 47 -65 35 -19 -12 -25 -10 -53 16 -18 17
14 -25 70 -92z m50 18 c44 -53 49 -66 26 -74 -17 -7 -110 97 -100 113 12 20
34 9 74 -39z"/>
<path d="M4538 6348 c9 -9 15 -9 24 0 9 9 7 12 -12 12 -19 0 -21 -3 -12 -12z"/>
<path d="M4498 6343 c7 -3 16 -2 19 1 4 3 -2 6 -13 5 -11 0 -14 -3 -6 -6z"/>
<path d="M4031 6324 c0 -11 3 -14 6 -6 3 7 2 16 -1 19 -3 4 -6 -2 -5 -13z"/>
<path d="M4448 6333 c7 -3 16 -2 19 1 4 3 -2 6 -13 5 -11 0 -14 -3 -6 -6z"/>
<path d="M4398 6323 c7 -3 16 -2 19 1 4 3 -2 6 -13 5 -11 0 -14 -3 -6 -6z"/>
<path d="M509 6283 l-34 -38 38 34 c20 19 37 36 37 38 0 8 -8 0 -41 -34z"/>
<path d="M4218 6293 c7 -3 16 -2 19 1 4 3 -2 6 -13 5 -11 0 -14 -3 -6 -6z"/>
<path d="M4168 6283 c7 -3 16 -2 19 1 4 3 -2 6 -13 5 -11 0 -14 -3 -6 -6z"/>
<path d="M4040 6264 c0 -8 5 -12 10 -9 6 4 8 11 5 16 -9 14 -15 11 -15 -7z"/>
<path d="M471 6228 c-1 -10 11 -30 27 -46 15 -15 19 -19 10 -7 -9 11 -21 31
-27 45 -7 17 -10 20 -10 8z"/>
<path d="M725 6179 c-5 -15 0 -27 16 -43 22 -20 23 -20 6 0 -23 28 -21 43 6
54 l22 9 -22 0 c-14 1 -24 -7 -28 -20z"/>
<path d="M770 6177 c0 -2 15 -16 33 -33 l32 -29 -29 33 c-28 30 -36 37 -36 29z"/>
<path d="M605 6050 c42 -49 79 -90 81 -90 3 0 -29 41 -71 90 -42 50 -79 90
-81 90 -3 0 29 -40 71 -90z"/>
<path d="M1020 6095 c13 -14 26 -25 28 -25 3 0 -5 11 -18 25 -13 14 -26 25
-28 25 -3 0 5 -11 18 -25z"/>
<path d="M776 6092 c22 -24 48 -22 59 6 5 13 2 13 -15 -3 -19 -18 -21 -18 -42
1 l-23 18 21 -22z"/>
<path d="M920 6040 c8 -5 20 -10 25 -10 6 0 3 5 -5 10 -8 5 -19 10 -25 10 -5
0 -3 -5 5 -10z"/>
<path d="M990 6010 c8 -5 20 -10 25 -10 6 0 3 5 -5 10 -8 5 -19 10 -25 10 -5
0 -3 -5 5 -10z"/>
<path d="M1045 6002 c-5 -4 -19 -18 -30 -32 -16 -21 -14 -20 13 4 29 27 37 36
30 36 -2 0 -7 -4 -13 -8z"/>
<path d="M5909 5939 l-24 -20 28 17 c15 9 27 18 27 20 0 8 -8 4 -31 -17z"/>
<path d="M5976 5952 c6 -4 36 -42 68 -84 31 -43 59 -78 62 -78 2 0 -24 38 -58
85 -34 47 -67 85 -72 85 -8 0 -8 -3 0 -8z"/>
<path d="M710 5925 c13 -14 26 -25 28 -25 3 0 -5 11 -18 25 -13 14 -26 25 -28
25 -3 0 5 -11 18 -25z"/>
<path d="M916 5889 c-38 -32 -79 -59 -90 -59 -11 0 -36 15 -56 33 l-35 32 34
-37 c19 -21 44 -38 56 -38 18 0 165 112 165 125 0 8 -2 6 -74 -56z"/>
<path d="M5859 5903 c-13 -16 -12 -17 4 -4 16 13 21 21 13 21 -2 0 -10 -8 -17
-17z"/>
<path d="M5990 5867 c29 -40 31 -49 20 -64 -13 -17 -13 -17 5 -1 18 17 18 18
-10 58 -16 22 -33 44 -39 47 -5 4 5 -14 24 -40z"/>
<path d="M5904 5864 l-39 -35 43 32 c38 30 48 39 39 39 -2 0 -21 -16 -43 -36z"/>
<path d="M5805 5864 l-30 -26 33 22 c17 12 32 23 32 26 0 7 -4 5 -35 -22z"/>
<path d="M3131 5847 c2 -1 15 -11 29 -22 l25 -20 -19 23 c-11 12 -24 22 -29
22 -6 0 -8 -1 -6 -3z"/>
<path d="M3050 5825 c-7 -9 -11 -17 -9 -20 3 -2 10 5 17 15 14 24 10 26 -8 5z"/>
<path d="M5749 5823 c-13 -16 -12 -17 4 -4 9 7 17 15 17 17 0 8 -8 3 -21 -13z"/>
<path d="M3105 5811 c-6 -11 9 -23 19 -14 9 9 7 23 -3 23 -6 0 -12 -4 -16 -9z"/>
<path d="M5880 5816 c0 -2 8 -10 18 -17 15 -13 16 -12 3 4 -13 16 -21 21 -21
13z"/>
<path d="M5687 5779 c-35 -29 -48 -61 -28 -73 5 -4 7 4 3 16 -4 16 4 29 34 55
21 18 37 33 34 33 -3 0 -22 -14 -43 -31z"/>
<path d="M2960 5790 c-23 -8 -22 -8 8 -7 19 1 36 5 38 9 6 10 -13 9 -46 -2z"/>
<path d="M3182 5775 c0 -16 2 -22 5 -12 2 9 2 23 0 30 -3 6 -5 -1 -5 -18z"/>
<path d="M2542 5774 c-12 -8 -22 -20 -22 -26 0 -7 6 -5 13 4 6 8 21 20 32 26
11 6 15 12 10 12 -6 0 -21 -7 -33 -16z"/>
<path d="M2611 5787 c2 -1 15 -11 29 -22 l25 -20 -19 23 c-11 12 -24 22 -29
22 -6 0 -8 -1 -6 -3z"/>
<path d="M3031 5774 c0 -11 3 -14 6 -6 3 7 2 16 -1 19 -3 4 -6 -2 -5 -13z"/>
<path d="M5969 5773 c-13 -16 -12 -17 4 -4 16 13 21 21 13 21 -2 0 -10 -8 -17
-17z"/>
<path d="M2898 5773 c6 -2 18 -2 25 0 6 3 1 5 -13 5 -14 0 -19 -2 -12 -5z"/>
<path d="M5789 5763 c-13 -16 -12 -17 4 -4 9 7 17 15 17 17 0 8 -8 3 -21 -13z"/>
<path d="M5922 5764 c10 -10 20 -16 22 -13 3 3 -5 11 -17 18 -21 13 -21 12 -5
-5z"/>
<path d="M6130 5750 c12 -16 24 -30 26 -30 3 0 -4 14 -16 30 -12 17 -24 30
-26 30 -3 0 4 -13 16 -30z"/>
<path d="M2848 5763 c6 -2 18 -2 25 0 6 3 1 5 -13 5 -14 0 -19 -2 -12 -5z"/>
<path d="M3136 5742 l-19 -27 24 22 c12 12 21 24 18 27 -2 2 -13 -8 -23 -22z"/>
<path d="M6015 5739 c-22 -16 -41 -33 -42 -37 -2 -4 9 -20 23 -37 l26 -30 -22
33 c-12 18 -21 34 -19 36 2 1 21 16 43 31 l38 29 29 -34 c16 -19 27 -43 25
-53 -2 -9 0 -15 5 -11 5 3 9 10 9 16 0 12 -59 88 -68 88 -4 0 -25 -14 -47 -31z"/>
<path d="M2585 5751 c-6 -11 9 -23 19 -14 9 9 7 23 -3 23 -6 0 -12 -4 -16 -9z"/>
<path d="M2798 5753 c7 -3 16 -2 19 1 4 3 -2 6 -13 5 -11 0 -14 -3 -6 -6z"/>
<path d="M3080 5750 c0 -5 5 -10 10 -10 6 0 10 5 10 10 0 6 -4 10 -10 10 -5 0
-10 -4 -10 -10z"/>
<path d="M2705 5740 c-3 -5 1 -10 9 -10 9 0 16 5 16 10 0 6 -4 10 -9 10 -6 0
-13 -4 -16 -10z"/>
<path d="M2748 5743 c7 -3 16 -2 19 1 4 3 -2 6 -13 5 -11 0 -14 -3 -6 -6z"/>
<path d="M3040 5743 c0 -6 8 -17 18 -24 16 -13 16 -13 2 6 -8 11 -16 22 -17
24 -2 2 -3 0 -3 -6z"/>
<path d="M5735 5724 l-30 -26 33 22 c17 12 32 23 32 26 0 7 -4 5 -35 -22z"/>
<path d="M5795 5719 c-59 -45 -67 -57 -12 -18 42 29 65 50 55 49 -2 0 -21 -14
-43 -31z"/>
<path d="M2662 5715 c0 -16 2 -22 5 -12 2 9 2 23 0 30 -3 6 -5 -1 -5 -18z"/>
<path d="M3151 5720 c-13 -11 -19 -20 -14 -20 6 0 18 9 28 20 23 25 17 25 -14
0z"/>
<path d="M2511 5714 c0 -11 3 -14 6 -6 3 7 2 16 -1 19 -3 4 -6 -2 -5 -13z"/>
<path d="M5816 5684 c-32 -24 -54 -44 -50 -44 5 0 36 21 68 45 33 25 55 45 50
44 -5 0 -35 -20 -68 -45z"/>
<path d="M6030 5709 c0 -5 5 -7 10 -4 6 3 10 8 10 11 0 2 -4 4 -10 4 -5 0 -10
-5 -10 -11z"/>
<path d="M2617 5684 c-13 -18 -14 -22 -3 -18 8 3 17 13 20 21 10 25 3 23 -17
-3z"/>
<path d="M6189 5670 c17 -25 43 -58 57 -75 20 -23 18 -20 -5 15 -17 25 -43 59
-57 75 -20 23 -18 20 5 -15z"/>
<path d="M2560 5690 c0 -5 5 -10 10 -10 6 0 10 5 10 10 0 6 -4 10 -10 10 -5 0
-10 -4 -10 -10z"/>
<path d="M2520 5683 c0 -6 8 -17 18 -24 16 -13 16 -13 2 6 -8 11 -16 22 -17
24 -2 2 -3 0 -3 -6z"/>
<path d="M5700 5646 c19 -26 39 -50 44 -54 5 -3 -6 16 -24 42 -19 26 -39 50
-44 54 -5 3 6 -16 24 -42z"/>
<path d="M2631 5660 c-13 -11 -19 -20 -14 -20 6 0 18 9 28 20 23 25 17 25 -14
0z"/>
<path d="M6041 5664 c0 -11 3 -14 6 -6 3 7 2 16 -1 19 -3 4 -6 -2 -5 -13z"/>
<path d="M3050 5654 c0 -8 5 -12 10 -9 6 3 10 10 10 16 0 5 -4 9 -10 9 -5 0
-10 -7 -10 -16z"/>
<path d="M6079 5643 c-13 -16 -12 -17 4 -4 9 7 17 15 17 17 0 8 -8 3 -21 -13z"/>
<path d="M5899 5633 c-13 -16 -12 -17 4 -4 16 13 21 21 13 21 -2 0 -10 -8 -17
-17z"/>
<path d="M6030 5616 c7 -7 13 -7 20 0 6 6 3 10 -10 10 -13 0 -16 -4 -10 -10z"/>
<path d="M6112 5599 c-23 -17 -42 -34 -42 -37 0 -4 14 -23 32 -42 l30 -35 -26
37 c-14 20 -26 39 -26 41 0 2 19 17 41 33 l42 29 28 -35 c35 -41 35 -46 7 -71
l-23 -20 28 17 c15 9 27 21 27 26 0 15 -54 88 -66 88 -5 0 -29 -14 -52 -31z"/>
<path d="M2650 5611 c0 -5 15 -32 33 -59 52 -81 60 -90 31 -37 -16 28 -34 62
-42 78 -14 27 -22 34 -22 18z"/>
<path d="M5845 5594 l-30 -26 33 22 c17 12 32 23 32 26 0 7 -4 5 -35 -22z"/>
<path d="M5893 5579 c-29 -22 -53 -42 -53 -45 0 -2 25 14 55 37 48 36 62 49
53 49 -2 0 -27 -18 -55 -41z"/>
<path d="M3016 5575 c-9 -26 -7 -32 5 -12 6 10 9 21 6 23 -2 3 -7 -2 -11 -11z"/>
<path d="M5935 5559 c-59 -45 -67 -57 -12 -18 42 29 65 50 55 49 -2 0 -21 -14
-43 -31z"/>
<path d="M5750 5576 c0 -2 8 -10 18 -17 15 -13 16 -12 3 4 -13 16 -21 21 -21
13z"/>
<path d="M6138 5573 c7 -3 16 -2 19 1 4 3 -2 6 -13 5 -11 0 -14 -3 -6 -6z"/>
<path d="M4655 5550 c3 -5 8 -10 11 -10 2 0 4 5 4 10 0 6 -5 10 -11 10 -5 0
-7 -4 -4 -10z"/>
<path d="M6277 5539 c4 -13 8 -18 11 -10 2 7 -1 18 -6 23 -8 8 -9 4 -5 -13z"/>
<path d="M5800 5510 c12 -16 24 -30 26 -30 3 0 -4 14 -16 30 -12 17 -24 30
-26 30 -3 0 4 -13 16 -30z"/>
<path d="M6141 5524 c0 -11 3 -14 6 -6 3 7 2 16 -1 19 -3 4 -6 -2 -5 -13z"/>
<path d="M2977 5485 c-24 -50 -20 -58 4 -12 11 22 19 41 17 43 -3 2 -12 -12
-21 -31z"/>
<path d="M6009 5503 c-13 -16 -12 -17 4 -4 9 7 17 15 17 17 0 8 -8 3 -21 -13z"/>
<path d="M6245 5484 l-30 -26 33 22 c17 12 32 23 32 26 0 7 -4 5 -35 -22z"/>
<path d="M7356 5495 c-11 -8 -17 -17 -14 -20 2 -3 15 4 28 15 26 23 15 27 -14
5z"/>
<path d="M7410 5500 c8 -5 20 -10 25 -10 6 0 3 5 -5 10 -8 5 -19 10 -25 10 -5
0 -3 -5 5 -10z"/>
<path d="M5946 5460 c-22 -17 -35 -30 -30 -30 9 1 83 59 74 59 -3 0 -23 -13
-44 -29z"/>
<path d="M6015 5459 c-59 -45 -67 -57 -12 -18 42 29 65 50 55 49 -2 0 -21 -14
-43 -31z"/>
<path d="M7438 5468 c-10 -10 -14 -18 -9 -18 10 0 36 29 30 34 -2 1 -12 -6
-21 -16z"/>
<path d="M5830 5466 c0 -2 8 -10 18 -17 15 -13 16 -12 3 4 -13 16 -21 21 -21
13z"/>
<path d="M7468 5450 c-10 -11 -13 -22 -9 -25 5 -2 12 2 15 11 4 10 12 14 22
10 14 -5 15 -4 4 9 -7 8 -13 15 -14 14 0 0 -9 -9 -18 -19z"/>
<path d="M2750 5440 c6 -11 13 -20 16 -20 2 0 0 9 -6 20 -6 11 -13 20 -16 20
-2 0 0 -9 6 -20z"/>
<path d="M6069 5443 c-13 -16 -12 -17 4 -4 9 7 17 15 17 17 0 8 -8 3 -21 -13z"/>
<path d="M6189 5443 c-13 -16 -12 -17 4 -4 9 7 17 15 17 17 0 8 -8 3 -21 -13z"/>
<path d="M7190 5445 c-7 -8 -10 -16 -6 -16 38 -8 66 -20 66 -30 0 -12 -4 -12
-44 8 -29 13 -38 14 -51 3 -22 -18 -19 -27 15 -33 16 -4 50 -25 75 -48 25 -23
45 -38 45 -34 0 4 -11 18 -25 30 -23 19 -25 25 -15 49 9 25 12 27 27 15 10 -8
14 -9 10 -2 -13 21 15 26 35 5 19 -19 17 -49 -2 -37 -5 3 -12 0 -15 -5 -5 -8
-13 -6 -26 6 -30 27 -22 11 14 -30 24 -26 38 -35 50 -30 16 6 16 9 2 30 -10
15 -11 25 -4 29 12 8 11 9 26 -26 10 -24 9 -28 -13 -40 -17 -9 -21 -16 -14
-23 8 -8 16 -5 28 11 15 21 53 25 69 9 9 -9 -9 -27 -22 -22 -7 2 -16 -2 -19
-10 -3 -8 -11 -14 -18 -14 -9 0 -9 3 0 12 7 7 12 16 12 22 0 10 -29 -24 -30
-35 0 -4 9 -9 20 -12 11 -3 18 0 17 7 -1 6 8 11 21 10 12 0 22 5 22 13 0 7 5
13 12 13 6 0 -1 14 -17 30 -29 30 -53 41 -39 18 5 -9 2 -8 -10 1 -9 8 -15 20
-12 27 3 7 -2 15 -10 18 -8 3 -13 10 -12 15 2 5 0 8 -3 8 -4 -1 -16 7 -28 17
-15 14 -25 16 -32 9 -8 -8 -21 -5 -47 10 -36 21 -30 37 7 18 30 -16 40 -12 11
4 -33 19 -55 19 -70 0z m25 -57 c14 -6 25 -15 25 -20 0 -12 -11 -9 -50 12 -38
21 -18 28 25 8z m125 -80 c0 -14 -15 -8 -27 11 -15 24 -3 38 14 15 7 -10 13
-21 13 -26z"/>
<path d="M5882 5398 c13 -18 35 -48 48 -65 13 -18 29 -33 34 -33 8 0 8 2 0 8
-6 4 -30 33 -53 65 -24 31 -46 57 -48 57 -3 0 6 -15 19 -32z"/>
<path d="M6135 5404 l-30 -26 33 22 c17 12 32 23 32 26 0 7 -4 5 -35 -22z"/>
<path d="M2785 5383 c8 -18 18 -33 20 -33 10 0 4 16 -16 40 l-20 25 16 -32z"/>
<path d="M2935 5400 c-3 -5 -1 -10 4 -10 6 0 11 5 11 10 0 6 -2 10 -4 10 -3 0
-8 -4 -11 -10z"/>
<path d="M5999 5393 c-13 -16 -12 -17 4 -4 16 13 21 21 13 21 -2 0 -10 -8 -17
-17z"/>
<path d="M7420 5396 c0 -8 5 -18 10 -21 6 -3 10 -14 10 -23 -1 -15 -2 -15 -15
2 -8 11 -17 17 -20 14 -8 -8 54 -68 71 -68 18 0 18 10 -1 37 -10 15 -12 24 -4
28 6 4 13 -2 16 -14 3 -12 10 -21 15 -21 12 0 -19 50 -41 67 -22 17 -41 16
-41 -1z m40 -16 c0 -5 -4 -10 -10 -10 -5 0 -10 5 -10 10 0 6 5 10 10 10 6 0
10 -4 10 -10z m5 -50 c3 -5 1 -10 -4 -10 -6 0 -11 5 -11 10 0 6 2 10 4 10 3 0
8 -4 11 -10z"/>
<path d="M6079 5363 c-13 -16 -12 -17 4 -4 9 7 17 15 17 17 0 8 -8 3 -21 -13z"/>
<path d="M7535 5350 c10 -11 20 -20 22 -20 2 0 -2 9 -9 20 -7 11 -17 20 -22
20 -5 0 -1 -9 9 -20z"/>
<path d="M7580 5356 c13 -16 12 -20 -5 -32 -10 -8 -14 -14 -8 -14 6 0 16 7 23
16 11 12 10 18 -5 32 -18 16 -18 16 -5 -2z"/>
<path d="M1600 5318 l-32 -43 34 38 c34 38 63 46 88 25 12 -11 12 -10 1 5 -23
30 -56 21 -91 -25z"/>
<path d="M2934 5339 c14 -11 26 -28 27 -37 0 -12 2 -13 6 -4 5 14 -33 62 -50
62 -5 0 2 -9 17 -21z"/>
<path d="M2830 5335 c-7 -9 -11 -17 -9 -20 3 -2 10 5 17 15 14 24 10 26 -8 5z"/>
<path d="M6020 5325 c-19 -14 -30 -25 -25 -25 6 0 24 11 40 25 39 31 30 31
-15 0z"/>
<path d="M1710 5327 c0 -3 18 -20 40 -37 22 -17 40 -29 40 -27 0 3 -18 20 -40
37 -22 17 -40 29 -40 27z"/>
<path d="M2885 5321 c-6 -11 9 -23 19 -14 9 9 7 23 -3 23 -6 0 -12 -4 -16 -9z"/>
<path d="M7170 5322 c0 -16 48 -54 59 -47 6 3 8 12 4 18 -4 7 0 6 10 -2 9 -7
17 -20 17 -27 0 -8 5 -14 10 -14 19 0 10 29 -16 49 -33 26 -44 26 -45 4 0 -14
-3 -13 -11 5 -11 21 -28 30 -28 14z"/>
<path d="M4620 5310 c0 -5 5 -10 11 -10 5 0 7 5 4 10 -3 6 -8 10 -11 10 -2 0
-4 -4 -4 -10z"/>
<path d="M7589 5307 c-16 -12 -19 -53 -5 -76 5 -7 3 -18 -3 -24 -9 -9 -17 -6
-31 13 -17 22 -22 23 -40 12 -14 -9 -26 -10 -38 -3 -16 9 -16 10 0 16 10 4 15
11 12 17 -3 5 -12 1 -19 -9 -7 -10 -11 -21 -8 -26 2 -4 -1 -16 -8 -25 -12 -14
-10 -14 8 1 20 18 21 18 38 -5 16 -22 17 -22 11 -1 -10 33 13 38 42 9 24 -24
25 -28 13 -49 -13 -20 -13 -21 3 -8 14 12 18 12 30 -5 8 -10 18 -16 22 -11 4
4 2 7 -4 7 -7 0 -12 6 -12 14 0 8 -6 16 -12 19 -10 3 -10 9 -1 25 6 11 9 29 6
40 -2 11 0 23 6 26 18 11 13 26 -6 20 -16 -5 -15 -3 1 10 23 18 18 30 -5 13z"/>
<path d="M1624 5278 l-19 -23 25 20 c14 11 27 21 29 22 2 2 0 3 -6 3 -5 0 -18
-10 -29 -22z"/>
<path d="M2811 5284 c0 -11 3 -14 6 -6 3 7 2 16 -1 19 -3 4 -6 -2 -5 -13z"/>
<path d="M1699 5261 c37 -33 37 -32 -13 -88 -16 -19 -22 -21 -35 -10 -14 11
-15 10 -1 -7 14 -18 16 -16 52 24 21 23 38 46 38 50 0 4 -17 20 -37 35 l-38
26 34 -30z"/>
<path d="M2916 5265 c-9 -26 -7 -32 5 -12 6 10 9 21 6 23 -2 3 -7 -2 -11 -11z"/>
<path d="M2955 5258 c-6 -13 -21 -28 -35 -35 -15 -8 -19 -13 -9 -13 19 0 63
44 58 59 -2 6 -9 1 -14 -11z"/>
<path d="M7300 5273 c0 -6 5 -15 11 -18 7 -5 3 -16 -12 -31 -12 -13 -25 -21
-29 -19 -4 2 -7 -2 -7 -10 0 -30 36 -9 50 29 4 11 13 16 22 12 8 -3 15 -1 15
4 0 6 -7 10 -15 10 -7 0 -19 8 -24 18 -6 9 -11 12 -11 5z"/>
<path d="M1530 5230 c-17 -22 -29 -40 -27 -40 3 0 20 18 37 40 17 22 29 40 27
40 -3 0 -20 -18 -37 -40z"/>
<path d="M2860 5260 c0 -5 5 -10 10 -10 6 0 10 5 10 10 0 6 -4 10 -10 10 -5 0
-10 -4 -10 -10z"/>
<path d="M7180 5266 c0 -2 8 -10 18 -17 15 -13 16 -12 3 4 -13 16 -21 21 -21
13z"/>
<path d="M1800 5257 c0 -3 18 -20 40 -37 22 -17 40 -29 40 -27 0 3 -18 20 -40
37 -22 17 -40 29 -40 27z"/>
<path d="M2820 5250 c0 -13 49 -44 57 -36 3 3 1 6 -5 6 -7 0 -21 9 -32 20 -11
11 -20 16 -20 10z"/>
<path d="M1592 5238 c-18 -18 -14 -31 16 -52 l27 -19 -24 26 c-20 22 -22 29
-11 42 15 18 9 20 -8 3z"/>
<path d="M1667 5219 c-9 -5 -22 -7 -27 -4 -6 3 -10 1 -10 -4 0 -6 6 -11 13
-11 15 1 66 29 52 29 -5 0 -18 -4 -28 -10z"/>
<path d="M7320 5210 c0 -5 16 -14 35 -20 41 -13 51 -26 36 -44 -8 -9 0 -22 32
-52 23 -21 33 -29 23 -17 -19 23 -13 48 9 39 8 -3 19 2 26 10 8 9 16 11 23 5
16 -13 42 27 28 41 -7 7 -10 4 -9 -8 1 -11 -5 -19 -14 -19 -9 0 -23 -6 -31
-13 -12 -10 -18 -9 -28 2 -16 21 -3 38 23 31 20 -5 20 -5 4 5 -23 15 -50 -5
-42 -31 8 -23 -12 -34 -31 -18 -14 12 -14 14 3 27 17 13 17 14 -6 30 -35 24
-81 42 -81 32z"/>
<path d="M4605 5200 c3 -5 8 -10 11 -10 2 0 4 5 4 10 0 6 -5 10 -11 10 -5 0
-7 -4 -4 -10z"/>
<path d="M7610 5190 c0 -5 5 -10 11 -10 5 0 7 5 4 10 -3 6 -8 10 -11 10 -2 0
-4 -4 -4 -10z"/>
<path d="M1890 5187 c0 -2 15 -16 33 -33 l32 -29 -29 33 c-28 30 -36 37 -36
29z"/>
<path d="M1460 5140 c-17 -22 -29 -40 -27 -40 3 0 20 18 37 40 17 22 29 40 27
40 -3 0 -20 -18 -37 -40z"/>
<path d="M7332 5165 c15 -16 20 -17 30 -6 11 11 10 13 0 7 -7 -4 -21 -2 -30 5
-15 12 -15 11 0 -6z"/>
<path d="M1524 5148 c-30 -34 -47 -58 -42 -58 3 0 19 18 37 40 34 43 38 55 5
18z"/>
<path d="M1800 5167 c0 -3 21 -22 47 -43 26 -21 44 -33 40 -27 -9 14 -87 77
-87 70z"/>
<path d="M1564 5152 c8 -13 66 -56 66 -49 0 3 -17 17 -37 33 -20 15 -33 23
-29 16z"/>
<path d="M1815 5098 c22 -21 44 -38 48 -38 5 0 -6 12 -25 27 -56 45 -66 50
-23 11z"/>
<path d="M7626 5125 c-11 -8 -15 -15 -9 -15 6 0 16 7 23 15 16 19 11 19 -14 0z"/>
<path d="M7567 5109 c4 -13 -3 -22 -23 -30 -16 -7 -32 -12 -35 -11 -4 1 -15
-9 -25 -21 l-19 -22 23 19 c12 11 22 16 22 13 0 -4 16 2 35 13 19 11 35 15 35
10 0 -5 -8 -14 -17 -19 -10 -6 -13 -11 -7 -11 5 0 16 6 23 13 11 10 13 9 7 -6
-3 -10 -6 -21 -6 -23 0 -3 -4 -3 -9 1 -5 3 -12 1 -15 -4 -13 -20 12 -20 30 0
15 17 16 25 6 51 -6 17 -9 34 -7 38 2 4 -2 7 -9 7 -8 0 -11 -8 -9 -18z"/>
<path d="M1774 5075 c32 -25 61 -45 64 -45 7 0 4 3 -60 53 -25 20 -50 37 -54
37 -4 0 19 -20 50 -45z"/>
<path d="M7335 5111 c-2 -5 3 -17 11 -27 14 -17 15 -17 10 -1 -3 9 -1 17 4 17
5 0 8 -13 8 -30 -1 -24 -4 -28 -15 -19 -23 19 -14 -6 10 -29 22 -21 57 -30 57
-15 0 4 -10 17 -22 30 -12 13 -18 26 -14 30 4 5 14 -1 22 -11 8 -11 14 -15 14
-9 0 31 -71 85 -85 64z m65 -92 c0 -6 -4 -7 -10 -4 -5 3 -10 11 -10 16 0 6 5
7 10 4 6 -3 10 -11 10 -16z"/>
<path d="M1531 5087 c-1 -26 1 -27 22 -16 31 17 36 23 10 15 -16 -5 -23 -2
-26 11 -3 11 -5 8 -6 -10z"/>
<path d="M7526 5098 c3 -5 10 -6 15 -3 13 9 11 12 -6 12 -8 0 -12 -4 -9 -9z"/>
<path d="M7628 5103 c-9 -3 -16 -13 -15 -24 1 -19 2 -19 21 1 22 21 20 28 -6
23z"/>
<path d="M1920 5068 c-15 -21 -17 -28 -6 -19 16 13 41 51 33 51 -2 0 -14 -15
-27 -32z"/>
<path d="M7470 5095 c0 -7 30 -13 34 -7 3 4 -4 9 -15 9 -10 1 -19 0 -19 -2z"/>
<path d="M1404 5068 l-19 -23 23 19 c21 18 27 26 19 26 -2 0 -12 -10 -23 -22z"/>
<path d="M4435 5080 c-3 -5 -1 -10 4 -10 6 0 11 5 11 10 0 6 -2 10 -4 10 -3 0
-8 -4 -11 -10z"/>
<path d="M1495 5060 c10 -11 20 -20 23 -20 3 0 -3 9 -13 20 -10 11 -20 20 -23
20 -3 0 3 -9 13 -20z"/>
<path d="M1583 5038 c-19 -19 -24 -20 -40 -8 -17 13 -17 13 0 -5 17 -19 18
-19 44 8 15 15 25 27 22 27 -2 0 -14 -10 -26 -22z"/>
<path d="M1350 5000 c-18 -23 -31 -42 -29 -44 2 -2 19 16 37 40 41 55 35 58
-8 4z"/>
<path d="M1705 5020 c10 -11 20 -20 23 -20 3 0 -3 9 -13 20 -10 11 -20 20 -23
20 -3 0 3 -9 13 -20z"/>
<path d="M7325 5020 c10 -11 20 -20 23 -20 3 0 -3 9 -13 20 -10 11 -20 20 -23
20 -3 0 3 -9 13 -20z"/>
<path d="M7497 5026 c-12 -9 -14 -16 -8 -21 6 -3 11 -20 11 -37 l0 -31 21 27
c14 18 19 34 15 51 -7 28 -14 30 -39 11z m27 -37 c-5 -8 -10 -6 -16 5 -5 9 -6
21 -2 27 5 8 10 6 16 -5 5 -9 6 -21 2 -27z"/>
<path d="M1401 4993 c-17 -21 -31 -40 -31 -44 0 -3 10 -14 23 -25 l22 -19 -19
23 c-19 22 -19 22 13 62 18 22 30 40 27 40 -2 0 -18 -17 -35 -37z"/>
<path d="M1485 4997 l39 -36 -33 -43 -32 -43 35 39 c20 22 36 43 36 47 0 4
-19 22 -42 39 l-43 32 40 -35z"/>
<path d="M1860 4990 c-17 -22 -29 -40 -27 -40 3 0 20 18 37 40 17 22 29 40 27
40 -3 0 -20 -18 -37 -40z"/>
<path d="M1660 5007 c0 -3 18 -20 40 -37 22 -17 40 -29 40 -27 0 3 -18 20 -40
37 -22 17 -40 29 -40 27z"/>
<path d="M1757 4979 c12 -12 24 -21 27 -18 2 2 -8 13 -22 23 l-27 19 22 -24z"/>
<path d="M1635 4970 c10 -11 20 -20 23 -20 3 0 -3 9 -13 20 -10 11 -20 20 -23
20 -3 0 3 -9 13 -20z"/>
<path d="M7370 4986 c0 -2 8 -10 18 -17 15 -13 16 -12 3 4 -13 16 -21 21 -21
13z"/>
<path d="M1685 4930 c10 -11 20 -20 23 -20 3 0 -3 9 -13 20 -10 11 -20 20 -23
20 -3 0 3 -9 13 -20z"/>
<path d="M1808 4923 c-45 -54 -92 -116 -82 -111 12 8 107 128 101 128 -2 0
-11 -8 -19 -17z"/>
<path d="M1340 4895 c13 -14 26 -25 28 -25 3 0 -5 11 -18 25 -13 14 -26 25
-28 25 -3 0 5 -11 18 -25z"/>
<path d="M1420 4906 c0 -2 8 -10 18 -17 15 -13 16 -12 3 4 -13 16 -21 21 -21
13z"/>
<path d="M1595 4890 c10 -11 20 -20 23 -20 3 0 -3 9 -13 20 -10 11 -20 20 -23
20 -3 0 3 -9 13 -20z"/>
<path d="M1555 4870 c10 -11 20 -20 23 -20 3 0 -3 9 -13 20 -10 11 -20 20 -23
20 -3 0 3 -9 13 -20z"/>
<path d="M1380 4867 c0 -3 18 -20 40 -37 22 -17 40 -29 40 -27 0 3 -18 20 -40
37 -22 17 -40 29 -40 27z"/>
<path d="M1639 4856 c13 -16 51 -41 51 -33 0 2 -15 14 -32 27 -21 15 -28 17
-19 6z"/>
<path d="M1525 4840 c10 -11 20 -20 23 -20 3 0 -3 9 -13 20 -10 11 -20 20 -23
20 -3 0 3 -9 13 -20z"/>
<path d="M1605 4830 c10 -11 20 -20 23 -20 3 0 -3 9 -13 20 -10 11 -20 20 -23
20 -3 0 3 -9 13 -20z"/>
<path d="M1564 4812 c8 -13 66 -56 66 -49 0 3 -17 17 -37 33 -20 15 -33 23
-29 16z"/>
<path d="M1485 4780 c10 -11 20 -20 23 -20 3 0 -3 9 -13 20 -10 11 -20 20 -23
20 -3 0 3 -9 13 -20z"/>
<path d="M1680 4760 c-17 -22 -29 -40 -27 -40 3 0 20 18 37 40 17 22 29 40 27
40 -3 0 -20 -18 -37 -40z"/>
<path d="M1524 4752 c8 -13 66 -56 66 -49 0 3 -17 17 -37 33 -20 15 -33 23
-29 16z"/>
<path d="M1615 4700 c-13 -6 -15 -9 -5 -9 8 0 22 4 30 9 18 12 2 12 -25 0z"/>
<path d="M5803 4373 c15 -2 37 -2 50 0 12 2 0 4 -28 4 -27 0 -38 -2 -22 -4z"/>
<path d="M5970 4336 c0 -2 8 -10 18 -17 15 -13 16 -12 3 4 -13 16 -21 21 -21
13z"/>
<path d="M5768 4323 c7 -3 16 -2 19 1 4 3 -2 6 -13 5 -11 0 -14 -3 -6 -6z"/>
<path d="M5868 4323 c7 -3 16 -2 19 1 4 3 -2 6 -13 5 -11 0 -14 -3 -6 -6z"/>
<path d="M5619 4293 l-24 -28 28 24 c25 23 32 31 24 31 -2 0 -14 -12 -28 -27z"/>
<path d="M5715 4308 c-29 -15 -85 -69 -97 -93 -6 -11 6 -1 27 23 20 23 53 51
74 62 20 10 32 19 26 19 -5 0 -19 -5 -30 -11z"/>
<path d="M5920 4306 c0 -2 7 -7 16 -10 8 -3 12 -2 9 4 -6 10 -25 14 -25 6z"/>
<path d="M6045 4260 c19 -28 35 -57 35 -63 0 -6 3 -8 6 -4 8 7 -38 88 -61 107
-9 7 0 -11 20 -40z"/>
<path d="M767 4283 c-3 -5 5 -8 18 -8 13 0 21 3 18 8 -2 4 -10 7 -18 7 -8 0
-16 -3 -18 -7z"/>
<path d="M910 4286 c0 -2 8 -10 18 -17 15 -13 16 -12 3 4 -13 16 -21 21 -21
13z"/>
<path d="M5960 4287 c0 -2 15 -16 33 -33 l32 -29 -29 33 c-28 30 -36 37 -36
29z"/>
<path d="M736 4223 c-6 -14 -5 -15 5 -6 7 7 10 15 7 18 -3 3 -9 -2 -12 -12z"/>
<path d="M855 4230 c3 -5 8 -10 11 -10 2 0 4 5 4 10 0 6 -5 10 -11 10 -5 0 -7
-4 -4 -10z"/>
<path d="M4110 4237 c0 -2 15 -16 33 -33 l32 -29 -29 33 c-28 30 -36 37 -36
29z"/>
<path d="M5565 4219 c-4 -6 -5 -12 -2 -15 2 -3 7 2 10 11 7 17 1 20 -8 4z"/>
<path d="M6031 4200 c14 -31 19 -36 19 -24 0 6 -7 19 -16 30 -14 18 -14 18 -3
-6z"/>
<path d="M3970 4206 c0 -2 8 -10 18 -17 15 -13 16 -12 3 4 -13 16 -21 21 -21
13z"/>
<path d="M4278 4173 c7 -3 16 -2 19 1 4 3 -2 6 -13 5 -11 0 -14 -3 -6 -6z"/>
<path d="M3860 4163 c0 -14 29 -37 37 -29 3 3 16 -2 27 -11 21 -18 21 -18 2 4
-10 13 -23 20 -29 16 -5 -3 -16 2 -24 12 -7 11 -13 14 -13 8z"/>
<path d="M4315 4160 c3 -5 8 -10 11 -10 2 0 4 5 4 10 0 6 -5 10 -11 10 -5 0
-7 -4 -4 -10z"/>
<path d="M2315 4149 c-4 -6 -5 -12 -2 -15 2 -3 7 2 10 11 7 17 1 20 -8 4z"/>
<path d="M3841 4134 c0 -11 3 -14 6 -6 3 7 2 16 -1 19 -3 4 -6 -2 -5 -13z"/>
<path d="M5810 4102 c0 -5 -10 -14 -22 -21 -14 -7 -16 -9 -5 -6 10 3 33 5 50
5 29 0 30 1 11 15 -22 16 -34 19 -34 7z"/>
<path d="M2380 4075 c13 -14 26 -25 28 -25 3 0 -5 11 -18 25 -13 14 -26 25
-28 25 -3 0 5 -11 18 -25z"/>
<path d="M4311 4064 c0 -11 3 -14 6 -6 3 7 2 16 -1 19 -3 4 -6 -2 -5 -13z"/>
<path d="M5955 4050 c3 -5 8 -10 11 -10 2 0 4 5 4 10 0 6 -5 10 -11 10 -5 0
-7 -4 -4 -10z"/>
<path d="M2852 4028 c7 -15 15 -23 17 -17 2 6 -4 18 -13 27 -15 15 -15 15 -4
-10z"/>
<path d="M2470 3995 c13 -14 26 -25 28 -25 3 0 -5 11 -18 25 -13 14 -26 25
-28 25 -3 0 5 -11 18 -25z"/>
<path d="M5550 4006 c0 -11 30 -66 36 -66 2 0 -3 15 -12 33 -19 36 -24 44 -24
33z"/>
<path d="M5600 4004 c0 -14 54 -90 72 -100 7 -4 3 4 -8 17 -12 13 -31 40 -43
59 -11 19 -21 30 -21 24z"/>
<path d="M750 3980 c0 -5 5 -10 11 -10 5 0 7 5 4 10 -3 6 -8 10 -11 10 -2 0
-4 -4 -4 -10z"/>
<path d="M2625 3931 c27 -28 51 -51 53 -51 8 0 -54 67 -78 85 -14 10 -3 -5 25
-34z"/>
<path d="M6000 3940 c-12 -16 -19 -30 -16 -30 2 0 14 14 26 30 12 17 19 30 16
30 -2 0 -14 -13 -26 -30z"/>
<path d="M606 3947 c3 -10 9 -15 12 -12 3 3 0 11 -7 18 -10 9 -11 8 -5 -6z"/>
<path d="M6026 3902 c-36 -42 -36 -44 -7 -17 28 25 58 66 49 65 -2 -1 -21 -22
-42 -48z"/>
<path d="M5620 3896 c19 -21 44 -42 55 -48 11 -6 18 -9 15 -6 -3 2 -27 24 -55
48 -48 42 -48 42 -15 6z"/>
<path d="M7161 3911 c-10 -7 -10 -10 -1 -16 6 -4 16 -3 22 3 13 13 -4 23 -21
13z"/>
<path d="M575 3900 c-3 -5 -1 -10 4 -10 6 0 11 5 11 10 0 6 -2 10 -4 10 -3 0
-8 -4 -11 -10z"/>
<path d="M2250 3881 c0 -10 8 -25 18 -32 15 -13 16 -12 3 3 -7 10 -11 25 -7
33 3 8 1 15 -4 15 -6 0 -10 -8 -10 -19z"/>
<path d="M7268 3893 c12 -2 32 -2 45 0 12 2 2 4 -23 4 -25 0 -35 -2 -22 -4z"/>
<path d="M7673 3860 c0 -25 2 -35 4 -22 2 12 2 32 0 45 -2 12 -4 2 -4 -23z"/>
<path d="M7408 3883 c6 -2 18 -2 25 0 6 3 1 5 -13 5 -14 0 -19 -2 -12 -5z"/>
<path d="M550 3871 c0 -9 30 -24 36 -18 2 1 -6 8 -16 15 -11 7 -20 8 -20 3z"/>
<path d="M5803 3853 c9 -2 25 -2 35 0 9 3 1 5 -18 5 -19 0 -27 -2 -17 -5z"/>
<path d="M5954 3844 c-18 -14 -18 -15 4 -4 12 6 22 13 22 15 0 8 -5 6 -26 -11z"/>
<path d="M2774 3793 c17 -19 25 -36 21 -44 -5 -8 -4 -10 3 -5 20 12 13 30 -21
55 l-32 25 29 -31z"/>
<path d="M5768 3813 c7 -3 16 -2 19 1 4 3 -2 6 -13 5 -11 0 -14 -3 -6 -6z"/>
<path d="M5868 3813 c7 -3 16 -2 19 1 4 3 -2 6 -13 5 -11 0 -14 -3 -6 -6z"/>
<path d="M726 3765 c-11 -8 -15 -15 -9 -15 6 0 16 7 23 15 16 19 11 19 -14 0z"/>
<path d="M7662 3721 c-1 -19 -10 -44 -19 -55 -17 -21 -17 -21 6 0 17 16 22 29
18 55 l-4 34 -1 -34z"/>
<path d="M7505 3620 c-14 -27 -23 -50 -20 -50 2 0 16 23 30 50 14 28 23 50 20
50 -2 0 -16 -22 -30 -50z"/>
<path d="M7610 3630 c-9 -6 -10 -10 -3 -10 6 0 15 5 18 10 8 12 4 12 -15 0z"/>
<path d="M7386 3622 c-3 -5 1 -9 9 -9 8 0 12 4 9 9 -3 4 -7 8 -9 8 -2 0 -6 -4
-9 -8z"/>
<path d="M7270 3538 c-35 -40 -73 -84 -84 -98 -33 -40 33 28 91 95 49 57 52
59 66 41 11 -16 15 -16 22 -5 5 8 4 10 0 6 -5 -4 -14 2 -20 13 -11 20 -15 17
-75 -52z"/>
<path d="M7440 3542 c9 -19 30 -23 30 -5 0 4 -3 3 -7 0 -3 -4 -12 1 -20 11
-13 15 -13 15 -3 -6z"/>
<path d="M7642 3415 c0 -16 2 -22 5 -12 2 9 2 23 0 30 -3 6 -5 -1 -5 -18z"/>
<path d="M7635 3367 c-4 -10 -5 -21 -1 -24 10 -10 18 4 13 24 -4 17 -4 17 -12
0z"/>
<path d="M3741 3117 c2 -1 15 -11 29 -22 l25 -20 -19 23 c-11 12 -24 22 -29
22 -6 0 -8 -1 -6 -3z"/>
<path d="M1431 3106 c2 -2 15 -9 29 -15 24 -11 24 -11 6 3 -16 13 -49 24 -35
12z"/>
<path d="M3710 3080 c0 -5 5 -10 10 -10 6 0 10 5 10 10 0 6 -4 10 -10 10 -5 0
-10 -4 -10 -10z"/>
<path d="M1135 3038 l-40 -43 43 40 c39 36 47 45 39 45 -2 0 -21 -19 -42 -42z"/>
<path d="M3791 3054 c0 -11 3 -14 6 -6 3 7 2 16 -1 19 -3 4 -6 -2 -5 -13z"/>
<path d="M1430 3056 c0 -2 7 -7 16 -10 8 -3 12 -2 9 4 -6 10 -25 14 -25 6z"/>
<path d="M1535 3040 c10 -11 20 -20 23 -20 3 0 -3 9 -13 20 -10 11 -20 20 -23
20 -3 0 3 -9 13 -20z"/>
<path d="M1500 3005 c19 -22 39 -44 44 -50 5 -5 4 -1 -2 10 -6 11 -25 33 -44
50 l-33 30 35 -40z"/>
<path d="M3720 3030 c0 -5 5 -10 10 -10 6 0 10 5 10 10 0 6 -4 10 -10 10 -5 0
-10 -4 -10 -10z"/>
<path d="M1163 3008 c-11 -13 -24 -30 -28 -38 -8 -16 -6 -14 34 33 14 15 22
27 19 27 -2 0 -14 -10 -25 -22z"/>
<path d="M3761 3010 c-13 -11 -19 -20 -14 -20 6 0 18 9 28 20 23 25 17 25 -14
0z"/>
<path d="M3640 3009 c0 -5 5 -7 10 -4 6 3 10 8 10 11 0 2 -4 4 -10 4 -5 0 -10
-5 -10 -11z"/>
<path d="M1080 2969 c-7 -11 -10 -23 -7 -25 2 -2 9 7 15 21 14 30 7 33 -8 4z"/>
<path d="M5014 2974 c-18 -14 -18 -15 4 -4 12 6 22 13 22 15 0 8 -5 6 -26 -11z"/>
<path d="M1210 2967 c0 -3 23 -28 51 -54 28 -26 55 -58 60 -71 5 -13 14 -20
20 -17 5 4 9 10 7 13 -5 12 -138 135 -138 129z"/>
<path d="M3540 2903 l-65 -68 68 65 c37 35 67 66 67 67 0 8 -10 -2 -70 -64z"/>
<path d="M3746 2945 c4 -8 8 -15 10 -15 2 0 4 7 4 15 0 8 -4 15 -10 15 -5 0
-7 -7 -4 -15z"/>
<path d="M3364 2808 l-19 -23 25 20 c14 11 27 21 29 22 2 2 0 3 -6 3 -5 0 -18
-10 -29 -22z"/>
<path d="M3421 2827 c2 -1 15 -11 29 -22 l25 -20 -19 23 c-11 12 -24 22 -29
22 -6 0 -8 -1 -6 -3z"/>
<path d="M4806 2822 c-2 -4 4 -8 14 -8 10 0 16 4 14 8 -3 4 -9 8 -14 8 -5 0
-11 -4 -14 -8z"/>
<path d="M5170 2816 c0 -2 8 -10 18 -17 15 -13 16 -12 3 4 -13 16 -21 21 -21
13z"/>
<path d="M3390 2790 c0 -5 5 -10 10 -10 6 0 10 5 10 10 0 6 -4 10 -10 10 -5 0
-10 -4 -10 -10z"/>
<path d="M4810 2756 c0 -2 8 -10 18 -17 15 -13 16 -12 3 4 -13 16 -21 21 -21
13z"/>
<path d="M3400 2740 c0 -5 5 -10 10 -10 6 0 10 5 10 10 0 6 -4 10 -10 10 -5 0
-10 -4 -10 -10z"/>
<path d="M3451 2727 c-13 -21 -12 -21 5 -5 10 10 16 20 13 22 -3 3 -11 -5 -18
-17z"/>
<path d="M3792 2730 c0 -14 2 -19 5 -12 2 6 2 18 0 25 -3 6 -5 1 -5 -13z"/>
<path d="M1070 2731 c0 -6 4 -13 10 -16 6 -3 7 1 4 9 -7 18 -14 21 -14 7z"/>
<path d="M1350 2715 c0 -14 4 -25 9 -25 4 0 6 11 3 25 -2 14 -6 25 -8 25 -2 0
-4 -11 -4 -25z"/>
<path d="M3350 2736 c0 -2 8 -10 18 -17 15 -13 16 -12 3 4 -13 16 -21 21 -21
13z"/>
<path d="M5230 2736 c0 -2 8 -10 18 -17 15 -13 16 -12 3 4 -13 16 -21 21 -21
13z"/>
<path d="M3500 2726 c0 -2 7 -7 16 -10 8 -3 12 -2 9 4 -6 10 -25 14 -25 6z"/>
<path d="M1565 2683 c-10 -15 -32 -40 -49 -56 -26 -24 -27 -27 -5 -13 22 14
51 47 73 84 14 24 -2 12 -19 -15z"/>
<path d="M1485 2663 c-22 -19 -31 -31 -20 -25 19 9 74 63 64 62 -2 -1 -22 -17
-44 -37z"/>
<path d="M5260 2696 c0 -2 8 -10 18 -17 15 -13 16 -12 3 4 -13 16 -21 21 -21
13z"/>
<path d="M1165 2670 c10 -11 20 -20 23 -20 3 0 -3 9 -13 20 -10 11 -20 20 -23
20 -3 0 3 -9 13 -20z"/>
<path d="M6680 2680 c-18 -12 -2 -12 25 0 13 6 15 9 5 9 -8 0 -22 -4 -30 -9z"/>
<path d="M1130 2646 c19 -21 44 -42 55 -48 11 -6 18 -9 15 -6 -3 2 -27 24 -55
48 -48 42 -48 42 -15 6z"/>
<path d="M3769 2663 c-13 -17 -13 -17 6 -3 11 8 22 16 24 17 2 2 0 3 -6 3 -6
0 -17 -8 -24 -17z"/>
<path d="M3852 2665 c9 -11 18 -31 21 -45 l4 -25 2 26 c0 16 -8 33 -21 45 -23
19 -23 19 -6 -1z"/>
<path d="M6452 2656 c-35 -13 -66 -26 -69 -30 -9 -8 6 -56 18 -56 6 0 6 6 -1
19 -15 28 -15 28 43 49 28 11 59 23 68 27 12 4 19 -1 25 -18 9 -24 11 -25 39
-12 28 13 29 14 3 9 -20 -5 -28 -1 -33 15 -8 26 -15 26 -93 -3z"/>
<path d="M6740 2667 c12 -16 8 -23 -31 -65 l-44 -47 50 47 c48 47 49 48 30 65
-18 17 -18 17 -5 0z"/>
<path d="M36 2660 c22 -32 136 -170 140 -170 6 0 -110 146 -135 170 -13 13
-14 13 -5 0z"/>
<path d="M3796 2651 c-4 -5 -2 -12 3 -15 5 -4 12 -2 15 3 4 5 2 12 -3 15 -5 4
-12 2 -15 -3z"/>
<path d="M8189 2643 c-13 -16 -12 -17 4 -4 16 13 21 21 13 21 -2 0 -10 -8 -17
-17z"/>
<path d="M1200 2646 c0 -3 9 -10 20 -16 11 -6 20 -8 20 -6 0 3 -9 10 -20 16
-11 6 -20 8 -20 6z"/>
<path d="M3705 2630 c3 -5 11 -10 16 -10 6 0 7 5 4 10 -3 6 -11 10 -16 10 -6
0 -7 -4 -4 -10z"/>
<path d="M3841 2624 c0 -11 3 -14 6 -6 3 7 2 16 -1 19 -3 4 -6 -2 -5 -13z"/>
<path d="M8144 2608 l-19 -23 23 19 c12 11 22 21 22 23 0 8 -8 2 -26 -19z"/>
<path d="M5320 2616 c0 -2 8 -10 18 -17 15 -13 16 -12 3 4 -13 16 -21 21 -21
13z"/>
<path d="M10 2605 c0 -4 11 -21 26 -37 l25 -31 -27 -28 c-15 -16 -25 -29 -23
-29 3 0 17 13 32 28 l28 29 -31 38 c-16 21 -30 34 -30 30z"/>
<path d="M3805 2601 c-3 -5 -1 -12 5 -16 5 -3 10 1 10 9 0 18 -6 21 -15 7z"/>
<path d="M1460 2590 c-9 -6 -10 -10 -3 -10 6 0 15 5 18 10 8 12 4 12 -15 0z"/>
<path d="M8171 2576 c-25 -27 -21 -46 20 -81 19 -16 18 -14 -4 13 -33 41 -33
46 -1 71 15 12 22 21 17 21 -5 0 -20 -11 -32 -24z"/>
<path d="M3760 2586 c0 -2 8 -10 18 -17 15 -13 16 -12 3 4 -13 16 -21 21 -21
13z"/>
<path d="M3849 2573 c-13 -16 -12 -17 4 -4 16 13 21 21 13 21 -2 0 -10 -8 -17
-17z"/>
<path d="M8031 2520 c-46 -37 -91 -76 -100 -86 -9 -9 30 20 87 65 86 69 113
94 100 90 -2 0 -41 -31 -87 -69z"/>
<path d="M6300 2540 c-8 -5 -10 -10 -5 -10 6 0 17 5 25 10 8 5 11 10 5 10 -5
0 -17 -5 -25 -10z"/>
<path d="M6630 2515 c-26 -27 -39 -33 -59 -30 l-26 5 24 -10 c22 -10 29 -6 65
30 23 22 38 40 35 40 -3 0 -20 -16 -39 -35z"/>
<path d="M6232 2508 c-14 -14 -15 -45 -1 -73 7 -15 8 -10 4 18 -4 23 -1 44 6
53 14 17 8 19 -9 2z"/>
<path d="M8052 2481 c-40 -34 -38 -53 10 -97 l32 -29 -32 38 c-18 21 -32 42
-32 47 0 6 15 24 33 40 41 38 33 38 -11 1z"/>
<path d="M8118 2495 c6 -11 21 -29 34 -40 22 -19 22 -19 -2 10 -40 48 -43 51
-32 30z"/>
<path d="M90 2476 c0 -2 8 -10 18 -17 15 -13 16 -12 3 4 -13 16 -21 21 -21 13z"/>
<path d="M195 2460 c10 -11 20 -20 23 -20 3 0 -3 9 -13 20 -10 11 -20 20 -23
20 -3 0 3 -9 13 -20z"/>
<path d="M5249 2443 c-13 -16 -12 -17 4 -4 16 13 21 21 13 21 -2 0 -10 -8 -17
-17z"/>
<path d="M6464 2445 c-7 -16 12 -45 28 -45 5 0 2 7 -7 16 -9 9 -14 23 -11 30
3 8 3 14 0 14 -2 0 -7 -7 -10 -15z"/>
<path d="M6582 2444 c-7 -8 -8 -14 -3 -14 10 0 25 19 20 25 -2 1 -10 -3 -17
-11z"/>
<path d="M106 2393 c26 -35 49 -63 51 -63 6 0 -31 50 -67 90 -17 19 -10 7 16
-27z"/>
<path d="M6283 2443 c9 -2 23 -2 30 0 6 3 -1 5 -18 5 -16 0 -22 -2 -12 -5z"/>
<path d="M150 2403 c18 -24 35 -43 37 -43 7 0 -35 56 -54 71 -9 8 -2 -5 17
-28z"/>
<path d="M2250 2363 l-75 -78 80 75 c44 41 81 76 84 78 2 1 0 2 -5 2 -5 0 -43
-35 -84 -77z"/>
<path d="M2351 2437 c2 -1 13 -9 24 -17 19 -14 19 -14 6 3 -7 9 -18 17 -24 17
-6 0 -8 -1 -6 -3z"/>
<path d="M220 2426 c0 -2 8 -10 18 -17 15 -13 16 -12 3 4 -13 16 -21 21 -21
13z"/>
<path d="M45 2400 c10 -11 20 -20 23 -20 3 0 -3 9 -13 20 -10 11 -20 20 -23
20 -3 0 3 -9 13 -20z"/>
<path d="M6841 2402 c-1 -14 -13 -30 -33 -42 -18 -11 -28 -20 -21 -20 24 0 65
45 60 65 -4 18 -5 17 -6 -3z"/>
<path d="M7865 2385 c-22 -18 -37 -35 -35 -38 3 -2 23 14 45 35 50 47 44 49
-10 3z"/>
<path d="M8130 2389 l-35 -30 38 26 c33 24 43 35 34 35 -1 0 -18 -14 -37 -31z"/>
<path d="M2400 2407 c0 -2 63 -64 140 -137 77 -73 140 -130 140 -127 0 2 -63
64 -140 137 -77 73 -140 130 -140 127z"/>
<path d="M7949 2393 c-13 -16 -12 -17 4 -4 16 13 21 11 47 -20 35 -41 36 -46
8 -78 l-23 -26 28 24 c15 14 27 28 27 33 0 12 -61 88 -70 88 -4 0 -14 -8 -21
-17z"/>
<path d="M5099 2378 c15 -20 38 -23 61 -8 11 8 8 9 -13 4 -17 -4 -34 -1 -45 7
-15 13 -16 12 -3 -3z"/>
<path d="M7904 2358 l-19 -23 23 19 c12 11 22 21 22 23 0 8 -8 2 -26 -19z"/>
<path d="M91 2344 c13 -17 26 -30 28 -27 3 2 -8 16 -24 31 l-28 27 24 -31z"/>
<path d="M236 2353 c-6 -14 -5 -15 5 -6 7 7 10 15 7 18 -3 3 -9 -2 -12 -12z"/>
<path d="M194 2318 l-19 -23 23 19 c21 18 27 26 19 26 -2 0 -12 -10 -23 -22z"/>
<path d="M8185 2320 c10 -11 20 -20 23 -20 3 0 -3 9 -13 20 -10 11 -20 20 -23
20 -3 0 3 -9 13 -20z"/>
<path d="M7908 2304 c32 -48 50 -60 65 -44 10 10 9 11 -2 5 -10 -6 -25 3 -49
31 -26 29 -29 31 -14 8z"/>
<path d="M24 2287 c16 -20 30 -37 33 -37 7 0 -36 58 -49 66 -7 4 1 -9 16 -29z"/>
<path d="M6680 2310 c-8 -5 -10 -10 -5 -10 6 0 17 5 25 10 8 5 11 10 5 10 -5
0 -17 -5 -25 -10z"/>
<path d="M7830 2316 c0 -10 194 -249 216 -266 10 -8 5 1 -12 20 -17 19 -70 84
-118 144 -47 59 -86 105 -86 102z"/>
<path d="M8165 2278 c22 -27 41 -48 43 -48 7 0 -36 56 -59 75 -12 11 -5 -1 16
-27z"/>
<path d="M106 2250 c-32 -27 -66 -56 -75 -66 -9 -9 19 11 62 45 65 53 87 73
75 70 -2 0 -30 -22 -62 -49z"/>
<path d="M2149 2253 l-24 -28 28 24 c25 23 32 31 24 31 -2 0 -14 -12 -28 -27z"/>
<path d="M8106 2215 c46 -61 60 -76 46 -50 -6 11 -28 38 -48 60 l-36 40 38
-50z"/>
<path d="M8050 2215 c13 -14 26 -25 28 -25 3 0 -5 11 -18 25 -13 14 -26 25
-28 25 -3 0 5 -11 18 -25z"/>
<path d="M6310 2216 c0 -2 8 -10 18 -17 15 -13 16 -12 3 4 -13 16 -21 21 -21
13z"/>
<path d="M6410 2210 c-8 -5 -10 -10 -5 -10 6 0 17 5 25 10 8 5 11 10 5 10 -5
0 -17 -5 -25 -10z"/>
<path d="M8008 2205 c6 -11 30 -40 52 -65 l42 -45 -43 55 c-53 68 -64 81 -51
55z"/>
<path d="M2375 2180 c-3 -6 1 -7 10 -4 10 4 27 -3 43 -17 l27 -24 -24 28 c-25
28 -45 34 -56 17z"/>
<path d="M8101 2154 c13 -17 26 -30 28 -27 3 2 -8 16 -24 31 l-28 27 24 -31z"/>
<path d="M2399 2118 c24 -26 52 -46 62 -45 25 2 32 38 12 57 -15 14 -16 13 -3
-3 11 -15 11 -20 -3 -35 -16 -15 -20 -13 -64 28 l-48 45 44 -47z"/>
<path d="M2205 2110 c30 -31 36 -43 27 -52 -22 -22 -12 -44 42 -91 60 -52 67
-54 86 -32 12 14 19 11 59 -27 25 -24 15 -10 -24 30 -38 39 -71 72 -74 72 -2
0 6 -11 19 -25 22 -23 22 -27 8 -41 -14 -14 -20 -11 -69 34 -47 44 -52 51 -40
66 13 15 17 15 45 -11 17 -15 0 5 -39 45 -38 39 -72 72 -74 72 -3 0 13 -18 34
-40z"/>
<path d="M2691 2127 c2 -1 13 -9 24 -17 19 -14 19 -14 6 3 -7 9 -18 17 -24 17
-6 0 -8 -1 -6 -3z"/>
<path d="M8142 2084 c-30 -24 -50 -44 -45 -44 4 0 31 20 58 45 65 57 56 57
-13 -1z"/>
<path d="M2660 1973 l-65 -68 68 65 c62 60 72 70 64 70 -1 0 -32 -30 -67 -67z"/>
<path d="M2561 1870 c-18 -17 -29 -30 -24 -30 5 0 22 14 38 30 37 38 30 38
-14 0z"/>
<path d="M2482 1854 c10 -10 20 -16 22 -13 3 3 -5 11 -17 18 -21 13 -21 12 -5
-5z"/>
<path d="M1137 1533 c-12 -11 -8 -23 8 -23 8 0 15 7 15 15 0 16 -12 20 -23 8z"/>
<path d="M6974 1468 l-19 -23 23 19 c21 18 27 26 19 26 -2 0 -12 -10 -23 -22z"/>
<path d="M3451 1458 c17 -33 23 -37 14 -9 -5 16 -4 21 4 17 6 -4 11 -13 11
-21 0 -8 5 -17 11 -20 17 -11 59 -13 59 -2 0 5 -9 7 -20 4 -14 -4 -24 2 -32
16 -13 25 -27 37 -46 37 -10 0 -10 -5 -1 -22z"/>
<path d="M1131 1454 c0 -11 3 -14 6 -6 3 7 2 16 -1 19 -3 4 -6 -2 -5 -13z"/>
<path d="M3351 1461 c-8 -5 -9 -11 -3 -15 5 -3 12 1 16 9 6 17 6 18 -13 6z"/>
<path d="M3430 1440 c0 -5 5 -10 11 -10 5 0 7 5 4 10 -3 6 -8 10 -11 10 -2 0
-4 -4 -4 -10z"/>
<path d="M1545 1358 l-80 -83 83 80 c76 74 87 85 79 85 -1 0 -38 -37 -82 -82z"/>
<path d="M3667 1429 c6 -6 9 -18 6 -25 -3 -8 1 -14 11 -14 13 0 14 4 4 25 -6
14 -16 25 -22 25 -6 0 -6 -4 1 -11z"/>
<path d="M3222 1401 c-48 -36 -56 -47 -40 -57 7 -4 10 -3 5 1 -7 9 21 47 32
42 3 -2 17 7 30 20 33 31 22 29 -27 -6z"/>
<path d="M6894 1398 l-29 -33 33 29 c17 17 32 31 32 33 0 8 -8 1 -36 -29z"/>
<path d="M7080 1427 c0 -2 15 -16 33 -33 l32 -29 -29 33 c-28 30 -36 37 -36
29z"/>
<path d="M1122 1400 c0 -14 2 -19 5 -12 2 6 2 18 0 25 -3 6 -5 1 -5 -13z"/>
<path d="M3310 1410 c0 -5 5 -10 11 -10 5 0 7 5 4 10 -3 6 -8 10 -11 10 -2 0
-4 -4 -4 -10z"/>
<path d="M3650 1410 c0 -5 -6 -7 -14 -4 -8 3 -17 0 -22 -7 -5 -8 -2 -11 8 -6
9 3 20 1 25 -4 5 -5 9 -1 10 11 1 11 0 20 -3 20 -2 0 -4 -4 -4 -10z"/>
<path d="M3587 1403 c-4 -3 -7 -11 -7 -17 0 -6 5 -5 12 2 6 6 9 14 7 17 -3 3
-9 2 -12 -2z"/>
<path d="M3263 1394 c4 -4 1 -14 -6 -22 -10 -13 -9 -14 11 -3 27 14 27 17 5
25 -10 4 -14 4 -10 0z"/>
<path d="M3345 1383 c-23 -6 -65 -42 -65 -56 0 -5 15 -6 35 -3 21 4 35 3 35
-3 0 -5 -10 -12 -22 -14 -18 -3 -16 -5 7 -5 33 -1 80 31 70 48 -3 5 -17 7 -30
4 -12 -3 -26 -1 -29 5 -5 7 3 11 18 11 14 0 26 5 26 10 0 10 -11 11 -45 3z
m-15 -33 c0 -5 -7 -10 -16 -10 -8 0 -12 5 -9 10 3 6 10 10 16 10 5 0 9 -4 9
-10z m55 -20 c-3 -5 -10 -10 -16 -10 -5 0 -9 5 -9 10 0 6 7 10 16 10 8 0 12
-4 9 -10z"/>
<path d="M3486 1362 c-11 -14 -14 -22 -8 -18 7 4 23 13 37 20 22 12 23 14 8
18 -12 3 -26 -4 -37 -20z"/>
<path d="M6904 1348 c-29 -31 -29 -31 -2 -12 15 10 29 25 32 32 8 18 2 15 -30
-20z"/>
<path d="M3230 1359 c0 -6 -7 -8 -16 -5 -8 3 -12 2 -9 -4 4 -6 -1 -17 -9 -25
-13 -14 -16 -13 -25 2 -6 10 -11 13 -11 6 0 -6 4 -14 10 -18 5 -3 6 -13 3 -23
-3 -9 10 1 30 23 34 37 44 55 32 55 -3 0 -5 -5 -5 -11z"/>
<path d="M3620 1360 c-9 -6 -10 -10 -3 -10 6 0 15 5 18 10 8 12 4 12 -15 0z"/>
<path d="M3655 1360 c-2 -3 5 -7 16 -7 10 -1 19 2 19 6 0 9 -29 10 -35 1z"/>
<path d="M1111 1344 c0 -11 3 -14 6 -6 3 7 2 16 -1 19 -3 4 -6 -2 -5 -13z"/>
<path d="M3580 1350 c-9 -6 -10 -10 -3 -10 6 0 15 5 18 10 8 12 4 12 -15 0z"/>
<path d="M3705 1339 c5 -14 3 -19 -3 -15 -6 3 -14 1 -18 -6 -4 -7 -4 -10 0 -6
5 4 18 3 31 -2 22 -8 22 -7 12 21 -13 33 -32 40 -22 8z"/>
<path d="M5515 1350 c3 -5 8 -10 11 -10 2 0 4 5 4 10 0 6 -5 10 -11 10 -5 0
-7 -4 -4 -10z"/>
<path d="M1303 1338 c-17 -23 -25 -44 -8 -23 14 17 17 18 25 5 5 -8 10 -10 10
-5 0 6 -4 16 -9 23 -6 11 -10 11 -18 0z"/>
<path d="M3530 1330 c-8 -5 -10 -10 -5 -10 6 0 17 5 25 10 8 5 11 10 5 10 -5
0 -17 -5 -25 -10z"/>
<path d="M6799 1313 l-24 -28 28 24 c15 14 27 26 27 28 0 8 -8 1 -31 -24z"/>
<path d="M7160 1337 c0 -2 15 -16 33 -33 l32 -29 -29 33 c-28 30 -36 37 -36
29z"/>
<path d="M3427 1316 c-10 -8 -14 -17 -9 -20 6 -3 13 1 16 10 3 8 10 12 16 9 5
-3 10 -1 10 4 0 15 -11 13 -33 -3z"/>
<path d="M3635 1316 l-30 -13 27 1 c15 0 30 7 33 14 2 6 3 12 2 12 -1 -1 -15
-7 -32 -14z"/>
<path d="M7020 1305 c13 -14 26 -25 28 -25 3 0 -5 11 -18 25 -13 14 -26 25
-28 25 -3 0 5 -11 18 -25z"/>
<path d="M1389 1271 c-12 -17 -26 -28 -31 -25 -4 3 -8 1 -8 -5 0 -5 5 -13 10
-16 6 -3 10 -2 10 3 0 5 11 21 26 37 14 15 23 29 20 32 -2 2 -14 -9 -27 -26z"/>
<path d="M3370 1285 c-16 -9 -19 -15 -10 -15 10 -1 9 -4 -5 -10 -13 -6 -15 -9
-5 -9 8 0 22 4 30 9 8 5 11 10 5 10 -5 0 -3 4 5 10 24 15 7 19 -20 5z"/>
<path d="M3428 1272 c-42 -30 -45 -37 -22 -46 8 -3 12 -2 9 4 -9 14 22 43 37
34 7 -4 10 -4 6 1 -4 4 -3 14 3 22 16 19 9 16 -33 -15z"/>
<path d="M3565 1290 c3 -5 8 -10 11 -10 2 0 4 5 4 10 0 6 -5 10 -11 10 -5 0
-7 -4 -4 -10z"/>
<path d="M6824 1278 l-19 -23 25 20 c14 11 27 21 29 22 2 2 0 3 -6 3 -5 0 -18
-10 -29 -22z"/>
<path d="M1263 1278 c-15 -20 -25 -38 -20 -38 3 0 12 11 21 25 17 26 16 35 -1
13z"/>
<path d="M3656 1275 c-2 -6 14 -9 40 -6 29 2 44 -1 44 -9 0 -6 4 -9 10 -5 5 3
7 11 4 18 -5 15 -92 16 -98 2z"/>
<path d="M1436 1264 c-11 -7 -18 -16 -15 -18 2 -2 13 2 23 10 11 7 18 16 15
18 -2 2 -13 -2 -23 -10z"/>
<path d="M3620 1265 c-11 -13 -10 -14 4 -9 9 3 16 10 16 15 0 13 -6 11 -20 -6z"/>
<path d="M1118 1235 c-16 -13 -28 -27 -28 -31 0 -4 13 4 28 19 16 15 31 24 35
20 4 -3 7 -1 7 5 0 18 -12 14 -42 -13z"/>
<path d="M3291 1251 c-9 -6 -10 -11 -2 -15 6 -4 11 -2 11 4 0 7 7 9 16 6 8 -3
12 -2 9 4 -8 12 -16 12 -34 1z"/>
<path d="M3470 1250 c-13 -8 -12 -10 3 -10 9 0 17 5 17 10 0 12 -1 12 -20 0z"/>
<path d="M3720 1239 c0 -5 8 -9 18 -9 10 0 24 -6 31 -12 10 -11 11 -10 6 3 -7
18 -55 33 -55 18z"/>
<path d="M7270 1215 c19 -19 36 -35 39 -35 3 0 -10 16 -29 35 -19 19 -36 35
-39 35 -3 0 10 -16 29 -35z"/>
<path d="M3250 1230 c-9 -6 -10 -10 -3 -10 6 0 15 5 18 10 8 12 4 12 -15 0z"/>
<path d="M3367 1234 c-2 -3 -17 -7 -33 -10 -42 -8 -65 -23 -31 -21 15 1 27 5
27 8 0 3 10 5 22 4 27 -2 35 -20 11 -22 -57 -6 -69 -9 -75 -18 -4 -5 -8 -14
-8 -20 0 -5 4 -4 9 4 5 8 16 11 26 8 9 -4 13 -11 10 -17 -3 -5 -1 -10 5 -10 7
0 9 8 5 20 -4 13 -2 20 7 21 7 0 23 2 36 5 16 3 22 -1 22 -14 1 -20 27 -58 35
-50 3 3 -1 11 -10 18 -16 14 -21 45 -5 35 6 -3 7 1 4 9 -4 10 -1 16 7 16 7 0
9 3 6 6 -4 4 -13 1 -22 -6 -11 -9 -15 -9 -15 -1 0 15 -26 42 -33 35z"/>
<path d="M3437 1229 c7 -7 15 -10 18 -7 3 3 -2 9 -12 12 -14 6 -15 5 -6 -5z"/>
<path d="M6967 1229 c7 -7 15 -10 18 -7 3 3 -2 9 -12 12 -14 6 -15 5 -6 -5z"/>
<path d="M7080 1237 c0 -2 15 -16 33 -33 l32 -29 -29 33 c-28 30 -36 37 -36
29z"/>
<path d="M1223 1218 c-15 -20 -25 -38 -20 -38 3 0 12 11 21 25 17 26 16 35 -1
13z"/>
<path d="M3493 1215 c1 -5 -6 -9 -16 -8 -10 0 -16 -2 -13 -5 4 -3 -4 -16 -16
-29 -12 -13 -16 -23 -10 -23 7 0 12 5 12 11 0 5 5 7 10 4 6 -3 10 0 10 9 0 8
14 20 30 28 35 15 38 24 11 24 -11 0 -19 -5 -18 -11z"/>
<path d="M3218 1214 c-4 -4 -3 -13 3 -20 8 -10 5 -16 -14 -25 -28 -13 -42 -35
-27 -44 6 -3 5 -15 -1 -29 -7 -15 -8 -30 -2 -41 9 -15 12 -13 28 12 16 24 16
26 2 14 -36 -29 -30 2 7 35 21 19 33 34 27 34 -19 0 -12 27 9 33 11 3 20 11
19 19 0 10 -2 10 -6 1 -7 -18 -31 -16 -35 3 -2 9 -6 12 -10 8z m6 -63 c8 -12
-21 -34 -34 -26 -8 5 -8 11 1 21 13 16 25 18 33 5z"/>
<path d="M6780 1207 c0 -2 15 -16 33 -33 l32 -29 -29 33 c-28 30 -36 37 -36
29z"/>
<path d="M6840 1204 c0 -6 17 -26 38 -45 l37 -34 -35 40 c-19 22 -36 42 -37
44 -2 2 -3 0 -3 -5z"/>
<path d="M1170 1185 c0 -5 5 -17 10 -25 5 -8 10 -10 10 -5 0 6 -5 17 -10 25
-5 8 -10 11 -10 5z"/>
<path d="M3530 1179 c0 -5 5 -7 10 -4 6 3 10 8 10 11 0 2 -4 4 -10 4 -5 0 -10
-5 -10 -11z"/>
<path d="M3497 1165 c3 -8 9 -12 14 -9 12 7 11 11 -5 17 -10 4 -13 1 -9 -8z"/>
<path d="M3585 1173 c-20 -5 -44 -31 -45 -47 0 -4 21 -6 48 -2 34 4 41 3 25
-4 -13 -5 -23 -12 -23 -16 0 -11 54 7 73 23 28 26 20 36 -23 29 -42 -6 -58 9
-17 17 18 3 18 4 2 4 -11 1 -29 -2 -40 -4z m0 -33 c-3 -5 -10 -10 -16 -10 -5
0 -9 5 -9 10 0 6 7 10 16 10 8 0 12 -4 9 -10z m75 0 c0 -5 -4 -10 -9 -10 -6 0
-13 5 -16 10 -3 6 1 10 9 10 9 0 16 -4 16 -10z"/>
<path d="M3739 1153 l-24 -28 28 24 c25 23 32 31 24 31 -2 0 -14 -12 -28 -27z"/>
<path d="M3151 1138 c-1 -16 4 -28 9 -28 12 0 12 8 0 35 -8 18 -9 17 -9 -7z"/>
<path d="M3462 1130 c-7 -11 -18 -20 -26 -20 -7 0 -21 -10 -32 -22 -18 -23
-18 -23 1 -6 18 17 20 17 40 -5 11 -12 17 -18 13 -13 -14 17 -9 39 14 63 12
13 17 23 12 23 -5 0 -15 -9 -22 -20z"/>
<path d="M6971 1134 c0 -11 3 -14 6 -6 3 7 2 16 -1 19 -3 4 -6 -2 -5 -13z"/>
<path d="M7190 1115 c19 -19 36 -35 39 -35 3 0 -10 16 -29 35 -19 19 -36 35
-39 35 -3 0 10 -16 29 -35z"/>
<path d="M7345 1130 c10 -11 20 -20 23 -20 3 0 -3 9 -13 20 -10 11 -20 20 -23
20 -3 0 3 -9 13 -20z"/>
<path d="M1072 1120 c0 -14 2 -19 5 -12 2 6 2 18 0 25 -3 6 -5 1 -5 -13z"/>
<path d="M3250 1115 c-14 -8 -20 -14 -14 -15 5 0 19 7 30 15 24 18 16 19 -16
0z"/>
<path d="M3320 1117 c-14 -7 -25 -21 -25 -31 0 -11 -9 -22 -19 -26 -13 -4 -16
-9 -8 -13 6 -4 21 3 33 15 12 13 18 17 14 9 -5 -9 -3 -12 6 -9 17 6 19 34 2
31 -7 -2 -13 2 -13 7 0 6 6 10 13 9 26 -3 47 1 47 11 0 14 -20 12 -50 -3z"/>
<path d="M6860 1117 c0 -2 15 -16 33 -33 l32 -29 -29 33 c-28 30 -36 37 -36
29z"/>
<path d="M6950 1075 c19 -19 36 -35 39 -35 3 0 -10 16 -29 35 -19 19 -36 35
-39 35 -3 0 10 -16 29 -35z"/>
<path d="M1061 1064 c0 -11 3 -14 6 -6 3 7 2 16 -1 19 -3 4 -6 -2 -5 -13z"/>
<path d="M7354 1048 l-19 -23 23 19 c12 11 22 21 22 23 0 8 -8 2 -26 -19z"/>
<path d="M3340 1050 c-9 -6 -10 -10 -3 -10 6 0 15 5 18 10 8 12 4 12 -15 0z"/>
<path d="M7240 1056 c0 -2 8 -10 18 -17 15 -13 16 -12 3 4 -13 16 -21 21 -21
13z"/>
<path d="M1050 1019 c0 -5 5 -7 10 -4 6 3 10 8 10 11 0 2 -4 4 -10 4 -5 0 -10
-5 -10 -11z"/>
<path d="M6970 995 c19 -19 36 -35 39 -35 3 0 -10 16 -29 35 -19 19 -36 35
-39 35 -3 0 10 -16 29 -35z"/>
<path d="M1088 1013 c7 -3 16 -2 19 1 4 3 -2 6 -13 5 -11 0 -14 -3 -6 -6z"/>
<path d="M5435 1010 c-3 -5 -1 -10 4 -10 6 0 11 5 11 10 0 6 -2 10 -4 10 -3 0
-8 -4 -11 -10z"/>
<path d="M7030 985 c19 -19 36 -35 39 -35 3 0 -10 16 -29 35 -19 19 -36 35
-39 35 -3 0 10 -16 29 -35z"/>
<path d="M7239 1003 c-13 -16 -12 -17 4 -4 16 13 21 21 13 21 -2 0 -10 -8 -17
-17z"/>
<path d="M1148 1003 c7 -3 16 -2 19 1 4 3 -2 6 -13 5 -11 0 -14 -3 -6 -6z"/>
<path d="M7269 973 l-34 -38 38 34 c34 33 42 41 34 41 -2 0 -19 -17 -38 -37z"/>
<path d="M1198 993 c7 -3 16 -2 19 1 4 3 -2 6 -13 5 -11 0 -14 -3 -6 -6z"/>
<path d="M1248 983 c7 -3 16 -2 19 1 4 3 -2 6 -13 5 -11 0 -14 -3 -6 -6z"/>
<path d="M1428 953 c7 -3 16 -2 19 1 4 3 -2 6 -13 5 -11 0 -14 -3 -6 -6z"/>
<path d="M7159 933 l-24 -28 28 24 c25 23 32 31 24 31 -2 0 -14 -12 -28 -27z"/>
<path d="M1478 943 c7 -3 16 -2 19 1 4 3 -2 6 -13 5 -11 0 -14 -3 -6 -6z"/>
<path d="M1541 940 c-10 -5 -8 -9 4 -14 23 -8 35 -8 35 3 0 13 -25 20 -39 11z"/>
<path d="M7050 905 c19 -19 36 -35 39 -35 3 0 -10 16 -29 35 -19 19 -36 35
-39 35 -3 0 10 -16 29 -35z"/>
<path d="M5090 910 c0 -5 5 -10 11 -10 5 0 7 5 4 10 -3 6 -8 10 -11 10 -2 0
-4 -4 -4 -10z"/>
<path d="M7174 888 l-29 -33 33 29 c17 17 32 31 32 33 0 8 -8 1 -36 -29z"/>
<path d="M244 239 c-19 -22 -19 -22 4 -8 12 8 22 17 22 21 0 12 -6 9 -26 -13z"/>
<path d="M287 245 c-16 -16 -42 -83 -35 -91 3 -2 10 14 17 36 6 22 16 40 20
40 5 0 11 7 15 15 7 19 1 19 -17 0z"/>
<path d="M322 229 c-18 -29 -11 -30 15 -2 12 13 17 23 10 23 -7 0 -18 -9 -25
-21z"/>
<path d="M369 232 c-25 -30 -31 -42 -17 -36 16 6 52 54 41 54 -5 0 -15 -8 -24
-18z"/>
<path d="M433 233 c12 -3 16 -10 12 -21 -5 -13 -2 -12 15 3 11 10 20 19 20 20
0 1 -15 2 -32 2 -18 0 -25 -2 -15 -4z"/>
<path d="M389 194 c-5 -15 -8 -29 -5 -31 2 -3 7 6 11 19 4 13 13 26 19 30 8 5
7 8 -2 8 -7 0 -17 -12 -23 -26z"/>
<path d="M2108 203 c7 -3 16 -2 19 1 4 3 -2 6 -13 5 -11 0 -14 -3 -6 -6z"/>
<path d="M2186 197 c3 -10 9 -15 12 -12 3 3 0 11 -7 18 -10 9 -11 8 -5 -6z"/>
<path d="M2058 193 c7 -3 16 -2 19 1 4 3 -2 6 -13 5 -11 0 -14 -3 -6 -6z"/>
<path d="M295 180 c3 -5 8 -10 11 -10 2 0 4 5 4 10 0 6 -5 10 -11 10 -5 0 -7
-4 -4 -10z"/>
<path d="M2008 183 c7 -3 16 -2 19 1 4 3 -2 6 -13 5 -11 0 -14 -3 -6 -6z"/>
<path d="M1898 163 c7 -3 16 -2 19 1 4 3 -2 6 -13 5 -11 0 -14 -3 -6 -6z"/>
<path d="M2120 166 c0 -2 7 -7 16 -10 8 -3 12 -2 9 4 -6 10 -25 14 -25 6z"/>
<path d="M2201 154 c0 -11 3 -14 6 -6 3 7 2 16 -1 19 -3 4 -6 -2 -5 -13z"/>
<path d="M6548 163 c7 -3 16 -2 19 1 4 3 -2 6 -13 5 -11 0 -14 -3 -6 -6z"/>
<path d="M6628 163 c7 -3 16 -2 19 1 4 3 -2 6 -13 5 -11 0 -14 -3 -6 -6z"/>
<path d="M1848 153 c7 -3 16 -2 19 1 4 3 -2 6 -13 5 -11 0 -14 -3 -6 -6z"/>
<path d="M2078 153 c7 -3 16 -2 19 1 4 3 -2 6 -13 5 -11 0 -14 -3 -6 -6z"/>
<path d="M6490 150 c-8 -5 -10 -10 -5 -10 6 0 17 5 25 10 8 5 11 10 5 10 -5 0
-17 -5 -25 -10z"/>
<path d="M6680 150 c8 -5 20 -10 25 -10 6 0 3 5 -5 10 -8 5 -19 10 -25 10 -5
0 -3 -5 5 -10z"/>
<path d="M371 134 c0 -11 3 -14 6 -6 3 7 2 16 -1 19 -3 4 -6 -2 -5 -13z"/>
<path d="M1798 143 c7 -3 16 -2 19 1 4 3 -2 6 -13 5 -11 0 -14 -3 -6 -6z"/>
<path d="M4075 140 c-3 -5 -1 -10 4 -10 6 0 11 5 11 10 0 6 -2 10 -4 10 -3 0
-8 -4 -11 -10z"/>
<path d="M477 123 c-4 -3 -7 -17 -7 -30 0 -12 -5 -23 -11 -23 -6 0 -9 9 -6 20
3 11 2 20 -3 20 -4 0 -10 -15 -13 -34 -10 -65 17 -108 30 -46 6 35 23 50 24
23 0 -11 4 -8 9 9 13 43 -2 82 -23 61z m10 -35 c-3 -8 -6 -5 -6 6 -1 11 2 17
5 13 3 -3 4 -12 1 -19z m-27 -48 c0 -5 -4 -10 -10 -10 -5 0 -10 5 -10 10 0 6
5 10 10 10 6 0 10 -4 10 -10z"/>
<path d="M2080 115 c-19 -22 -8 -25 13 -3 9 10 13 18 8 18 -5 0 -14 -7 -21
-15z"/>
<path d="M2151 114 c0 -11 3 -14 6 -6 3 7 2 16 -1 19 -3 4 -6 -2 -5 -13z"/>
<path d="M130 100 c-11 -11 -20 -26 -20 -32 0 -7 6 -4 12 7 6 11 19 25 27 32
9 7 13 13 9 13 -5 0 -17 -9 -28 -20z"/>
<path d="M169 98 c-12 -23 -12 -23 9 -4 18 15 24 16 37 6 8 -7 15 -19 15 -26
0 -8 4 -14 10 -14 13 0 0 32 -19 47 -24 18 -39 16 -52 -9z"/>
<path d="M282 100 c0 -14 2 -19 5 -12 2 6 2 18 0 25 -3 6 -5 1 -5 -13z"/>
<path d="M1652 108 c-7 -7 -11 -21 -11 -32 1 -21 1 -21 6 -1 3 11 10 26 15 33
13 15 6 16 -10 0z"/>
<path d="M2211 104 c0 -11 3 -14 6 -6 3 7 2 16 -1 19 -3 4 -6 -2 -5 -13z"/>
<path d="M4464 104 c-10 -8 -13 -12 -6 -9 8 4 26 11 40 15 22 7 23 8 6 9 -11
1 -29 -6 -40 -15z"/>
<path d="M320 95 c0 -8 2 -15 4 -15 2 0 6 7 10 15 3 8 1 15 -4 15 -6 0 -10 -7
-10 -15z"/>
<path d="M4040 100 c0 -5 5 -10 10 -10 6 0 10 5 10 10 0 6 -4 10 -10 10 -5 0
-10 -4 -10 -10z"/>
<path d="M4188 103 c12 -2 30 -2 40 0 9 3 -1 5 -23 4 -22 0 -30 -2 -17 -4z"/>
<path d="M4530 106 c0 -2 8 -10 18 -17 15 -13 16 -12 3 4 -13 16 -21 21 -21
13z"/>
<path d="M6381 75 c-17 -20 -31 -39 -31 -42 0 -4 3 -3 8 2 4 6 20 25 36 43 17
17 27 32 24 32 -3 0 -20 -16 -37 -35z"/>
<path d="M6475 91 c-16 -10 -43 -34 -60 -52 l-30 -34 40 36 c22 20 54 44 70
52 17 9 26 16 20 17 -5 0 -23 -8 -40 -19z"/>
<path d="M6701 90 c20 -10 50 -35 67 -55 18 -20 32 -32 32 -27 0 20 -103 103
-127 102 -4 -1 8 -9 28 -20z"/>
<path d="M6790 85 c13 -14 26 -25 28 -25 3 0 -5 11 -18 25 -13 14 -26 25 -28
25 -3 0 5 -11 18 -25z"/>
<path d="M1768 93 c7 -3 16 -2 19 1 4 3 -2 6 -13 5 -11 0 -14 -3 -6 -6z"/>
<path d="M1807 79 c4 -13 8 -18 11 -10 2 7 -1 18 -6 23 -8 8 -9 4 -5 -13z"/>
<path d="M1914 78 l-19 -23 23 19 c12 11 22 21 22 23 0 8 -8 2 -26 -19z"/>
<path d="M2041 84 c0 -11 3 -14 6 -6 3 7 2 16 -1 19 -3 4 -6 -2 -5 -13z"/>
<path d="M4086 85 c-11 -8 -15 -15 -9 -15 6 0 16 7 23 15 16 19 11 19 -14 0z"/>
<path d="M4120 80 c-6 -11 -8 -20 -6 -20 3 0 10 9 16 20 6 11 8 20 6 20 -3 0
-10 -9 -16 -20z"/>
<path d="M4323 93 c9 -2 23 -2 30 0 6 3 -1 5 -18 5 -16 0 -22 -2 -12 -5z"/>
<path d="M4405 90 c3 -5 8 -10 11 -10 2 0 4 5 4 10 0 6 -5 10 -11 10 -5 0 -7
-4 -4 -10z"/>
<path d="M1703 75 c-3 -9 -3 -19 1 -22 3 -4 6 1 6 10 0 8 6 18 13 20 9 4 9 6
-1 6 -7 1 -15 -6 -19 -14z"/>
<path d="M1872 70 c0 -14 2 -19 5 -12 2 6 2 18 0 25 -3 6 -5 1 -5 -13z"/>
<path d="M4500 80 c0 -5 5 -10 10 -10 6 0 10 5 10 10 0 6 -4 10 -10 10 -5 0
-10 -4 -10 -10z"/>
<path d="M2161 64 c0 -11 3 -14 6 -6 3 7 2 16 -1 19 -3 4 -6 -2 -5 -13z"/>
<path d="M6557 40 c3 -11 7 -20 9 -20 2 0 4 9 4 20 0 11 -4 20 -9 20 -5 0 -7
-9 -4 -20z"/>
<path d="M135 40 c-3 -5 -1 -10 4 -10 6 0 11 5 11 10 0 6 -2 10 -4 10 -3 0 -8
-4 -11 -10z"/>
<path d="M1821 34 c0 -11 3 -14 6 -6 3 7 2 16 -1 19 -3 4 -6 -2 -5 -13z"/>
<path d="M2050 40 c0 -5 5 -10 11 -10 5 0 7 5 4 10 -3 6 -8 10 -11 10 -2 0 -4
-4 -4 -10z"/>
<path d="M2128 43 c7 -3 16 -2 19 1 4 3 -2 6 -13 5 -11 0 -14 -3 -6 -6z"/>
<path d="M4470 40 c0 -5 5 -10 10 -10 6 0 10 5 10 10 0 6 -4 10 -10 10 -5 0
-10 -4 -10 -10z"/>
<path d="M274 29 c-3 -6 -2 -15 3 -20 5 -5 9 -1 9 11 0 23 -2 24 -12 9z"/>
<path d="M361 24 c0 -11 3 -14 6 -6 3 7 2 16 -1 19 -3 4 -6 -2 -5 -13z"/>
<path d="M1880 26 c0 -8 4 -17 9 -20 5 -4 7 3 4 14 -6 23 -13 26 -13 6z"/>
<path d="M4516 25 c-11 -8 -15 -15 -9 -15 6 0 16 7 23 15 16 19 11 19 -14 0z"/>
<path d="M1975 20 c-16 -7 -17 -9 -3 -9 9 -1 20 4 23 9 7 11 7 11 -20 0z"/>
<path d="M4440 26 c0 -2 8 -10 18 -17 15 -13 16 -12 3 4 -13 16 -21 21 -21 13z"/>
<path d="M1918 3 c7 -3 16 -2 19 1 4 3 -2 6 -13 5 -11 0 -14 -3 -6 -6z"/>
</g>
</svg>
