<?xml version="1.0" standalone="no"?>
<!DOCTYPE svg PUBLIC "-//W3C//DTD SVG 20010904//EN"
 "http://www.w3.org/TR/2001/REC-SVG-20010904/DTD/svg10.dtd">
<svg version="1.0" xmlns="http://www.w3.org/2000/svg"
 width="726.000000pt" height="726.000000pt" viewBox="0 0 726.000000 726.000000"
 preserveAspectRatio="xMidYMid meet">

<g transform="translate(0.000000,726.000000) scale(0.100000,-0.100000)"
fill="#000000" stroke="none">
<path d="M0 3630 c0 -2413 3 -3630 10 -3630 6 0 10 11 10 24 0 18 7 25 31 30
17 3 28 10 24 16 -3 6 -17 7 -31 4 l-24 -6 0 157 c0 139 2 159 17 171 12 8 22
9 30 3 7 -7 13 -6 17 0 4 5 2 12 -3 15 -5 3 -7 16 -3 28 3 14 2 19 -7 14 -6
-4 -20 -4 -31 -1 -19 6 -20 15 -20 213 l0 206 58 -57 c32 -31 66 -57 77 -57
12 0 112 92 257 237 261 261 264 265 208 318 -21 20 -30 24 -30 13 0 -8 9 -23
20 -33 11 -10 20 -25 20 -34 0 -17 -458 -481 -475 -481 -6 0 -39 28 -73 63
l-62 63 0 113 c0 92 3 118 17 133 15 17 15 19 0 36 -14 15 -17 40 -17 123 l0
104 113 113 c62 61 117 112 122 112 5 0 24 -14 42 -32 18 -17 36 -28 40 -25
11 11 -59 77 -81 77 -13 0 -62 -41 -128 -107 l-108 -108 0 183 c0 152 2 182
14 182 8 0 27 10 42 23 l27 23 -42 33 -41 33 0 118 c0 140 6 147 87 105 61
-32 152 -36 204 -10 43 22 96 72 115 108 36 68 35 197 -2 228 -18 15 -19 0 0
-44 21 -51 14 -115 -18 -174 -38 -69 -91 -105 -161 -111 -86 -7 -122 4 -176
55 l-49 46 0 115 0 115 43 42 c85 86 217 87 304 3 18 -18 36 -29 39 -25 10 9
-23 45 -71 76 -35 22 -51 26 -120 26 -84 0 -107 -9 -167 -64 l-28 -25 0 278 0
277 22 -15 c32 -22 51 -20 79 10 20 21 24 36 24 89 l0 65 87 87 c60 61 88 98
93 121 8 40 -12 44 -21 5 -4 -16 -44 -67 -95 -118 l-88 -90 2 -56 c3 -95 -35
-136 -81 -86 -21 22 -22 32 -22 208 1 139 3 179 12 164 40 -74 138 -53 138 30
0 72 -77 100 -124 44 l-26 -31 0 34 c1 33 17 56 88 122 l32 29 81 -82 82 -82
-133 -134 c-74 -74 -131 -138 -126 -142 4 -4 69 55 146 132 153 155 160 168
160 286 l0 67 -35 6 c-19 4 -65 1 -102 -5 -63 -11 -72 -16 -130 -72 l-63 -60
0 41 c0 36 3 42 25 48 14 3 25 11 25 16 0 6 -11 7 -25 4 l-25 -6 0 164 c0 152
1 165 19 171 10 3 26 2 36 -1 15 -6 16 -4 7 13 -8 15 -8 23 1 32 9 10 8 12 -8
11 -58 -6 -55 -19 -55 212 l0 212 58 -57 c32 -32 67 -57 78 -57 23 0 211 186
200 197 -4 4 -48 -34 -99 -85 -51 -51 -97 -92 -103 -92 -6 0 -38 27 -72 59
l-62 59 0 118 c0 95 3 121 17 136 15 17 15 19 0 36 -14 15 -17 40 -17 124 l0
105 115 112 c122 119 129 122 165 72 13 -19 40 -29 40 -15 0 12 -74 74 -87 74
-8 0 -47 -33 -87 -72 -41 -40 -90 -89 -110 -107 l-36 -35 0 177 0 177 40 20
c45 23 44 35 -5 69 l-35 24 0 117 c0 145 5 152 81 113 146 -76 316 3 349 162
22 104 -30 213 -122 259 -92 46 -215 30 -283 -38 l-25 -25 0 281 0 281 24 -22
c51 -48 101 3 102 103 l0 63 82 80 c81 81 108 123 97 152 -5 13 -7 14 -15 1
-6 -8 -10 -24 -10 -34 0 -11 -40 -59 -91 -110 l-91 -90 7 -42 c6 -44 -11 -104
-35 -119 -7 -4 -24 5 -41 21 l-29 28 1 185 c0 115 4 178 9 165 10 -26 48 -54
71 -54 9 0 28 9 43 21 50 39 25 129 -35 129 -39 0 -68 -16 -79 -43 -7 -18 -9
-15 -9 19 -1 32 5 46 27 67 24 23 37 27 88 27 59 0 60 -1 112 -53 l52 -52
-135 -135 c-73 -73 -131 -138 -128 -143 3 -5 70 55 149 134 134 134 144 147
155 196 l12 53 1131 0 1130 0 53 -52 c29 -28 56 -49 59 -45 4 4 -1 16 -11 27
-18 20 -18 21 8 45 l26 25 403 0 402 0 -48 -49 c-46 -47 -49 -48 -106 -47
-104 2 -151 -60 -91 -118 39 -37 54 -26 18 12 -32 34 -33 43 -6 68 16 15 34
18 83 17 l63 -2 59 60 c54 55 62 59 103 59 l46 0 -100 -100 c-54 -54 -96 -102
-93 -106 4 -3 55 42 113 100 l107 106 62 0 c61 0 64 -1 102 -42 22 -24 44 -49
48 -57 6 -9 -30 -52 -125 -147 -73 -73 -130 -137 -126 -141 5 -4 71 56 147
132 133 134 148 154 164 228 l6 27 1129 0 1130 0 50 -52 c48 -51 76 -62 50
-19 -12 17 -10 24 11 46 l23 25 406 0 405 0 -49 -50 c-48 -49 -50 -50 -96 -44
-56 7 -115 -16 -132 -53 -9 -21 -6 -28 26 -61 20 -20 40 -33 43 -29 4 4 -7 23
-25 41 -20 20 -30 39 -26 46 15 24 72 39 121 34 l49 -6 60 61 c38 39 67 61 82
61 13 0 23 5 23 10 0 7 -1217 10 -3630 10 l-3630 0 0 -3630z m40 3606 c0 -3
-4 -8 -10 -11 -5 -3 -10 -1 -10 4 0 6 5 11 10 11 6 0 10 -2 10 -4z m286 -28
c-10 -50 -19 -51 -61 -8 l-39 40 53 0 54 0 -7 -32z m2371 15 c-16 -16 -18 -16
-34 0 -16 16 -15 17 17 17 32 0 33 -1 17 -17z m1253 -19 c-5 -19 -11 -38 -14
-41 -7 -8 -32 13 -57 49 l-20 28 49 0 50 0 -8 -36z m2390 33 c0 -2 -8 -11 -18
-21 -18 -15 -20 -15 -37 4 -18 20 -18 20 18 20 21 0 37 -2 37 -3z m-6194 -112
c15 -23 15 -27 0 -50 -18 -27 -63 -34 -84 -13 -15 15 -15 61 0 76 21 21 66 14
84 -13z m173 -949 c83 -40 136 -154 112 -242 -47 -176 -270 -230 -385 -94 -25
30 -26 37 -26 141 0 124 8 145 72 185 73 46 146 49 227 10z m-271 -678 c17
-17 15 -26 -8 -38 -18 -10 -20 -8 -20 20 0 32 8 38 28 18z m-21 -1450 c-3 -8
-6 -5 -6 6 -1 11 2 17 5 13 3 -3 4 -12 1 -19z m301 -383 c4 -48 -6 -125 -17
-125 -12 0 -154 141 -148 147 12 11 73 21 117 20 45 -2 45 -2 48 -42z m-188
-155 c24 -24 25 -38 4 -68 -28 -41 -94 -22 -94 28 0 55 52 78 90 40z m-113
-1322 c-3 -8 -6 -5 -6 6 -1 11 2 17 5 13 3 -3 4 -12 1 -19z m38 -328 c5 -8
-24 -30 -39 -30 -3 0 -6 14 -6 30 0 27 2 30 19 20 11 -5 23 -14 26 -20z m-38
-1442 c-3 -8 -6 -5 -6 6 -1 11 2 17 5 13 3 -3 4 -12 1 -19z"/>
<path d="M301 6076 c-10 -12 -18 -13 -33 -5 -27 15 -65 3 -73 -22 -5 -14 1
-39 15 -70 13 -26 20 -55 17 -63 -9 -23 -40 -19 -66 8 -18 19 -21 31 -16 55 4
19 3 31 -4 31 -15 0 -25 -45 -17 -76 4 -14 2 -31 -3 -38 -13 -16 98 -19 116
-4 19 15 16 53 -8 100 -19 36 -19 42 -5 56 13 14 18 13 41 -2 22 -15 26 -24
23 -52 -3 -22 0 -34 8 -34 16 0 24 37 14 65 -5 14 -5 26 2 33 6 6 8 16 6 22
-3 9 -8 7 -17 -4z"/>
<path d="M7176 7121 c-43 -43 -74 -81 -69 -84 12 -8 157 137 152 152 -2 6 -39
-24 -83 -68z"/>
<path d="M3670 7143 c-40 -52 -9 -117 56 -117 44 0 74 31 74 75 0 67 -88 95
-130 42z m94 -9 c36 -36 8 -87 -44 -82 -27 2 -37 9 -44 30 -18 51 49 91 88 52z"/>
<path d="M900 7103 c-20 -8 -30 -24 -30 -50 0 -12 -10 -31 -22 -43 -12 -11
-19 -22 -16 -26 11 -11 49 21 54 46 14 63 11 61 77 58 61 -3 61 -3 68 -38 14
-65 73 -89 124 -49 l27 22 45 -46 46 -45 -22 -27 c-40 -51 -16 -110 49 -124
35 -7 35 -7 38 -65 3 -63 -4 -76 -45 -76 -29 0 -63 -37 -63 -68 0 -13 9 -35
20 -49 23 -30 17 -46 -36 -92 l-36 -32 -22 20 c-47 44 -126 12 -126 -50 0 -30
-15 -39 -66 -39 -51 0 -74 16 -74 50 0 54 -64 77 -121 43 l-29 -17 -45 44 -45
44 21 22 c22 24 24 94 2 101 -8 3 -10 -8 -6 -34 4 -28 1 -43 -11 -52 -28 -24
-18 -55 34 -106 l50 -49 29 22 c52 38 101 25 101 -28 0 -41 17 -50 97 -50 71
0 73 1 79 28 16 77 47 92 104 50 l29 -21 48 43 c66 60 70 72 43 110 -33 46
-19 82 34 91 48 8 56 20 56 95 0 66 -11 84 -50 84 -29 0 -60 27 -60 52 0 8 9
27 20 41 11 14 20 31 20 39 0 17 -91 108 -109 108 -7 0 -24 -9 -38 -20 -14
-11 -33 -20 -43 -20 -24 0 -50 32 -50 63 0 16 -8 30 -19 37 -21 11 -105 12
-131 3z"/>
<path d="M1508 7099 c-26 -15 -23 -65 3 -80 48 -25 96 34 58 72 -21 21 -36 23
-61 8z m50 -33 c4 -21 -14 -37 -35 -29 -14 5 -18 35 -6 47 12 12 38 1 41 -18z"/>
<path d="M4518 7099 c-10 -5 -18 -20 -18 -32 0 -58 -59 -87 -95 -47 -27 30
-46 25 -98 -28 -46 -47 -58 -74 -36 -87 5 -4 15 -18 20 -32 13 -36 -12 -73
-49 -73 -42 0 -52 -17 -52 -92 0 -72 11 -88 59 -88 11 0 28 -11 37 -26 16 -24
16 -26 -5 -54 -11 -16 -21 -38 -21 -49 0 -21 97 -114 113 -108 19 6 19 27 0
27 -10 0 -37 18 -58 40 -34 35 -38 43 -27 58 31 43 34 59 21 87 -15 31 -30 41
-71 50 -27 5 -28 8 -28 66 0 39 4 61 13 63 58 16 73 25 86 51 13 27 12 33 -8
69 l-22 40 45 45 44 44 27 -22 c51 -40 106 -18 123 49 8 35 9 35 69 38 l60 3
7 -40 c10 -67 76 -93 123 -49 l23 22 35 -34 c45 -44 59 -30 15 15 -39 41 -48
42 -83 15 -45 -36 -87 -21 -87 31 0 17 -8 34 -22 43 -25 18 -113 21 -140 5z"/>
<path d="M5127 7092 c-22 -24 -21 -45 1 -65 24 -22 45 -21 65 1 21 23 22 46 1
66 -21 21 -47 20 -67 -2z m61 -28 c4 -26 -26 -40 -45 -21 -8 7 -11 21 -7 31 9
24 48 17 52 -10z"/>
<path d="M3930 7047 c0 -15 -29 -52 -90 -112 l-90 -90 0 -65 c0 -53 -4 -71
-20 -88 -26 -28 -28 -28 -62 5 -39 37 -49 20 -11 -19 58 -58 113 -10 113 98
l0 59 85 85 c59 60 86 95 91 118 4 21 3 32 -5 32 -6 0 -11 -10 -11 -23z"/>
<path d="M1979 7003 c-36 -34 -59 -64 -59 -77 0 -12 16 -36 35 -55 46 -43 48
-89 6 -132 -44 -44 -80 -38 -139 21 -17 16 -36 30 -42 30 -6 0 -38 -25 -71
-57 -76 -72 -78 -98 -14 -160 50 -47 55 -67 24 -83 -28 -15 -52 -75 -44 -111
4 -15 22 -42 41 -59 49 -42 92 -41 143 5 21 19 42 35 46 35 4 0 26 -21 49 -47
60 -66 89 -64 161 7 64 63 69 89 25 121 -57 42 -59 105 -4 148 43 34 76 27
132 -28 36 -36 60 -33 102 16 43 49 37 64 -8 20 -21 -20 -44 -37 -52 -37 -8 0
-29 15 -48 33 -27 26 -41 32 -77 32 -49 0 -80 -22 -102 -72 -11 -28 -11 -38 1
-65 7 -18 25 -44 40 -57 14 -14 26 -29 26 -36 0 -6 -22 -32 -48 -58 -63 -62
-87 -62 -140 -2 -22 25 -47 45 -57 45 -10 0 -35 -16 -56 -35 -57 -51 -114 -43
-144 21 -19 40 -8 73 35 114 17 15 30 33 30 38 0 6 -22 33 -50 60 -27 27 -50
58 -50 69 0 23 89 113 113 113 9 0 24 -11 33 -24 35 -55 130 -54 174 1 32 42
27 95 -15 142 -19 21 -35 43 -35 48 0 6 24 33 54 61 64 60 80 60 134 -4 20
-25 45 -44 56 -44 11 0 34 16 52 35 39 43 79 46 123 9 44 -37 43 -83 -4 -135
-19 -22 -35 -44 -35 -50 0 -13 58 -69 71 -69 17 0 9 20 -16 36 -32 21 -32 44
-1 73 52 49 50 119 -5 165 -48 40 -121 31 -154 -21 -21 -31 -37 -29 -64 8 -24
32 -77 69 -99 69 -8 0 -40 -25 -73 -57z"/>
<path d="M5655 7051 c-28 -12 -115 -107 -115 -126 0 -9 15 -30 34 -48 42 -40
49 -61 35 -104 -11 -35 -51 -63 -89 -63 -12 0 -40 18 -62 40 -48 49 -64 47
-124 -13 -77 -79 -77 -110 -2 -179 l41 -37 -38 -42 c-34 -38 -37 -45 -32 -87
11 -99 119 -135 188 -61 15 16 32 29 38 29 5 0 22 -16 37 -36 32 -41 77 -67
103 -59 10 3 44 32 75 65 63 66 64 75 8 127 -31 29 -34 37 -29 70 8 47 47 83
88 83 22 0 41 -11 70 -40 22 -22 44 -40 50 -40 6 0 37 25 70 57 40 38 59 64
59 80 0 36 -26 80 -60 100 -35 20 -39 48 -10 63 23 13 50 60 50 90 0 34 -28
78 -60 95 -49 25 -85 19 -131 -22 l-41 -37 -31 34 c-33 38 -76 70 -92 69 -5 0
-19 -4 -30 -8z m59 -30 c17 -11 41 -34 54 -50 29 -40 46 -39 93 4 57 52 113
45 145 -16 20 -40 11 -80 -27 -113 -16 -14 -29 -34 -29 -44 0 -9 21 -36 45
-60 26 -26 45 -53 45 -65 0 -27 -85 -117 -110 -117 -10 0 -20 7 -24 15 -8 21
-67 55 -96 55 -97 0 -144 -131 -70 -194 17 -13 30 -31 30 -39 0 -8 -25 -37
-55 -66 -54 -51 -55 -51 -83 -37 -16 8 -41 31 -56 50 -34 45 -58 45 -100 1
-43 -46 -85 -47 -127 -6 -41 41 -39 80 6 130 19 21 35 44 35 51 0 7 -22 35
-50 61 -27 26 -50 55 -50 64 0 23 89 115 112 115 11 0 29 -11 40 -25 10 -13
36 -30 57 -36 114 -34 190 115 96 187 -19 15 -35 32 -35 39 0 12 103 115 116
115 4 0 21 -9 38 -19z"/>
<path d="M684 6994 c-48 -51 -54 -74 -25 -110 14 -18 20 -21 24 -10 3 8 -1 20
-9 26 -22 19 -17 36 25 81 39 42 39 42 65 26 39 -26 55 -20 22 8 -16 14 -35
25 -43 25 -8 0 -34 -21 -59 -46z"/>
<path d="M3377 6965 c-20 -14 -37 -34 -37 -43 0 -10 45 -62 100 -117 108 -108
111 -109 153 -53 22 29 35 108 18 108 -6 0 -11 -9 -11 -20 0 -32 -27 -90 -45
-97 -12 -4 -43 20 -106 83 -49 49 -89 92 -89 95 0 15 69 49 99 49 17 0 31 5
31 10 0 20 -75 10 -113 -15z"/>
<path d="M7015 6972 c-69 -43 -69 -43 48 -160 l106 -106 30 28 c33 31 60 111
44 127 -7 7 -13 -4 -17 -34 -4 -28 -16 -53 -31 -67 l-25 -24 -84 80 c-45 43
-86 86 -90 94 -11 23 38 60 80 60 19 0 34 5 34 10 0 17 -63 11 -95 -8z"/>
<path d="M3245 6940 c-25 -25 -33 -40 -24 -40 19 0 84 66 71 73 -5 4 -26 -12
-47 -33z"/>
<path d="M6882 6957 c-34 -36 -27 -55 8 -22 17 16 30 32 30 37 0 15 -16 8 -38
-15z"/>
<path d="M4890 6924 c0 -14 4 -23 10 -19 6 3 10 15 10 26 0 10 -4 19 -10 19
-5 0 -10 -12 -10 -26z"/>
<path d="M894 6929 c-17 -5 -39 -19 -50 -31 -19 -21 -19 -21 1 -13 11 4 36 14
55 21 163 62 326 -120 251 -281 -85 -183 -326 -160 -391 37 l-20 63 3 -53 c5
-71 45 -127 116 -164 92 -48 184 -34 265 41 60 55 84 168 53 244 -46 108 -171
169 -283 136z"/>
<path d="M4495 6917 c-54 -26 -100 -72 -122 -124 -18 -45 -16 -131 6 -178 20
-46 79 -101 127 -121 39 -16 84 -18 84 -4 0 6 -9 10 -20 10 -60 0 -140 58
-171 125 -69 148 72 325 230 290 17 -4 54 -22 81 -40 31 -21 50 -29 50 -20 0
7 -22 27 -50 45 -69 44 -145 50 -215 17z"/>
<path d="M4860 6869 c0 -11 5 -17 10 -14 6 3 10 13 10 21 0 8 -4 14 -10 14 -5
0 -10 -9 -10 -21z"/>
<path d="M782 6849 c-7 -12 -11 -23 -8 -26 8 -9 36 17 36 33 0 20 -13 17 -28
-7z"/>
<path d="M2847 6863 c-4 -3 -7 -11 -7 -17 0 -6 5 -5 12 2 6 6 9 14 7 17 -3 3
-9 2 -12 -2z"/>
<path d="M6423 6836 c1 -29 4 -33 29 -32 20 1 27 5 23 15 -3 7 -1 19 5 26 7 9
7 15 1 19 -5 4 -12 2 -16 -4 -4 -7 -12 -7 -25 0 -16 8 -18 6 -17 -24z"/>
<path d="M2797 6848 c4 -7 6 -20 5 -28 -2 -10 6 -15 23 -15 31 0 31 6 2 33
-25 24 -43 29 -30 10z"/>
<path d="M3291 6806 c-25 -25 -42 -49 -38 -53 10 -9 90 72 86 86 -2 6 -24 -9
-48 -33z"/>
<path d="M6950 6840 c0 -5 5 -10 10 -10 6 0 10 5 10 10 0 6 -4 10 -10 10 -5 0
-10 -4 -10 -10z"/>
<path d="M675 6830 c-3 -5 -1 -10 4 -10 6 0 11 5 11 10 0 6 -2 10 -4 10 -3 0
-8 -4 -11 -10z"/>
<path d="M4470 6821 c0 -6 5 -13 11 -16 6 -4 8 -22 4 -45 -5 -32 -3 -40 20
-58 l26 -21 59 27 c56 26 75 42 47 42 -7 0 -29 -9 -50 -20 -47 -26 -74 -25
-82 0 -12 36 44 82 71 59 17 -14 30 -6 19 11 -5 8 -22 10 -46 7 -26 -3 -42 0
-50 9 -13 16 -29 19 -29 5z"/>
<path d="M4770 6821 c0 -5 5 -13 10 -16 6 -3 10 -2 10 4 0 5 -4 13 -10 16 -5
3 -10 2 -10 -4z"/>
<path d="M850 6812 c0 -5 3 -12 8 -16 4 -4 7 -26 7 -48 0 -29 6 -44 20 -54 17
-11 28 -10 77 13 47 21 60 23 73 13 22 -18 19 -43 -8 -68 -25 -24 -57 -28 -74
-11 -7 7 -13 7 -17 0 -11 -16 33 -33 69 -27 19 4 36 2 40 -4 3 -5 13 -10 21
-10 13 0 13 2 0 21 -11 16 -12 26 -4 39 16 25 1 69 -28 82 -22 10 -33 8 -69
-11 -50 -26 -79 -25 -83 5 -4 31 43 67 70 53 22 -12 34 -6 23 11 -5 8 -24 11
-51 7 -25 -2 -47 -1 -50 4 -7 11 -24 12 -24 1z"/>
<path d="M6895 6790 c-16 -16 -25 -33 -22 -37 8 -7 67 45 67 59 0 16 -17 8
-45 -22z"/>
<path d="M635 6803 c-55 -10 -65 -15 -65 -30 0 -15 2 -14 19 1 12 11 27 15 39
11 11 -3 23 -1 27 5 9 14 5 17 -20 13z"/>
<path d="M745 6779 c-6 -19 0 -38 9 -28 10 12 16 49 7 49 -5 0 -13 -9 -16 -21z"/>
<path d="M4938 6783 c18 -13 22 -25 22 -74 0 -56 -1 -59 -27 -64 -41 -9 -56
-19 -73 -48 -14 -26 -10 -44 22 -89 11 -15 7 -23 -27 -58 -42 -43 -58 -48 -81
-25 -21 21 -77 19 -97 -3 -9 -10 -20 -33 -23 -50 -6 -32 -7 -32 -67 -32 -45 0
-63 4 -74 18 -12 16 -13 15 -11 -8 3 -24 5 -25 83 -25 l80 0 8 30 c16 51 23
60 54 63 19 2 35 -4 48 -18 10 -11 22 -20 27 -20 18 0 108 93 108 112 0 10
-10 32 -21 48 -21 28 -21 30 -5 54 9 15 26 26 37 26 48 0 59 16 59 88 0 72
-10 92 -44 91 -20 0 -20 -1 2 -16z"/>
<path d="M3365 6750 c-20 -21 -24 -30 -14 -30 15 0 59 40 59 53 0 15 -17 6
-45 -23z"/>
<path d="M6980 6745 c-7 -9 -10 -18 -7 -22 8 -7 37 15 37 28 0 14 -16 11 -30
-6z"/>
<path d="M4798 6724 c3 -15 8 -22 14 -16 9 9 1 42 -12 42 -4 0 -5 -12 -2 -26z"/>
<path d="M570 6690 c0 -40 4 -51 21 -60 11 -7 28 -8 37 -4 14 6 13 8 -8 13
-22 6 -25 13 -28 54 -4 63 -22 60 -22 -3z"/>
<path d="M4670 6728 c-10 -62 -8 -107 5 -118 18 -15 34 -5 17 12 -7 7 -9 28
-5 53 3 26 1 45 -6 49 -6 4 -11 6 -11 4z"/>
<path d="M2414 6698 c3 -13 6 -34 7 -48 0 -25 0 -25 11 -3 12 25 3 73 -13 73
-7 0 -9 -9 -5 -22z"/>
<path d="M3400 6655 c-36 -36 -58 -65 -49 -65 19 0 123 104 118 119 -2 6 -33
-18 -69 -54z"/>
<path d="M7027 6662 c-31 -32 -57 -64 -57 -72 0 -8 29 15 65 50 36 35 65 68
65 72 0 18 -19 5 -73 -50z"/>
<path d="M3551 6630 c-17 -22 -29 -40 -26 -40 14 0 75 54 75 66 0 24 -15 16
-49 -26z"/>
<path d="M4772 6616 c-36 -61 -74 -93 -129 -108 -26 -7 -32 -12 -23 -18 35
-21 138 49 170 115 32 66 20 74 -18 11z"/>
<path d="M7182 6637 c-47 -48 -39 -68 8 -22 22 21 40 43 40 47 0 16 -17 7 -48
-25z"/>
<path d="M4576 6632 c-10 -9 5 -22 24 -22 29 0 33 17 5 22 -13 3 -27 3 -29 0z"/>
<path d="M214 6499 c-2 -4 0 -11 6 -14 8 -5 7 -11 -1 -21 -6 -8 -10 -14 -8
-15 2 0 18 -1 35 -2 27 -2 31 1 30 25 -1 21 -7 27 -29 31 -15 2 -30 0 -33 -4z"/>
<path d="M3846 6478 c1 -18 3 -35 3 -37 1 -2 7 2 15 8 10 8 16 9 21 1 3 -6 11
-8 16 -4 6 4 6 11 -1 19 -8 9 -8 15 0 20 6 3 8 11 4 16 -4 6 -11 6 -19 -1 -9
-8 -15 -8 -20 0 -13 20 -23 9 -19 -22z"/>
<path d="M2747 6478 c-15 -11 -7 -13 45 -14 39 0 76 -7 97 -18 41 -22 121 -94
121 -110 0 -6 -27 -38 -60 -71 -57 -56 -60 -62 -55 -95 5 -28 2 -40 -14 -55
-26 -23 -27 -47 -3 -68 25 -23 45 -21 68 4 15 16 25 19 53 14 33 -6 38 -3 138
97 72 72 103 110 103 126 0 13 9 35 20 49 27 34 25 51 -7 85 -31 33 -63 36
-88 8 -10 -11 -30 -20 -45 -20 -15 0 -36 -10 -50 -25 -13 -14 -28 -25 -33 -25
-5 0 -34 23 -65 50 -77 68 -181 100 -225 68z m490 -70 c28 -26 29 -40 3 -63
-20 -18 -21 -18 -52 13 -31 31 -31 32 -13 52 23 25 33 25 62 -2z m-63 -68 c25
-27 46 -53 46 -58 0 -13 -191 -202 -203 -202 -14 0 -107 95 -107 109 0 16 189
201 205 201 7 0 33 -22 59 -50z m-239 -269 c-23 -24 -26 -24 -42 -8 -16 16
-15 18 7 42 22 24 24 24 42 8 18 -16 18 -18 -7 -42z"/>
<path d="M6351 6481 c-45 -12 -111 -59 -138 -100 -51 -76 -55 -187 -10 -264
l25 -43 -43 -21 -43 -21 -38 39 c-21 21 -43 39 -49 39 -16 0 -58 -46 -54 -59
8 -24 292 -301 308 -301 21 0 51 30 51 50 0 8 -14 29 -31 46 -30 31 -31 33
-15 55 9 13 16 31 16 41 0 27 12 22 55 -22 60 -61 125 -54 125 14 0 26 -18 48
-101 131 -115 114 -122 124 -121 176 2 123 134 173 229 86 29 -26 43 -14 17
14 -30 33 -69 49 -121 49 -96 0 -148 -60 -141 -162 l4 -58 108 -109 c84 -86
107 -115 104 -133 -2 -15 -11 -24 -27 -26 -19 -3 -44 16 -118 90 -52 51 -105
111 -119 134 -90 152 14 336 191 338 72 0 111 -18 177 -82 l48 -46 -65 -67
c-66 -68 -75 -85 -53 -107 9 -9 6 -18 -15 -40 -32 -33 -34 -53 -9 -75 25 -23
55 -21 77 3 14 16 26 19 52 14 33 -6 39 -2 139 98 90 90 104 109 99 130 -4 17
0 29 14 42 28 25 26 57 -4 90 -31 34 -52 33 -94 -5 l-33 -31 46 -47 c25 -26
46 -53 46 -62 0 -16 -179 -199 -196 -199 -5 0 -34 25 -63 54 l-54 55 76 79
c43 43 77 81 77 85 0 4 -8 7 -18 7 -10 0 -36 18 -57 41 -22 22 -57 49 -77 60
-43 22 -129 32 -177 20z m511 -68 c24 -21 23 -45 -2 -68 -20 -18 -21 -18 -50
11 -28 28 -29 31 -14 52 18 26 41 28 66 5z m-288 -306 c8 -12 5 -21 -8 -36
-23 -25 -39 -26 -56 -6 -11 13 -9 20 10 40 26 27 38 28 54 2z m-243 -321 c-8
-9 -18 -16 -23 -16 -5 0 -72 63 -150 140 -140 139 -141 140 -123 160 19 21 20
20 164 -124 125 -125 143 -147 132 -160z m-43 228 c25 -29 29 -71 8 -100 -14
-18 -17 -17 -70 36 -31 30 -56 60 -56 66 0 16 49 34 75 27 11 -2 30 -16 43
-29z"/>
<path d="M2615 6413 c-28 -31 -32 -45 -12 -37 18 7 60 64 48 64 -6 0 -22 -12
-36 -27z"/>
<path d="M4472 6413 c15 -15 31 -24 34 -20 10 10 -26 47 -45 47 -11 0 -8 -7
11 -27z"/>
<path d="M6699 6390 c-13 -10 -19 -19 -13 -20 7 0 22 9 35 20 13 10 19 19 13
20 -7 0 -22 -9 -35 -20z"/>
<path d="M2712 6370 c-62 -38 -88 -116 -61 -186 5 -16 58 -77 117 -136 90 -91
105 -111 96 -126 -25 -38 -48 -25 -166 96 -107 109 -117 122 -128 173 -11 47
-10 64 3 110 16 53 14 76 -4 49 -38 -60 -32 -169 14 -239 l23 -36 -42 -21 -43
-21 -38 39 c-20 21 -44 38 -53 38 -16 0 -38 -20 -55 -48 -10 -19 281 -312 311
-312 23 0 54 29 54 50 0 8 -14 29 -31 46 l-31 32 18 41 c11 22 21 41 24 41 3
0 24 -18 45 -40 46 -47 85 -53 109 -18 9 12 16 29 16 36 0 8 -49 65 -109 126
-62 64 -113 124 -117 140 -11 45 3 98 36 131 27 27 37 30 90 30 50 0 63 -4 87
-27 38 -36 65 -38 32 -2 -53 57 -136 71 -197 34z m-133 -424 c125 -125 143
-147 132 -160 -8 -9 -18 -16 -25 -16 -6 0 -75 64 -153 142 -134 134 -141 143
-126 160 9 10 19 18 22 18 4 0 71 -65 150 -144z m56 90 c18 -8 39 -24 45 -36
13 -24 6 -85 -11 -96 -13 -8 -130 106 -123 118 5 8 36 24 52 27 1 1 18 -5 37
-13z"/>
<path d="M3735 6201 c-123 -57 -172 -210 -106 -334 l29 -55 -143 -142 -142
-142 -26 32 c-41 49 -61 130 -47 190 6 26 18 57 26 67 14 17 15 17 30 -2 26
-32 54 -98 54 -127 0 -16 5 -28 10 -28 16 0 11 62 -9 105 -10 22 -32 56 -49
75 l-29 35 -22 -35 c-31 -52 -44 -127 -31 -186 28 -126 162 -237 285 -237 60
0 150 38 150 63 0 21 -72 67 -133 86 -35 10 -67 13 -95 9 l-42 -7 58 60 c32
34 85 87 117 118 58 55 61 56 79 40 22 -20 102 -46 141 -46 51 0 129 32 166
69 67 66 90 157 64 252 -13 48 -75 118 -124 140 -55 25 -158 25 -211 0z m214
-25 c128 -67 148 -250 40 -353 -64 -60 -154 -78 -231 -44 -85 37 -137 114
-138 204 -1 167 177 272 329 193z m-375 -627 c43 -12 116 -56 116 -71 0 -17
-69 -38 -127 -38 -55 0 -143 31 -143 50 0 4 20 5 45 2 30 -3 45 -1 45 7 0 6
-12 11 -27 12 -16 0 -37 4 -47 8 -23 9 -10 20 38 32 45 10 57 10 100 -2z"/>
<path d="M3832 6068 c-18 -18 -15 -54 9 -99 11 -23 18 -47 15 -55 -7 -19 -36
-18 -65 2 -20 14 -22 23 -18 56 4 27 2 38 -6 35 -7 -2 -12 -24 -12 -50 0 -25
-4 -49 -8 -53 -15 -15 -5 -19 53 -21 56 -2 61 -1 72 23 10 22 9 32 -10 67 -12
23 -22 50 -22 60 0 28 29 32 56 7 26 -26 31 -49 12 -68 -9 -9 -8 -12 4 -12 21
0 31 30 22 64 -4 16 -1 32 6 41 10 12 10 15 -2 15 -8 0 -19 -5 -25 -11 -8 -8
-13 -8 -17 0 -9 15 -49 14 -64 -1z"/>
<path d="M4836 6085 c-9 -24 -7 -45 3 -45 12 0 22 43 12 53 -5 5 -11 1 -15 -8z"/>
<path d="M7239 6074 c-16 -41 -14 -143 4 -184 18 -41 22 -17 7 45 -6 27 -6 59
2 98 12 64 5 86 -13 41z"/>
<path d="M1048 6065 c6 -22 20 -34 23 -20 3 14 -10 45 -19 45 -6 0 -7 -10 -4
-25z"/>
<path d="M1208 6065 c-6 -28 6 -34 16 -9 8 22 7 34 -3 34 -5 0 -11 -11 -13
-25z"/>
<path d="M4670 6073 c0 -24 16 -48 23 -36 8 13 -3 53 -14 53 -5 0 -9 -8 -9
-17z"/>
<path d="M1723 6005 c-1 -26 3 -30 27 -31 25 -1 28 2 27 30 -1 27 -5 31 -27
31 -22 0 -26 -5 -27 -30z"/>
<path d="M5347 6005 c-5 -35 -3 -40 15 -29 7 5 21 7 32 5 13 -2 16 1 10 11 -5
7 -7 20 -6 28 2 10 -6 15 -22 15 -19 0 -25 -6 -29 -30z"/>
<path d="M900 6002 c0 -13 35 -42 50 -42 9 0 5 9 -10 25 -24 25 -40 32 -40 17z"/>
<path d="M1345 5990 c-10 -11 -15 -23 -12 -27 8 -7 47 25 47 39 0 14 -16 9
-35 -12z"/>
<path d="M4530 6002 c0 -14 39 -46 47 -39 3 4 -2 16 -12 27 -19 21 -35 26 -35
12z"/>
<path d="M4971 5989 c-25 -20 -23 -36 3 -26 16 6 42 47 29 47 -4 -1 -19 -10
-32 -21z"/>
<path d="M1050 5984 c-19 -8 -50 -29 -69 -47 -33 -32 -81 -118 -81 -147 0 -41
-26 -97 -62 -136 -23 -25 -43 -57 -45 -72 -2 -15 -6 -46 -9 -68 -5 -36 -2 -46
23 -72 32 -35 47 -39 118 -28 36 6 60 17 85 41 44 42 79 59 160 79 82 21 129
52 168 112 28 42 32 56 32 118 0 147 -89 237 -236 236 -27 -1 -65 -8 -84 -16z
m178 -19 c80 -34 122 -102 122 -200 0 -108 -75 -190 -198 -215 -70 -15 -102
-31 -153 -77 l-40 -36 -70 69 c-71 70 -81 92 -53 114 13 11 24 5 74 -45 57
-57 85 -69 58 -26 -11 18 -9 24 22 56 30 30 40 35 82 35 26 0 48 5 48 10 0 6
-20 10 -45 10 l-45 0 0 45 c0 25 -4 45 -10 45 -5 0 -10 -21 -10 -47 0 -39 -5
-52 -32 -80 -18 -18 -37 -33 -43 -33 -6 0 -24 13 -39 29 l-27 28 20 34 c10 19
22 50 26 69 21 111 77 193 150 218 45 16 121 14 163 -3z m-360 -468 c51 -52
53 -67 8 -67 -25 0 -40 7 -55 26 -27 34 -28 84 -1 84 3 0 25 -19 48 -43z"/>
<path d="M4665 5981 c-44 -19 -101 -78 -116 -119 -6 -15 -15 -49 -21 -77 -12
-57 -44 -119 -82 -154 -14 -14 -26 -34 -26 -46 0 -12 -5 -36 -11 -52 -24 -71
51 -149 118 -122 15 7 37 11 49 11 11 -1 44 19 73 43 30 25 70 49 94 55 111
29 143 44 188 89 37 37 49 57 59 101 25 115 -26 226 -125 271 -53 24 -147 24
-200 0z m183 -17 c87 -36 142 -134 127 -227 -18 -103 -80 -158 -220 -193 -53
-13 -79 -27 -117 -61 -27 -23 -51 -43 -54 -43 -12 0 -144 134 -144 145 0 7 9
20 20 30 19 17 21 16 77 -39 31 -31 59 -54 61 -51 3 2 -1 12 -8 20 -11 14 -7
22 25 55 35 36 44 40 87 40 26 0 48 5 48 10 0 6 -20 10 -45 10 l-45 0 0 44 c0
25 -4 48 -10 51 -6 4 -10 -13 -10 -45 0 -43 -5 -55 -34 -88 -35 -37 -35 -37
-63 -20 -45 27 -50 42 -26 90 11 24 28 73 37 109 21 78 62 134 120 160 50 23
124 24 174 3z m-355 -469 c52 -49 53 -65 6 -65 -32 0 -79 38 -79 64 0 20 11
46 19 46 3 0 28 -21 54 -45z"/>
<path d="M1424 5854 c-18 -15 -18 -15 6 -10 14 3 29 6 33 6 5 0 5 5 2 10 -9
14 -18 13 -41 -6z"/>
<path d="M5048 5863 c-10 -2 -18 -9 -18 -15 0 -6 10 -8 23 -4 12 3 25 6 30 6
4 0 7 5 7 10 0 10 -12 11 -42 3z"/>
<path d="M815 5850 c-3 -4 5 -10 18 -14 32 -8 49 -7 43 3 -8 12 -55 20 -61 11z"/>
<path d="M4440 5850 c0 -9 25 -20 46 -20 9 0 13 4 10 9 -7 11 -56 21 -56 11z"/>
<path d="M6941 5847 c-45 -55 -54 -173 -18 -246 44 -92 155 -176 238 -182 61
-5 99 1 99 14 0 9 -18 11 -64 9 -50 -3 -73 1 -105 17 -54 28 -52 40 5 33 61
-7 51 13 -11 22 -55 9 -51 20 13 36 46 10 95 6 145 -15 9 -4 17 -3 17 3 0 18
-65 37 -122 36 -32 -1 -58 2 -58 5 0 4 41 47 90 96 50 49 90 96 90 105 0 8
-60 -45 -134 -119 l-133 -133 -20 29 c-40 56 -53 92 -53 148 0 58 21 125 40
125 17 0 68 -88 75 -131 7 -42 25 -54 25 -16 0 45 -75 177 -101 177 -3 0 -12
-6 -18 -13z"/>
<path d="M1898 5603 c-157 -157 -238 -244 -238 -258 0 -12 21 -42 48 -68 44
-43 52 -47 98 -47 48 0 52 2 121 71 64 63 74 69 93 59 18 -10 27 -5 77 43 51
49 55 55 43 76 -11 21 -7 28 49 83 74 72 81 85 81 139 0 37 -6 48 -50 91 -27
26 -57 48 -67 48 -9 0 -124 -107 -255 -237z m308 173 c70 -69 62 -108 -43
-215 -36 -36 -47 -42 -70 -37 -24 6 -35 -1 -77 -43 -41 -42 -48 -53 -42 -76 6
-22 -2 -34 -59 -90 -60 -59 -69 -65 -107 -65 -36 0 -49 6 -85 42 -24 23 -43
47 -43 53 0 12 461 475 474 475 5 0 28 -20 52 -44z m-89 -302 c6 -16 -62 -94
-82 -94 -7 0 -20 9 -30 20 -18 20 -18 21 25 65 36 37 46 42 62 34 11 -6 22
-17 25 -25z"/>
<path d="M5527 5602 c-153 -154 -237 -244 -237 -257 0 -12 22 -42 48 -68 44
-43 52 -47 96 -47 46 0 51 3 122 71 61 60 76 70 88 59 13 -10 22 -7 50 17 56
46 81 83 69 102 -9 13 2 29 58 87 68 71 69 73 69 127 0 52 -2 56 -50 101 -27
25 -55 46 -62 46 -7 0 -120 -107 -251 -238z m301 175 c37 -37 42 -48 42 -88 0
-42 -4 -49 -63 -107 -54 -53 -68 -62 -89 -57 -19 5 -32 -1 -59 -27 -62 -58
-72 -74 -60 -95 8 -17 0 -30 -57 -86 -63 -63 -70 -67 -113 -67 -42 0 -49 4
-81 43 -20 23 -37 45 -39 49 -4 8 460 478 471 478 3 0 25 -19 48 -43z m-100
-335 c-56 -62 -61 -65 -76 -55 -40 25 -39 42 6 85 l43 40 25 -23 24 -23 -22
-24z"/>
<path d="M1802 5697 c-45 -45 -82 -87 -82 -93 0 -6 14 -23 30 -39 21 -20 30
-24 30 -13 0 8 -9 23 -20 33 -21 19 -20 19 57 97 l77 78 26 -25 c15 -14 30
-22 33 -18 9 8 -42 63 -58 63 -6 0 -47 -37 -93 -83z"/>
<path d="M5422 5697 c-45 -45 -82 -87 -82 -93 0 -16 57 -67 64 -56 3 5 -3 17
-14 27 -11 10 -20 23 -20 29 0 6 34 45 75 86 l75 74 30 -29 c16 -16 30 -24 30
-18 0 19 -41 63 -58 63 -10 0 -54 -37 -100 -83z"/>
<path d="M2922 5708 c-7 -7 -12 -21 -12 -33 0 -29 19 -45 52 -45 36 0 56 36
39 69 -13 23 -59 29 -79 9z m61 -20 c7 -21 -4 -38 -23 -38 -23 0 -34 16 -26
35 7 18 43 20 49 3z"/>
<path d="M6541 5698 c-12 -34 2 -63 33 -66 33 -4 56 13 56 42 0 30 -18 46 -52
46 -21 0 -31 -6 -37 -22z m66 -14 c3 -8 -1 -22 -9 -30 -12 -12 -17 -12 -33 -1
-23 17 -14 47 15 47 11 0 23 -7 27 -16z"/>
<path d="M1410 5701 c0 -12 48 -27 57 -17 9 8 2 13 -30 21 -17 5 -27 3 -27 -4z"/>
<path d="M5030 5701 c0 -12 48 -27 57 -17 9 8 2 13 -30 21 -17 5 -27 3 -27 -4z"/>
<path d="M2310 5683 c0 -5 34 -42 75 -83 41 -41 75 -81 75 -90 0 -11 -348
-369 -463 -477 -4 -4 -46 31 -92 77 -47 47 -85 78 -85 70 0 -20 151 -170 170
-170 8 0 121 107 252 237 178 178 238 244 238 262 0 16 -22 46 -67 93 -67 68
-103 96 -103 81z"/>
<path d="M5940 5680 c0 -9 34 -49 75 -90 41 -41 75 -79 75 -85 0 -11 -461
-475 -472 -475 -4 0 -43 36 -88 81 -45 44 -84 78 -88 74 -8 -8 159 -175 177
-175 23 0 491 472 491 495 0 12 -34 54 -85 105 -47 47 -85 78 -85 70z"/>
<path d="M1330 5579 c0 -19 37 -55 47 -45 4 3 -5 19 -20 34 -20 19 -27 22 -27
11z"/>
<path d="M4950 5582 c0 -5 11 -19 25 -32 19 -18 25 -20 25 -8 0 8 -8 22 -18
31 -20 19 -32 22 -32 9z"/>
<path d="M496 5571 c-3 -5 -14 -7 -24 -5 -13 4 -17 -2 -18 -24 -1 -25 3 -29
26 -29 23 0 26 4 27 34 1 34 -2 40 -11 24z"/>
<path d="M4076 5573 c-3 -3 -1 -12 5 -19 7 -8 7 -14 -1 -19 -19 -12 -10 -21
23 -21 31 0 34 3 33 28 -1 19 -6 28 -16 26 -8 -1 -20 1 -26 4 -6 4 -14 5 -18
1z"/>
<path d="M1212 5484 c2 -15 8 -29 14 -31 7 -2 10 6 6 22 -6 35 -24 44 -20 9z"/>
<path d="M4837 5503 c-8 -13 3 -53 14 -53 11 0 11 31 0 49 -5 7 -11 9 -14 4z"/>
<path d="M2787 5405 c-83 -29 -166 -126 -183 -212 -10 -53 11 -38 29 20 44
140 195 218 342 177 140 -39 216 -214 153 -352 -23 -50 -90 -128 -110 -128 -4
0 -8 -4 -8 -10 0 -22 26 -8 75 43 142 141 101 376 -79 458 -49 22 -162 25
-219 4z"/>
<path d="M6395 5396 c-27 -13 -67 -41 -87 -62 -46 -48 -95 -151 -80 -166 8 -8
13 -2 18 18 18 80 109 180 182 202 178 54 345 -61 346 -238 0 -88 -31 -157
-98 -215 -28 -26 -44 -45 -35 -45 28 0 97 69 124 123 35 73 42 139 20 212 -13
46 -28 70 -74 116 -65 65 -101 79 -201 79 -48 0 -78 -7 -115 -24z"/>
<path d="M1366 5324 c-9 -8 -16 -23 -16 -33 0 -21 30 -51 52 -51 19 0 48 32
48 53 0 21 -27 47 -50 47 -10 0 -26 -7 -34 -16z m48 -10 c20 -8 20 -28 0 -44
-12 -11 -18 -10 -31 3 -13 13 -14 19 -3 31 14 18 13 18 34 10z"/>
<path d="M4991 5321 c-38 -38 6 -95 55 -72 17 7 24 19 24 39 0 51 -43 69 -79
33z m54 -31 c0 -16 -6 -26 -18 -28 -19 -4 -32 20 -23 44 9 25 41 13 41 -16z"/>
<path d="M3623 5048 c-159 -158 -243 -250 -243 -263 0 -13 67 -87 188 -208
144 -144 193 -187 212 -187 20 0 79 53 263 238 152 153 237 245 237 258 0 22
-56 82 -67 71 -3 -4 6 -20 20 -35 15 -16 27 -32 27 -37 0 -16 -464 -475 -480
-475 -16 0 -380 359 -380 375 0 6 108 118 240 250 l240 239 34 -33 c19 -18 40
-31 46 -29 14 4 -64 78 -82 78 -7 0 -121 -109 -255 -242z"/>
<path d="M2812 5260 c-34 -21 -75 -78 -65 -93 3 -5 13 5 23 21 48 78 135 96
196 39 46 -42 54 -94 25 -151 -24 -46 -18 -62 9 -26 73 94 3 230 -117 230 -21
0 -53 -9 -71 -20z"/>
<path d="M6440 5261 c-37 -19 -75 -72 -67 -93 2 -7 14 4 27 25 27 46 65 67
119 67 33 0 47 -7 76 -35 46 -46 51 -106 15 -157 -12 -16 -16 -29 -10 -33 17
-11 50 57 50 105 0 110 -111 174 -210 121z"/>
<path d="M3410 5220 c-25 -25 -25 -32 -1 -61 16 -20 23 -22 47 -14 51 18 40
95 -13 95 -7 0 -22 -9 -33 -20z m55 -30 c0 -16 -6 -26 -18 -28 -19 -4 -32 20
-23 44 9 25 41 13 41 -16z"/>
<path d="M7037 5222 c-21 -23 -22 -46 -1 -66 23 -23 51 -20 70 9 15 23 15 27
0 50 -19 30 -46 32 -69 7z m53 -18 c11 -12 10 -18 -3 -31 -8 -9 -23 -13 -31
-10 -19 8 -21 43 -3 50 20 9 24 8 37 -9z"/>
<path d="M466 5213 c-4 -5 -26 -8 -48 -8 -33 0 -45 -5 -61 -28 l-21 -28 92
-91 91 -92 31 29 c26 25 30 35 25 62 -3 17 -1 34 5 38 18 11 11 25 -36 75 -45
49 -63 58 -78 43z m85 -114 c-10 -18 -10 -26 0 -45 10 -19 9 -26 -1 -39 -7 -8
-18 -15 -24 -15 -7 0 -47 34 -91 76 l-78 75 21 21 c19 20 24 20 47 8 22 -12
28 -12 43 3 15 16 19 15 57 -23 36 -36 39 -42 26 -61z"/>
<path d="M4080 5205 c-9 -11 -16 -12 -30 -3 -25 16 -68 -7 -77 -40 -5 -20 7
-36 68 -99 94 -95 100 -98 134 -71 23 18 26 26 22 55 -4 20 -1 43 6 54 10 16
5 25 -38 69 -52 53 -65 59 -85 35z m94 -106 c-12 -14 -13 -21 -3 -37 14 -23 6
-50 -17 -59 -11 -4 -38 17 -90 68 -41 40 -74 77 -74 82 0 13 27 37 42 37 8 0
19 -5 26 -12 10 -9 16 -8 29 5 16 16 20 15 60 -25 39 -38 41 -43 27 -59z"/>
<path d="M2755 5070 c-44 -44 -83 -80 -87 -80 -4 0 -6 18 -5 41 2 32 -3 44
-20 56 -20 14 -24 13 -45 -9 -27 -27 -72 -155 -87 -247 -6 -35 -15 -69 -21
-76 -7 -9 -8 -15 -1 -19 14 -9 37 40 44 95 8 63 56 210 75 232 14 15 18 16 30
3 12 -12 11 -23 -8 -81 -12 -36 -19 -69 -16 -72 3 -3 56 44 118 106 61 61 120
111 130 111 37 0 16 -37 -66 -119 -47 -47 -82 -89 -79 -94 3 -5 29 15 58 43
36 35 59 51 69 47 26 -10 19 -30 -29 -77 -25 -24 -45 -51 -45 -59 0 -9 21 8
46 37 25 29 50 50 55 47 5 -3 13 -20 18 -38 7 -27 10 -29 16 -13 5 11 3 25 -3
35 -7 9 -15 23 -18 31 -3 8 -11 27 -19 42 -12 24 -11 28 11 49 26 24 31 58 12
77 -26 26 -54 11 -133 -68z"/>
<path d="M6370 5065 c-46 -46 -85 -83 -87 -81 -2 1 2 17 8 34 14 42 -2 72 -40
72 -16 0 -33 -6 -38 -12 -14 -18 -59 -158 -77 -238 -8 -36 -17 -76 -21 -90 -7
-23 -7 -24 10 -9 10 10 25 54 35 105 24 117 63 218 85 222 31 7 34 -20 10 -85
-12 -35 -19 -65 -16 -68 4 -2 56 45 117 106 60 60 116 109 125 109 41 0 25
-32 -57 -114 -46 -47 -84 -91 -84 -98 0 -7 24 12 54 41 36 36 60 52 70 48 28
-11 18 -40 -31 -89 -26 -26 -44 -51 -40 -55 4 -4 27 12 50 35 47 46 61 51 71
25 5 -11 -7 -30 -36 -60 -45 -46 -46 -74 0 -30 31 30 57 35 65 13 4 -9 -28
-47 -81 -100 -65 -65 -97 -89 -127 -97 -45 -12 -85 -35 -85 -49 0 -5 19 0 43
10 23 11 50 20 61 20 10 0 61 41 112 92 75 73 94 97 94 120 0 16 -7 31 -15 34
-10 4 -13 14 -9 29 4 16 -1 29 -17 44 -12 11 -20 24 -16 27 4 4 -1 20 -10 35
-16 27 -16 30 4 51 31 35 35 46 23 68 -22 42 -59 26 -150 -65z"/>
<path d="M1309 5090 c-41 -43 -53 -48 -66 -27 -13 22 -56 47 -79 47 -31 0 -81
-45 -89 -80 -7 -32 16 -87 41 -97 21 -8 18 -16 -26 -62 -22 -23 -40 -51 -40
-62 0 -23 73 -105 102 -115 14 -4 29 3 53 26 42 41 80 43 112 6 32 -37 29 -61
-12 -102 -19 -19 -35 -39 -35 -45 0 -17 82 -99 105 -105 29 -7 63 10 97 50
l28 31 17 -21 c27 -32 62 -47 96 -40 83 17 102 112 33 169 l-21 17 31 28 c40
34 57 68 50 97 -6 22 -90 105 -107 105 -5 0 -24 -16 -43 -35 -41 -41 -65 -44
-100 -12 -41 37 -42 61 -1 106 26 28 35 46 30 60 -9 29 -92 101 -116 101 -13
0 -38 -17 -60 -40z m118 -25 l45 -45 -31 -35 c-42 -48 -42 -95 -2 -136 40 -39
82 -39 123 1 16 17 35 30 43 30 16 0 85 -78 85 -96 0 -8 -18 -31 -40 -51 -45
-43 -48 -55 -21 -82 47 -47 52 -81 16 -116 -32 -33 -64 -31 -103 5 -18 17 -39
30 -47 30 -8 0 -26 -16 -41 -35 -40 -53 -67 -55 -115 -9 -21 21 -39 44 -39 52
0 7 12 24 27 36 39 34 39 98 0 132 -40 35 -87 32 -132 -7 l-35 -31 -45 45
c-25 24 -45 50 -45 57 0 7 18 30 40 51 46 44 50 70 16 92 -43 29 -39 92 9 123
21 14 30 14 55 4 17 -7 35 -21 41 -31 16 -30 47 -22 88 21 21 22 44 40 51 40
7 0 33 -20 57 -45z"/>
<path d="M4965 5119 c-11 -6 -32 -25 -47 -43 l-27 -31 -28 26 c-15 15 -38 30
-51 34 -52 15 -112 -38 -112 -99 0 -14 13 -40 30 -59 l29 -34 -21 -21 c-29
-29 -18 -37 15 -11 34 26 34 39 -3 74 -35 33 -39 72 -12 106 26 32 75 30 110
-4 36 -34 55 -34 84 2 13 16 34 34 47 41 21 11 27 8 67 -31 24 -24 44 -46 44
-50 0 -4 -13 -21 -30 -37 -48 -49 -39 -117 20 -147 42 -22 65 -19 103 15 19
17 39 30 44 30 17 0 83 -76 83 -96 0 -12 -18 -37 -41 -57 -43 -39 -43 -52 0
-91 31 -28 28 -79 -5 -105 -36 -28 -57 -26 -97 9 -19 17 -39 30 -45 30 -6 0
-28 -18 -48 -40 -21 -22 -44 -40 -53 -40 -8 0 -32 17 -53 37 -50 49 -62 33
-13 -17 51 -52 77 -52 127 1 l39 41 28 -26 c55 -53 127 -41 156 27 15 36 3 82
-26 100 -27 17 -24 32 15 69 56 53 55 70 -5 133 -28 30 -56 55 -62 55 -5 0
-27 -16 -49 -36 -45 -40 -78 -41 -110 -2 -27 31 -22 66 12 98 17 15 30 37 30
48 0 21 -91 112 -112 112 -7 0 -22 -5 -33 -11z"/>
<path d="M182 5078 l3 -33 73 -3 c43 -2 72 1 72 7 0 6 -28 11 -62 13 -57 3
-63 5 -66 26 -5 35 -24 26 -20 -10z"/>
<path d="M3804 5097 c-3 -9 -4 -24 -2 -34 3 -15 15 -18 76 -21 43 -2 72 1 72
7 0 6 -28 11 -62 13 -51 2 -63 6 -63 20 0 24 -13 34 -21 15z"/>
<path d="M7132 4937 c-99 -99 -122 -128 -122 -151 0 -23 23 -51 120 -149 66
-66 123 -117 127 -114 6 7 -30 47 -161 179 -42 42 -76 80 -76 84 0 4 55 62
121 130 67 67 120 127 118 133 -2 6 -59 -44 -127 -112z"/>
<path d="M61 4947 l-1 -38 68 3 c75 3 85 23 12 24 -66 1 -68 2 -73 27 -3 13
-5 7 -6 -16z"/>
<path d="M3682 4948 l3 -33 68 -3 c42 -2 67 1 67 8 0 5 -20 10 -44 10 -57 0
-76 8 -76 31 0 10 -5 19 -11 19 -6 0 -9 -14 -7 -32z"/>
<path d="M300 4962 c0 -4 34 -41 75 -82 41 -41 75 -68 75 -59 0 8 -30 45 -68
82 -64 64 -82 77 -82 59z"/>
<path d="M3920 4962 c0 -14 146 -153 153 -145 4 4 -25 40 -65 80 -68 69 -88
83 -88 65z"/>
<path d="M590 4950 c0 -5 9 -17 19 -27 11 -10 21 -29 23 -43 4 -22 5 -23 13
-7 4 11 3 28 -4 41 -14 24 -51 52 -51 36z"/>
<path d="M2900 4872 c0 -4 6 -14 12 -20 10 -10 10 -17 0 -33 -12 -18 -11 -20
5 -17 22 4 29 43 13 64 -13 15 -30 19 -30 6z"/>
<path d="M3540 4840 l-45 -40 47 -47 48 -47 45 44 45 44 -42 43 c-23 24 -45
43 -48 43 -3 -1 -25 -19 -50 -40z m77 -12 c30 -28 29 -42 -4 -68 l-27 -21 -30
30 -30 30 24 26 c29 31 37 31 67 3z"/>
<path d="M7165 4840 l-39 -40 44 -45 44 -45 23 22 c13 12 23 28 23 36 0 12 -6
10 -23 -6 l-23 -22 -29 30 -29 30 24 25 c28 29 37 31 62 8 15 -14 18 -14 18
-1 0 16 -31 48 -46 48 -6 0 -28 -18 -49 -40z"/>
<path d="M487 4732 c-64 -64 -117 -124 -117 -132 0 -8 56 41 125 110 69 69
125 128 125 132 0 19 -23 0 -133 -110z"/>
<path d="M3797 4843 c-8 -12 140 -159 150 -150 4 4 -27 42 -69 84 -41 41 -78
71 -81 66z"/>
<path d="M4680 4831 c-5 -11 -10 -23 -10 -26 0 -12 103 -115 115 -115 7 0 26
14 43 30 18 17 41 30 52 30 11 0 20 5 20 10 0 22 -52 9 -82 -20 l-32 -31 -43
43 c-37 36 -43 48 -39 71 6 31 -8 36 -24 8z"/>
<path d="M171 4833 c2 -14 149 -147 155 -141 7 8 -129 148 -144 148 -7 0 -11
-3 -11 -7z"/>
<path d="M2826 4831 c-4 -7 -5 -15 -2 -18 9 -9 19 4 14 18 -4 11 -6 11 -12 0z"/>
<path d="M2032 4783 c4 -13 2 -26 -3 -29 -5 -3 -7 -10 -3 -15 4 -6 11 -6 19 1
9 8 15 8 20 0 12 -20 21 -10 21 25 0 35 -9 45 -21 25 -5 -8 -12 -7 -23 2 -13
11 -15 10 -10 -9z"/>
<path d="M5654 4764 c0 -28 3 -31 17 -23 12 6 20 5 24 -1 4 -6 11 -8 16 -4 6
4 6 10 -1 19 -6 7 -8 19 -5 26 4 10 -3 14 -23 15 -25 1 -28 -2 -28 -32z"/>
<path d="M2865 4770 c-3 -5 1 -10 9 -10 9 0 16 5 16 10 0 6 -4 10 -9 10 -6 0
-13 -4 -16 -10z"/>
<path d="M2815 4720 c-10 -11 -15 -23 -12 -27 8 -7 47 25 47 39 0 14 -16 9
-35 -12z"/>
<path d="M772 4718 c-18 -18 -14 -53 8 -73 39 -35 96 17 70 65 -12 23 -58 28
-78 8z m62 -25 c4 -9 0 -23 -9 -32 -13 -14 -17 -14 -31 1 -9 9 -14 24 -11 32
8 21 43 20 51 -1z"/>
<path d="M4396 4711 c-21 -23 -14 -56 15 -71 23 -13 25 -3 3 22 -14 14 -15 20
-4 33 7 9 21 14 30 13 9 -2 18 2 19 7 3 19 -45 16 -63 -4z"/>
<path d="M40 4712 c0 -14 135 -142 150 -142 8 0 -19 34 -60 75 -70 71 -90 85
-90 67z"/>
<path d="M3670 4712 c0 -4 34 -41 75 -82 41 -41 75 -68 75 -59 0 8 -30 45 -68
82 -64 64 -82 77 -82 59z"/>
<path d="M4960 4681 c0 -11 -12 -33 -26 -50 -19 -23 -22 -31 -11 -31 34 0 73
79 47 95 -5 3 -10 -3 -10 -14z"/>
<path d="M4460 4669 c-13 -24 -4 -41 10 -19 10 16 13 40 5 40 -2 0 -9 -9 -15
-21z"/>
<path d="M2759 4664 c-12 -14 -11 -16 5 -13 11 2 21 10 24 17 5 17 -13 15 -29
-4z"/>
<path d="M2664 4636 c-35 -16 -49 -32 -35 -40 5 -4 12 -2 16 4 3 5 24 14 45
20 22 6 40 15 40 20 0 14 -29 12 -66 -4z"/>
<path d="M2060 4521 c-57 -12 -105 -37 -148 -76 -44 -39 -82 -107 -82 -145 0
-32 13 -16 34 42 34 92 136 158 246 158 79 0 131 -22 194 -81 29 -26 46 -36
46 -26 0 21 -75 86 -124 107 -50 22 -119 30 -166 21z"/>
<path d="M5669 4517 c-75 -21 -136 -63 -174 -120 -37 -55 -56 -117 -36 -117 6
0 11 8 11 18 0 29 57 117 94 146 55 42 99 56 173 56 82 0 134 -22 188 -76 106
-108 106 -272 -1 -377 -54 -54 -88 -69 -165 -75 -111 -8 -190 31 -252 125 -44
66 -57 57 -18 -12 l30 -52 -57 -56 c-45 -45 -62 -55 -79 -51 -18 5 -38 -8 -98
-67 -84 -81 -96 -115 -51 -145 32 -20 42 -14 129 73 57 57 67 72 63 94 -4 21
5 36 54 84 56 55 60 58 77 42 67 -60 208 -76 298 -33 57 26 129 99 153 154 24
57 21 167 -6 223 -61 126 -210 200 -333 166z m-275 -623 c9 -8 16 -18 16 -22
-1 -9 -26 -37 -93 -101 -48 -46 -58 -52 -71 -41 -9 7 -16 20 -16 28 0 16 127
152 142 152 3 0 14 -7 22 -16z"/>
<path d="M696 4432 c-3 -5 12 -14 34 -20 35 -9 64 -1 43 11 -19 11 -72 17 -77
9z"/>
<path d="M836 4414 c-33 -23 -66 -74 -66 -104 0 -23 18 -7 33 30 21 55 68 82
130 77 75 -6 127 -67 127 -147 0 -47 -11 -73 -48 -112 -14 -15 -22 -31 -18
-35 7 -7 39 23 69 67 26 37 23 128 -6 171 -54 81 -147 103 -221 53z"/>
<path d="M4268 4430 c-43 -13 -107 -68 -130 -114 -30 -55 -30 -146 -1 -201 20
-39 20 -41 2 -70 -27 -44 -25 -123 4 -166 32 -48 62 -60 130 -56 51 3 62 8 95
40 48 48 34 60 -18 13 -35 -31 -47 -36 -89 -36 -59 0 -103 31 -121 86 -23 70
43 174 111 174 16 0 29 5 29 10 0 15 -47 12 -79 -5 -33 -17 -41 -11 -60 44
-17 51 -13 99 11 148 44 88 125 133 208 114 30 -7 40 -6 37 2 -7 23 -79 32
-129 17z"/>
<path d="M4525 4430 c3 -5 17 -10 31 -10 35 0 64 -16 96 -54 17 -19 27 -25 27
-16 0 38 -69 90 -121 90 -24 0 -37 -4 -33 -10z"/>
<path d="M4444 4398 c-26 -28 -54 -77 -54 -93 0 -17 20 0 30 25 7 17 31 46 53
65 32 28 37 35 21 35 -11 0 -34 -15 -50 -32z"/>
<path d="M2911 4403 c-5 -10 -12 -40 -16 -68 -13 -89 -15 -91 -99 -104 -74
-12 -96 -26 -96 -61 0 -12 110 -130 122 -130 18 0 6 22 -27 51 -47 42 -75 83
-66 97 4 6 40 18 80 25 39 8 76 18 82 24 5 5 14 36 20 68 14 82 18 95 32 95 7
0 105 -93 219 -207 l206 -208 -12 -97 c-6 -53 -14 -100 -17 -103 -9 -9 -181
-26 -204 -21 -11 3 -71 57 -134 121 -112 113 -115 115 -135 98 -11 -10 -64
-62 -117 -116 -90 -92 -98 -97 -128 -91 -26 6 -37 2 -61 -21 l-30 -29 -25 24
c-14 13 -28 20 -32 17 -9 -9 227 -247 246 -247 11 0 10 4 -4 20 -18 20 -18 21
10 50 23 24 27 35 21 60 -6 30 1 38 98 136 58 57 109 104 114 104 5 0 44 -34
85 -75 58 -58 83 -75 104 -75 57 0 197 20 206 29 5 5 13 45 17 88 5 43 11 90
15 106 6 24 -1 36 -74 110 -45 46 -81 88 -81 94 0 5 9 18 20 28 11 10 20 29
20 42 0 12 -9 32 -20 43 -11 11 -31 20 -43 20 -13 0 -32 -9 -42 -20 -10 -11
-23 -20 -29 -20 -6 0 -47 36 -91 80 -82 82 -115 98 -134 63z m327 -135 c17
-17 14 -39 -9 -67 l-20 -25 -31 32 -32 31 25 20 c28 23 50 26 67 9z m-325
-326 l27 -28 -110 -114 -110 -114 -30 29 c-16 15 -26 33 -23 39 10 16 207 215
214 216 3 0 17 -13 32 -28z m-240 -240 c31 -32 57 -62 57 -68 0 -6 -11 -21
-25 -34 l-26 -24 -66 67 -67 66 24 26 c13 14 28 25 35 25 6 0 36 -26 68 -58z"/>
<path d="M6535 4397 c-8 -12 -15 -35 -14 -52 0 -29 1 -29 19 13 11 23 25 42
32 42 8 0 105 -92 217 -204 l203 -204 -6 -39 c-3 -21 -8 -66 -12 -101 -3 -34
-10 -65 -15 -68 -5 -3 -52 -10 -105 -16 l-97 -10 -123 123 -124 124 -118 -118
c-108 -108 -121 -118 -146 -111 -22 5 -33 1 -57 -22 l-29 -28 -25 24 c-14 13
-28 20 -32 16 -4 -4 48 -62 115 -128 110 -111 154 -144 120 -89 -11 18 -9 24
16 50 25 26 28 34 19 53 -10 21 -1 33 100 135 l112 113 82 -82 81 -81 108 11
c62 6 112 16 120 24 17 18 38 212 25 235 -5 10 -41 49 -80 87 l-70 69 25 29
c29 36 30 48 3 82 -25 32 -57 33 -93 5 l-28 -22 -61 59 c-33 33 -69 69 -79 80
-23 28 -64 28 -83 1z m333 -134 c11 -20 1 -53 -20 -71 -12 -9 -20 -6 -43 18
-28 29 -28 30 -10 50 22 25 61 26 73 3z m-331 -315 c13 -12 23 -26 23 -32 0
-6 -49 -60 -108 -119 l-108 -107 -29 30 -29 30 109 110 c60 61 112 110 114
110 3 0 15 -10 28 -22z m-234 -246 c61 -62 65 -78 23 -106 -22 -14 -26 -12
-85 48 -33 34 -61 65 -61 70 0 10 42 45 55 46 6 0 37 -26 68 -58z"/>
<path d="M560 4375 c-18 -19 -31 -38 -27 -41 7 -7 77 55 77 69 0 15 -17 6 -50
-28z"/>
<path d="M2158 4357 c-40 -10 -51 -27 -18 -27 11 0 20 -2 20 -5 0 -10 -68
-112 -78 -119 -6 -3 -29 17 -53 45 l-43 52 -32 -37 c-31 -36 -31 -36 -113 -36
-47 0 -81 -4 -81 -10 0 -6 37 -10 90 -10 84 0 90 1 106 25 9 14 22 25 28 25 6
0 29 -20 49 -45 21 -25 42 -45 46 -45 5 0 30 34 57 75 51 78 64 89 64 55 0
-11 5 -20 11 -20 13 0 6 68 -8 80 -4 4 -25 3 -45 -3z"/>
<path d="M5778 4358 c-44 -11 -49 -25 -13 -30 l25 -3 -41 -60 c-22 -33 -42
-62 -45 -64 -2 -3 -26 19 -52 49 l-47 53 -28 -37 -28 -36 -85 0 c-49 0 -84 -4
-84 -10 0 -6 36 -10 89 -10 84 0 91 2 109 25 11 14 25 25 30 25 6 0 28 -20 49
-45 20 -25 41 -45 45 -45 4 0 31 35 59 77 47 69 53 75 60 55 13 -34 29 -26 23
11 -11 64 -7 61 -66 45z"/>
<path d="M2378 4260 c11 -165 -104 -290 -268 -290 -103 1 -184 48 -238 138
-20 34 -28 42 -30 29 -2 -10 8 -36 22 -57 14 -22 26 -43 26 -48 0 -4 -24 -31
-53 -60 -44 -44 -58 -52 -78 -47 -21 5 -36 -6 -102 -72 -42 -43 -77 -85 -77
-95 0 -17 44 -58 62 -58 6 0 43 32 84 72 60 58 74 77 74 102 0 24 13 43 56 87
l57 57 62 -34 c55 -30 70 -34 136 -34 180 1 303 138 284 317 -9 86 -24 80 -17
-7z m-610 -362 c7 -7 12 -19 12 -27 0 -15 -128 -151 -142 -151 -10 0 -38 30
-38 41 0 11 138 149 149 149 4 0 12 -5 19 -12z"/>
<path d="M4687 4323 c-4 -6 -4 -18 -1 -27 12 -31 -7 -87 -43 -127 -20 -22 -33
-43 -29 -47 13 -12 74 64 87 107 12 42 1 119 -14 94z"/>
<path d="M502 4295 c-19 -42 -15 -133 8 -181 l21 -42 -21 -34 c-39 -64 -18
-159 45 -198 38 -24 113 -27 153 -6 36 19 76 62 64 70 -5 3 -18 -4 -28 -15
-84 -92 -234 -47 -234 71 0 66 63 140 119 140 12 0 21 5 21 10 0 15 -41 12
-73 -5 -26 -13 -28 -13 -45 13 -18 28 -24 138 -9 180 11 31 -7 28 -21 -3z"/>
<path d="M6508 4266 c-12 -17 -33 -26 -83 -34 -116 -19 -124 -49 -36 -136 32
-32 61 -54 64 -49 3 5 -18 34 -48 63 -30 30 -55 60 -55 67 0 17 30 29 95 37
63 9 72 14 80 49 9 33 5 34 -17 3z"/>
<path d="M2960 4155 c-29 -30 -51 -58 -47 -62 8 -7 117 95 117 109 0 18 -18 5
-70 -47z"/>
<path d="M6592 4159 c-57 -56 -69 -82 -23 -50 30 22 86 90 79 97 -3 2 -28 -19
-56 -47z"/>
<path d="M1373 4130 c0 -22 5 -27 27 -27 22 0 27 5 27 27 0 22 -5 27 -27 27
-22 0 -27 -5 -27 -27z"/>
<path d="M3012 4107 c-29 -29 -49 -56 -46 -60 4 -4 16 0 26 10 17 15 20 15 43
-7 21 -20 30 -22 52 -14 16 5 32 21 37 37 8 23 6 31 -19 57 -16 16 -31 30 -35
30 -3 0 -29 -24 -58 -53z m83 3 c18 -20 18 -21 -3 -43 l-22 -21 -22 21 c-21
22 -21 23 -3 43 10 11 21 20 25 20 4 0 15 -9 25 -20z"/>
<path d="M4999 4147 c6 -6 7 -16 1 -27 -7 -13 -3 -16 24 -16 29 0 33 3 32 27
-1 24 -5 27 -34 27 -24 0 -31 -3 -23 -11z"/>
<path d="M6638 4108 c-51 -55 -62 -80 -26 -56 21 14 25 13 51 -6 26 -19 30
-19 55 -5 36 20 41 63 11 95 -12 13 -27 24 -33 24 -6 0 -32 -24 -58 -52z m80
10 c35 -35 -10 -81 -49 -50 l-22 19 23 21 c27 25 32 26 48 10z"/>
<path d="M890 4133 c0 -4 10 -17 22 -30 l22 -23 -54 -55 c-30 -30 -59 -55 -64
-55 -5 0 -18 7 -28 17 -10 9 -21 13 -25 10 -8 -9 250 -267 267 -267 10 0 9 5
-3 18 -16 17 -13 22 43 77 58 58 60 58 80 40 15 -14 20 -15 20 -4 0 14 -259
279 -273 279 -4 0 -7 -3 -7 -7z m85 -93 c17 -19 16 -21 -37 -76 -39 -41 -60
-55 -72 -51 -36 14 -30 38 25 93 29 30 56 54 60 54 3 0 14 -9 24 -20z m60 -60
c19 -21 18 -22 -37 -77 -38 -38 -61 -54 -72 -50 -36 14 -29 38 25 93 29 30 56
54 60 54 3 0 14 -9 24 -20z m60 -60 c19 -21 18 -22 -37 -77 -38 -38 -61 -54
-72 -50 -36 14 -29 38 25 93 29 30 56 54 60 54 3 0 14 -9 24 -20z"/>
<path d="M4520 4131 c0 -8 8 -23 17 -33 16 -18 14 -21 -40 -75 -54 -54 -57
-56 -75 -40 -10 9 -25 17 -33 17 -7 0 49 -63 125 -139 77 -77 144 -137 148
-134 5 3 1 14 -8 24 -17 19 -16 22 39 76 54 55 57 56 76 39 10 -9 21 -13 24
-8 3 4 -57 71 -134 148 -76 76 -139 132 -139 125z m75 -91 c19 -21 18 -22 -38
-78 l-57 -57 -21 22 -22 21 53 56 c29 31 56 56 60 56 4 0 15 -9 25 -20z m60
-60 c19 -21 18 -22 -38 -78 l-57 -57 -22 23 -22 22 54 55 c30 30 57 55 61 55
3 0 14 -9 24 -20z m60 -60 c19 -21 18 -22 -38 -78 l-57 -57 -22 23 -22 22 54
55 c30 30 57 55 61 55 3 0 14 -9 24 -20z"/>
<path d="M2518 4068 c-24 -20 -28 -44 -12 -67 17 -23 53 -28 72 -9 18 18 15
53 -6 71 -22 20 -33 21 -54 5z m50 -42 c-2 -13 -10 -21 -23 -21 -23 0 -33 34
-14 45 20 13 40 -1 37 -24z"/>
<path d="M3653 4050 c0 -22 5 -27 27 -27 22 0 27 5 27 27 0 22 -5 27 -27 27
-22 0 -27 -5 -27 -27z"/>
<path d="M6135 4066 c-27 -19 -10 -80 24 -84 24 -4 61 23 61 43 0 36 -55 63
-85 41z m55 -22 c11 -12 10 -18 -3 -31 -8 -9 -23 -13 -31 -10 -19 8 -21 43 -3
50 20 9 24 8 37 -9z"/>
<path d="M3120 4014 c-44 -40 -51 -71 -22 -97 28 -26 53 -20 95 19 43 41 46
62 14 92 -31 29 -40 28 -87 -14z m75 -4 c18 -20 18 -21 -6 -47 -40 -45 -52
-52 -71 -42 -27 14 -22 39 14 76 38 39 39 39 63 13z"/>
<path d="M6740 4009 c-44 -46 -49 -68 -22 -92 30 -28 66 -21 101 18 36 41 39
67 11 95 -29 29 -45 25 -90 -21z m90 -18 c0 -11 -16 -33 -36 -51 -34 -30 -37
-30 -55 -14 -26 23 -24 31 16 71 29 29 37 33 55 23 11 -6 20 -19 20 -29z"/>
<path d="M3815 3714 c-58 -14 -65 -19 -200 -154 -76 -77 -136 -143 -132 -147
4 -4 66 51 137 122 71 71 133 131 137 132 13 5 168 -155 160 -164 -4 -4 -65
-65 -134 -135 -70 -70 -124 -131 -120 -135 4 -4 71 56 148 132 153 154 169
181 169 292 0 48 -3 54 -26 63 -33 13 -65 11 -139 -6z m134 -13 c11 -7 12 -24
7 -78 -4 -37 -11 -72 -17 -78 -6 -6 -35 16 -81 62 -40 40 -69 75 -66 79 20 19
133 30 157 15z"/>
<path d="M3645 3690 c-11 -4 -56 -45 -100 -89 l-80 -81 -55 0 c-113 0 -162
-56 -101 -114 39 -37 54 -26 18 12 -15 16 -27 33 -27 40 0 21 58 42 117 42
l58 0 85 85 c51 51 95 87 112 90 15 4 28 11 28 16 0 11 -28 11 -55 -1z"/>
<path d="M7170 3605 l-85 -85 -56 0 c-60 0 -121 -30 -127 -62 -4 -20 56 -90
70 -82 5 4 -5 22 -24 41 l-33 34 29 26 c25 21 37 24 88 21 l58 -3 86 86 c48
48 85 92 83 98 -2 6 -42 -27 -89 -74z"/>
<path d="M7182 3499 c-39 -39 -72 -76 -72 -82 0 -13 33 14 98 82 79 82 58 82
-26 0z"/>
<path d="M3674 3525 c-29 -30 -31 -64 -3 -99 25 -32 66 -34 103 -5 21 17 26
27 22 56 -4 43 -25 64 -66 69 -23 3 -38 -3 -56 -21z m88 -12 c23 -21 23 -55
-1 -77 -26 -24 -62 -17 -80 15 -13 24 -13 29 2 53 20 30 52 34 79 9z"/>
<path d="M882 3468 c-6 -6 -12 -24 -12 -38 0 -14 -5 -31 -12 -38 -17 -17 -63
-15 -78 3 -21 25 -52 17 -97 -27 -45 -44 -54 -76 -28 -98 18 -15 20 -61 3 -78
-7 -7 -24 -12 -39 -12 -41 0 -50 -20 -47 -101 l3 -73 32 -7 c18 -3 40 -12 48
-19 19 -16 19 -54 0 -70 -25 -21 -18 -63 15 -95 38 -36 53 -24 17 13 -30 32
-34 54 -12 72 16 13 20 67 7 86 -11 16 -48 34 -72 34 -19 0 -21 5 -18 68 3 66
3 67 33 70 62 7 84 63 48 123 -17 29 -17 29 22 69 42 43 56 48 75 25 17 -21
83 -19 103 3 8 9 17 31 19 47 3 30 4 30 69 33 l66 3 7 -40 c4 -25 14 -44 25
-51 29 -15 77 -12 91 5 19 23 31 19 78 -25 l44 -39 -21 -34 c-12 -19 -21 -43
-21 -53 0 -33 29 -64 59 -64 41 0 53 -20 49 -81 -3 -52 -4 -53 -38 -60 -65
-14 -89 -73 -49 -124 l22 -27 -46 -45 -45 -46 -27 22 c-51 40 -110 16 -124
-49 -7 -35 -7 -35 -69 -38 -60 -3 -62 -2 -68 25 -12 54 -15 61 -31 67 -24 9
-28 -1 -10 -22 10 -10 17 -30 17 -43 0 -39 18 -49 91 -49 73 0 85 8 91 55 2
19 12 34 30 44 25 14 29 14 57 -7 17 -12 37 -22 44 -22 18 0 107 94 107 113 0
8 -9 22 -20 32 -39 35 -11 95 45 95 34 0 45 20 45 86 0 71 -15 94 -59 94 -15
0 -32 5 -39 12 -16 16 -15 53 3 68 33 28 29 51 -21 101 -50 51 -82 61 -104 33
-8 -9 -25 -14 -44 -12 -24 2 -32 9 -39 33 -18 58 -20 60 -93 63 -45 2 -74 -2
-82 -10z"/>
<path d="M1497 3474 c-11 -12 -8 -59 5 -72 7 -7 25 -12 40 -12 21 0 29 6 34
24 11 44 2 61 -36 64 -20 2 -39 0 -43 -4z m63 -40 c0 -21 -4 -25 -22 -22 -15
2 -24 11 -26 26 -3 18 1 22 22 22 21 0 26 -5 26 -26z"/>
<path d="M4507 3474 c-4 -4 -7 -19 -7 -34 0 -50 -70 -81 -100 -45 -20 24 -47
18 -90 -21 -51 -46 -58 -74 -31 -111 26 -36 19 -71 -18 -79 -68 -14 -71 -18
-70 -91 1 -74 10 -93 43 -93 52 0 78 -59 42 -99 -9 -9 -16 -24 -16 -32 0 -18
91 -109 108 -109 7 0 26 10 42 22 25 18 34 20 54 10 15 -7 28 -23 31 -39 12
-53 18 -58 91 -61 76 -3 94 8 94 60 0 37 31 54 71 37 39 -15 48 -5 15 16 -18
12 -35 15 -53 10 -41 -10 -52 -23 -59 -67 l-7 -39 -60 3 c-60 3 -61 3 -69 38
-17 67 -72 89 -123 49 l-27 -22 -45 45 -44 45 21 35 c35 60 4 118 -63 118
l-28 0 3 67 3 68 39 6 c60 10 83 62 47 109 -11 16 -21 33 -21 38 0 4 18 26 40
47 40 39 40 39 69 22 36 -21 85 -22 105 -2 8 9 18 31 22 50 l6 35 62 0 62 0
12 -45 c9 -36 17 -46 39 -52 36 -9 64 -5 84 13 8 8 20 14 25 14 12 0 84 -72
84 -84 0 -4 -9 -19 -20 -33 -11 -14 -20 -33 -20 -43 0 -31 38 -69 73 -72 l32
-3 3 -65 3 -66 -43 -9 c-54 -13 -77 -50 -58 -96 7 -16 18 -29 26 -29 10 0 10
5 -1 26 -22 44 4 84 56 84 33 0 39 14 39 94 0 69 -10 86 -52 86 -19 0 -33 8
-44 26 -16 24 -16 26 5 54 30 42 27 60 -22 108 -45 44 -76 52 -97 26 -16 -19
-70 -15 -80 6 -4 8 -12 29 -17 45 -8 30 -10 30 -84 33 -41 1 -78 0 -82 -4z"/>
<path d="M5120 3459 c-19 -34 2 -69 40 -69 36 0 61 40 43 68 -16 27 -69 28
-83 1z m65 -24 c0 -23 -34 -33 -45 -14 -13 20 1 40 24 37 13 -2 21 -10 21 -23z"/>
<path d="M3930 3432 c0 -23 -22 -72 -33 -72 -5 0 -39 -32 -78 -71 l-69 -70 0
-62 c0 -62 -18 -107 -43 -107 -6 0 -23 12 -39 27 -37 36 -49 21 -13 -17 60
-63 115 -19 115 91 l0 64 85 85 c59 60 86 95 91 118 4 21 3 32 -5 32 -6 0 -11
-8 -11 -18z"/>
<path d="M1975 3377 c-61 -59 -72 -97 -34 -117 11 -6 28 -25 39 -42 35 -57 -8
-128 -77 -128 -28 0 -43 8 -69 35 -18 19 -42 35 -54 35 -13 0 -44 -22 -76 -54
-71 -70 -73 -98 -9 -159 25 -24 45 -47 45 -51 0 -5 -13 -24 -30 -42 -37 -43
-46 -76 -30 -115 19 -45 56 -69 107 -69 37 0 50 6 81 36 l37 35 35 -39 c37
-43 67 -62 97 -62 24 0 133 110 133 134 0 10 -16 33 -35 50 -19 17 -35 38 -36
46 -7 65 28 110 87 110 29 0 43 -7 68 -35 18 -19 41 -35 51 -35 11 0 45 26 77
57 76 75 77 96 7 162 l-51 49 27 24 c88 74 49 198 -61 198 -36 0 -51 -6 -83
-35 l-39 -36 -28 36 c-30 39 -71 65 -104 65 -11 0 -45 -24 -75 -53z m148 -12
c24 -25 53 -45 63 -45 11 0 33 14 49 30 58 61 155 26 155 -55 0 -28 -8 -44
-35 -72 -19 -20 -35 -41 -35 -47 0 -5 23 -32 50 -58 28 -26 50 -55 50 -65 0
-17 -97 -123 -113 -123 -5 0 -23 16 -41 35 -29 30 -40 35 -78 35 -55 0 -92
-26 -108 -74 -14 -42 4 -92 44 -123 14 -12 26 -25 26 -29 0 -16 -105 -114
-122 -114 -9 0 -40 22 -67 50 -55 55 -67 56 -113 8 -34 -36 -85 -38 -124 -4
-42 35 -38 83 9 135 20 23 37 44 37 47 0 3 -22 27 -50 55 -27 27 -50 59 -50
70 0 23 86 119 107 119 8 0 29 -16 47 -35 29 -30 40 -35 80 -35 36 0 52 6 71
24 48 48 45 127 -5 170 -17 13 -30 31 -30 39 0 21 96 107 120 107 11 0 40 -20
63 -45z"/>
<path d="M5599 3373 c-32 -31 -59 -64 -59 -74 0 -10 13 -28 30 -40 79 -59 48
-169 -48 -169 -26 0 -42 8 -66 35 -18 19 -42 35 -53 35 -22 0 -133 -110 -133
-132 0 -22 37 -75 69 -99 36 -26 39 -44 11 -59 -25 -13 -50 -61 -50 -95 0 -62
47 -105 115 -105 26 0 45 9 75 36 l40 36 48 -51 c64 -68 86 -68 158 0 62 60
71 97 30 124 -77 51 -46 165 45 165 34 0 46 -6 72 -35 43 -48 65 -45 126 19
68 73 69 102 6 163 -25 23 -45 47 -45 51 0 5 9 17 21 28 25 23 49 66 49 89 0
31 -31 82 -56 94 -14 6 -43 11 -65 11 -32 0 -46 -7 -75 -35 l-35 -35 -49 50
c-65 67 -84 66 -161 -7z m148 -8 c50 -53 75 -56 113 -15 50 54 133 35 154 -36
9 -28 -8 -69 -39 -96 -36 -31 -31 -52 20 -101 58 -57 58 -78 -2 -139 -26 -26
-52 -48 -58 -48 -6 0 -25 16 -44 35 -28 30 -39 35 -79 35 -67 -1 -112 -42
-112 -105 0 -35 16 -65 54 -96 l31 -27 -56 -56 c-31 -31 -64 -56 -74 -56 -10
0 -37 19 -60 43 -55 58 -70 63 -101 32 -50 -50 -104 -60 -142 -25 -44 41 -40
90 9 141 16 16 29 36 29 44 0 8 -20 33 -45 56 -66 62 -66 72 -4 135 29 30 58
54 63 54 5 0 24 -16 42 -35 27 -30 38 -35 76 -35 50 0 82 18 104 62 22 43 11
89 -33 132 l-37 36 54 55 c30 30 63 55 74 55 11 0 39 -20 63 -45z"/>
<path d="M3382 3338 c-23 -18 -42 -37 -42 -43 0 -6 46 -57 103 -113 l103 -102
26 27 c14 16 31 38 37 50 14 27 15 83 1 83 -5 0 -10 -12 -10 -28 0 -29 -30
-94 -46 -99 -5 -2 -51 39 -102 90 l-93 93 25 23 c13 12 42 25 65 28 49 7 55
23 8 23 -22 0 -47 -11 -75 -32z"/>
<path d="M7040 3363 c-27 -11 -80 -55 -80 -67 0 -6 48 -59 106 -116 l105 -105
30 35 c35 41 57 106 42 121 -7 7 -12 -2 -16 -28 -4 -21 -18 -51 -31 -68 l-25
-30 -90 90 c-50 49 -91 95 -91 102 0 18 41 43 83 50 20 3 37 9 37 14 0 10 -46
11 -70 2z"/>
<path d="M3240 3315 c-18 -19 -30 -38 -26 -42 3 -4 26 12 49 35 26 26 36 42
26 42 -8 0 -30 -16 -49 -35z"/>
<path d="M6870 3315 c-18 -19 -30 -38 -27 -42 8 -7 77 55 77 69 0 16 -17 7
-50 -27z"/>
<path d="M865 3291 c-81 -38 -125 -111 -125 -208 0 -74 26 -130 77 -171 53
-42 83 -52 150 -52 124 0 223 96 223 217 0 70 -19 119 -66 166 -66 67 -174 87
-259 48z m201 -27 c92 -48 132 -180 82 -274 -67 -124 -241 -149 -335 -48 -39
41 -66 116 -59 160 13 80 59 142 126 173 46 20 134 15 186 -11z"/>
<path d="M850 3191 c0 -6 5 -13 10 -16 6 -3 7 -17 4 -31 -18 -69 26 -100 94
-65 49 25 65 26 82 6 30 -37 -30 -92 -79 -73 -34 12 -38 3 -7 -17 20 -13 32
-15 55 -7 23 8 32 7 45 -6 8 -9 19 -12 23 -8 4 4 0 14 -10 21 -15 11 -16 17
-8 34 16 29 13 56 -7 74 -25 22 -54 21 -103 -4 -32 -16 -44 -18 -55 -8 -37 30
4 85 55 74 19 -4 31 -3 31 4 0 15 -37 23 -69 16 -17 -3 -32 -2 -36 4 -8 14
-25 14 -25 2z"/>
<path d="M4482 3284 c-154 -77 -164 -296 -18 -393 54 -36 165 -42 222 -13 82
42 124 113 124 209 -1 174 -170 276 -328 197z m186 -9 c51 -22 81 -52 108
-110 27 -56 29 -81 13 -136 -27 -88 -109 -149 -202 -149 -172 0 -265 189 -165
333 46 65 165 95 246 62z"/>
<path d="M4470 3191 c0 -6 5 -13 10 -16 6 -4 8 -21 4 -41 -5 -26 -2 -40 11
-54 23 -25 41 -25 88 0 51 27 75 26 83 -5 10 -40 -21 -68 -68 -62 -43 6 -50
-8 -13 -25 18 -8 32 -8 49 0 18 8 27 7 39 -6 19 -18 35 -9 19 11 -7 7 -9 29
-6 49 8 45 -9 78 -40 78 -13 0 -45 -9 -70 -21 -37 -16 -50 -18 -62 -9 -20 17
-18 36 7 61 16 16 29 20 51 15 21 -4 28 -2 25 7 -2 7 -22 12 -50 12 -25 0 -49
3 -53 8 -10 10 -24 9 -24 -2z"/>
<path d="M2802 3220 c1 -8 -1 -20 -5 -26 -5 -8 4 -12 26 -12 28 0 32 3 33 28
1 24 -3 27 -28 26 -19 -1 -28 -6 -26 -16z"/>
<path d="M6423 3208 c0 -22 4 -27 18 -23 9 3 20 1 24 -5 3 -6 11 -8 16 -4 6 4
6 10 -1 19 -6 7 -8 19 -5 27 4 11 -2 15 -23 15 -25 0 -29 -4 -29 -29z"/>
<path d="M3285 3180 c-21 -22 -36 -43 -32 -47 8 -7 87 65 87 79 0 17 -17 7
-55 -32z"/>
<path d="M6910 3175 c-24 -25 -38 -45 -31 -45 14 0 91 70 91 83 0 16 -18 5
-60 -38z"/>
<path d="M3372 3137 c-34 -36 -27 -55 8 -22 17 16 30 32 30 37 0 15 -16 8 -38
-15z"/>
<path d="M6997 3132 c-28 -29 -33 -42 -18 -42 11 0 55 59 49 65 -3 3 -17 -8
-31 -23z"/>
<path d="M3396 3031 c-32 -32 -54 -61 -49 -64 5 -3 38 23 73 58 36 36 58 65
49 65 -8 0 -41 -26 -73 -59z"/>
<path d="M7023 3034 c-48 -47 -65 -74 -45 -74 9 0 122 115 122 124 0 17 -30
-2 -77 -50z"/>
<path d="M3550 3005 c-18 -19 -30 -38 -27 -42 8 -7 77 55 77 69 0 16 -17 7
-50 -27z"/>
<path d="M7182 3014 c-30 -25 -43 -54 -24 -54 8 0 34 26 61 63 20 26 -1 21
-37 -9z"/>
<path d="M221 2864 c9 -11 9 -17 0 -28 -10 -12 -6 -14 22 -13 29 1 34 4 34 27
0 23 -5 26 -34 27 -28 1 -32 -1 -22 -13z"/>
<path d="M3844 2851 c-1 -24 3 -28 28 -28 21 0 28 5 26 16 -1 9 1 21 5 28 5 7
-4 11 -26 11 -28 0 -32 -3 -33 -27z"/>
<path d="M4890 2855 c-7 -9 -11 -18 -8 -20 3 -3 11 1 18 10 7 9 11 18 8 20 -3
3 -11 -1 -18 -10z"/>
<path d="M2695 2840 c-36 -18 -37 -20 -10 -14 142 26 203 12 279 -65 l49 -50
-32 -36 c-58 -66 -23 -50 55 25 l75 73 56 -55 c46 -46 53 -58 45 -74 -6 -11
-51 -59 -102 -108 l-91 -89 -54 53 c-54 53 -54 53 -64 29 -5 -14 -16 -31 -25
-38 -20 -17 -20 -40 0 -69 20 -29 45 -28 73 2 18 19 30 23 59 19 36 -5 41 -1
135 95 79 81 97 105 97 129 0 17 9 38 20 48 27 24 25 51 -5 80 -29 30 -58 32
-95 5 -16 -11 -35 -18 -43 -14 -9 3 -30 -8 -51 -26 l-36 -32 -58 54 c-86 79
-190 101 -277 58z m547 -57 c25 -22 23 -48 -6 -66 -22 -15 -25 -14 -50 12 -30
32 -33 46 -8 60 25 15 43 13 64 -6z m-292 -299 c11 -13 9 -19 -13 -41 -22 -22
-28 -24 -41 -13 -20 16 -20 29 1 52 20 22 36 23 53 2z"/>
<path d="M6336 2850 c-47 -15 -106 -61 -132 -106 -45 -76 -42 -197 7 -265 24
-33 24 -39 1 -39 -10 0 -28 -7 -40 -16 -22 -15 -25 -14 -68 26 -26 24 -50 38
-57 34 -27 -16 -47 -38 -47 -53 0 -21 290 -311 311 -311 17 0 49 40 49 62 0 6
-13 26 -30 43 l-30 31 21 42 21 43 49 -46 c53 -49 64 -53 97 -29 44 30 30 61
-74 164 -109 108 -124 132 -124 193 0 108 132 166 209 93 15 -14 34 -26 42
-26 8 0 -1 15 -23 35 -66 61 -158 57 -217 -10 -27 -31 -31 -43 -31 -91 0 -30
5 -65 11 -77 6 -12 56 -68 111 -123 102 -103 113 -125 75 -148 -15 -9 -34 6
-136 109 -98 101 -119 128 -131 168 -40 146 64 287 213 287 62 0 111 -19 166
-65 23 -20 31 -23 31 -11 0 18 -53 60 -103 81 -39 16 -124 19 -171 5z m-131
-530 c117 -117 138 -143 129 -157 -6 -9 -15 -18 -20 -20 -5 -2 -74 62 -153
141 -125 125 -143 147 -132 160 8 9 19 16 25 16 6 0 74 -63 151 -140z m88 69
c21 -26 22 -68 3 -95 -14 -18 -18 -16 -73 39 -56 56 -57 58 -38 73 27 20 85
11 108 -17z"/>
<path d="M4837 2813 c-12 -11 -8 -23 8 -23 8 0 15 7 15 15 0 16 -12 20 -23 8z"/>
<path d="M2614 2788 c-31 -35 -51 -71 -62 -111 -15 -53 2 -46 23 10 10 25 33
63 53 85 21 24 29 38 20 38 -8 0 -23 -10 -34 -22z"/>
<path d="M6850 2803 c0 -6 7 -16 15 -23 20 -16 16 -49 -7 -64 -14 -8 -23 -5
-47 18 -22 21 -28 33 -21 41 8 9 0 12 -30 12 -31 0 -47 -6 -69 -29 -25 -25
-32 -28 -50 -19 -23 13 -28 2 -9 -17 9 -9 7 -16 -8 -29 -11 -10 -41 -41 -67
-69 -44 -47 -47 -54 -37 -79 7 -20 8 -31 0 -39 -17 -17 -11 -27 10 -14 16 10
23 10 37 -4 16 -17 16 -19 -7 -43 -30 -32 -18 -46 14 -16 19 18 27 20 50 12
23 -9 31 -7 59 19 23 21 27 29 16 30 -9 0 -22 -7 -29 -15 -21 -26 -46 -17 -94
35 -25 27 -46 52 -46 55 0 16 189 195 206 195 11 0 39 -19 62 -43 41 -42 52
-70 32 -82 -5 -3 -10 -14 -10 -23 1 -13 7 -10 26 11 15 17 23 36 19 46 -3 11
3 25 15 36 27 24 25 57 -5 85 -14 13 -25 19 -25 13z"/>
<path d="M765 2789 c-4 -6 -5 -13 -2 -16 7 -7 27 6 27 18 0 12 -17 12 -25 -2z"/>
<path d="M2725 2750 c-39 -19 -72 -56 -60 -68 3 -3 12 3 20 15 18 26 75 53
112 53 22 0 25 2 13 10 -22 14 -41 12 -85 -10z"/>
<path d="M2886 2715 c20 -19 40 -32 43 -29 7 7 -55 64 -70 64 -7 0 6 -16 27
-35z"/>
<path d="M2906 2598 c-9 -12 -16 -26 -16 -31 0 -13 29 12 41 35 14 26 -6 23
-25 -4z"/>
<path d="M3745 2581 c-130 -59 -184 -215 -116 -336 l29 -52 -144 -144 -145
-144 -20 25 c-52 66 -68 170 -36 244 15 34 19 37 34 25 21 -18 63 -108 63
-136 0 -12 5 -25 10 -28 18 -11 10 58 -11 105 -19 43 -65 100 -80 100 -4 0
-17 -21 -30 -47 -97 -201 117 -452 333 -389 29 8 62 22 73 30 20 14 20 15 -5
41 -45 49 -98 69 -177 70 -40 0 -73 2 -73 5 0 3 50 55 112 117 l111 111 41
-26 c36 -24 51 -27 126 -27 78 0 89 2 130 30 159 108 140 347 -34 426 -53 24
-139 24 -191 0z m192 -26 c130 -65 164 -227 71 -339 -40 -49 -98 -75 -166 -76
-128 0 -221 91 -222 218 0 68 18 111 69 160 69 67 160 80 248 37z m-322 -649
c28 -12 56 -30 63 -39 12 -14 9 -18 -16 -31 -50 -26 -104 -30 -164 -12 -31 9
-62 23 -69 32 -13 16 -10 17 34 12 57 -7 63 9 7 18 -52 9 -59 21 -18 33 56 16
111 12 163 -13z"/>
<path d="M3925 2450 c-4 -6 -21 -8 -41 -4 -63 12 -80 -25 -44 -96 25 -49 25
-57 1 -69 -15 -8 -25 -6 -46 11 -22 17 -26 27 -23 55 3 20 0 32 -6 30 -6 -2
-11 -24 -11 -50 0 -25 -4 -49 -8 -53 -14 -14 -7 -25 10 -16 9 5 34 7 55 5 41
-6 68 8 68 36 0 9 -11 36 -24 61 -13 25 -21 51 -19 58 7 19 41 14 64 -9 16
-16 19 -27 14 -52 -6 -27 -5 -30 6 -19 8 8 14 36 15 67 0 57 -1 62 -11 45z"/>
<path d="M2702 2499 c2 -7 10 -15 17 -17 8 -3 12 1 9 9 -2 7 -10 15 -17 17 -8
3 -12 -1 -9 -9z"/>
<path d="M2580 2495 c0 -3 7 -17 16 -30 15 -23 15 -25 0 -25 -10 0 -31 -7 -48
-16 -30 -16 -31 -16 -73 26 -24 23 -48 39 -54 36 -15 -10 -14 -26 2 -26 7 0
50 -38 97 -85 47 -47 91 -85 99 -85 9 0 -6 21 -34 50 -41 42 -47 52 -35 60 28
19 61 23 87 11 37 -17 40 -6 7 32 -29 34 -64 62 -64 52z"/>
<path d="M7239 2443 c-17 -51 -15 -143 5 -179 12 -24 15 -25 16 -9 0 11 -5 36
-10 55 -8 25 -7 53 1 98 13 72 7 91 -12 35z"/>
<path d="M1052 2444 c2 -15 8 -29 14 -31 7 -2 10 6 6 22 -6 35 -24 44 -20 9z"/>
<path d="M1211 2452 c-13 -25 -14 -42 -2 -42 10 0 25 50 17 57 -2 3 -9 -4 -15
-15z"/>
<path d="M4834 2445 c-6 -23 0 -45 10 -34 10 12 15 59 6 59 -5 0 -12 -11 -16
-25z"/>
<path d="M6480 2456 c0 -8 4 -17 9 -20 5 -4 7 3 4 14 -6 23 -13 26 -13 6z"/>
<path d="M296 2451 c-3 -5 -23 -7 -44 -4 -28 4 -42 1 -51 -11 -15 -17 -11 -35
20 -114 12 -28 12 -34 -1 -42 -21 -14 -24 -13 -55 15 -23 23 -26 31 -20 62 6
34 5 36 -10 23 -13 -11 -16 -24 -11 -57 3 -24 1 -45 -4 -48 -6 -4 -8 -11 -4
-16 4 -6 11 -6 20 2 9 7 23 8 41 2 66 -22 86 14 53 96 -11 29 -18 57 -15 62
20 32 89 -20 75 -56 -12 -27 -12 -35 0 -35 16 0 32 40 22 53 -10 12 -9 30 3
60 7 17 -9 25 -19 8z"/>
<path d="M4675 2447 c-4 -10 -3 -23 4 -30 16 -16 23 -3 12 24 -8 22 -10 22
-16 6z"/>
<path d="M2375 2441 c-3 -5 12 -29 33 -53 63 -71 267 -268 278 -268 13 0 54
43 54 55 0 5 -14 24 -31 41 l-32 33 19 45 19 45 35 -33 c49 -47 74 -58 103
-47 31 12 42 43 26 73 -17 35 -71 88 -88 88 -9 0 4 -19 32 -48 51 -52 58 -75
27 -92 -25 -13 -43 -4 -89 44 -19 20 -38 36 -41 36 -4 0 -16 -18 -29 -40 -12
-22 -29 -40 -37 -40 -24 0 -15 -23 26 -65 40 -41 40 -42 21 -59 -20 -18 -23
-15 -161 125 -77 79 -140 149 -140 156 0 15 -16 17 -25 4z"/>
<path d="M1723 2380 c0 -22 5 -27 27 -27 22 0 27 5 27 27 0 22 -5 27 -27 27
-22 0 -27 -5 -27 -27z"/>
<path d="M5344 2381 c-1 -24 3 -27 32 -27 27 0 31 3 24 16 -6 11 -5 21 1 27 8
8 1 11 -22 11 -30 0 -34 -3 -35 -27z"/>
<path d="M906 2382 c-3 -5 5 -19 18 -31 13 -13 26 -18 30 -13 3 5 -5 19 -18
31 -13 13 -26 18 -30 13z"/>
<path d="M1351 2366 c-14 -14 -22 -28 -19 -31 9 -9 51 31 47 44 -3 8 -13 3
-28 -13z"/>
<path d="M4530 2383 c0 -18 38 -59 46 -50 4 4 -4 20 -19 35 -15 14 -27 22 -27
15z"/>
<path d="M4970 2365 c-32 -34 -16 -46 16 -13 14 14 22 28 16 31 -5 4 -20 -5
-32 -18z"/>
<path d="M1085 2371 c-106 -27 -153 -88 -195 -254 -9 -32 -28 -65 -57 -97 -32
-36 -43 -55 -38 -69 3 -11 1 -22 -5 -26 -5 -3 -10 -24 -10 -46 0 -67 69 -116
126 -90 14 6 36 11 49 11 15 0 44 18 74 44 39 35 63 47 108 56 158 33 233 112
233 245 0 71 -15 111 -59 158 -52 57 -153 87 -226 68z m118 -22 c47 -13 115
-72 134 -116 16 -39 17 -131 2 -170 -12 -34 -64 -90 -101 -109 -15 -8 -51 -19
-80 -25 -67 -15 -115 -39 -152 -78 -17 -17 -36 -31 -44 -31 -7 0 -43 28 -78
62 -67 64 -77 90 -42 112 15 9 28 1 78 -49 34 -34 60 -53 60 -44 0 8 -5 20
-12 27 -9 9 -4 20 22 47 29 30 40 35 82 35 59 0 64 18 6 22 l-43 3 -3 48 c-4
63 -22 60 -22 -4 0 -43 -5 -56 -32 -85 -18 -19 -38 -34 -44 -34 -6 0 -24 16
-39 36 -25 32 -26 37 -11 53 9 9 24 52 35 94 22 88 49 137 96 173 56 42 117
53 188 33z m-317 -496 c18 -23 23 -38 16 -45 -15 -15 -70 1 -87 25 -15 22 -20
68 -9 80 10 9 50 -21 80 -60z"/>
<path d="M4691 2365 c-46 -14 -113 -72 -135 -115 -7 -14 -21 -58 -31 -97 -13
-57 -26 -83 -57 -118 -41 -47 -60 -97 -61 -164 0 -26 7 -41 33 -64 28 -25 38
-28 69 -22 20 4 50 9 66 12 17 3 51 25 77 48 40 36 61 46 122 59 92 21 157 63
193 124 23 39 27 58 27 117 0 120 -63 200 -175 224 -62 14 -73 13 -128 -4z
m171 -31 c46 -23 67 -43 88 -84 46 -90 33 -184 -34 -254 -36 -37 -54 -46 -127
-65 -90 -25 -130 -45 -168 -85 -14 -14 -29 -26 -35 -26 -13 0 -146 131 -146
144 0 5 8 18 17 28 16 18 19 16 80 -44 36 -35 63 -56 63 -47 0 8 -5 20 -12 27
-9 9 -4 20 22 47 30 31 39 35 87 35 29 0 53 5 53 10 0 6 -20 10 -45 10 l-45 0
0 50 c0 28 -4 50 -10 50 -5 0 -10 -22 -10 -48 0 -43 -4 -52 -40 -87 l-40 -39
-34 33 -34 33 18 32 c10 17 28 64 39 105 30 109 77 166 157 191 39 13 116 5
156 -16z m-332 -524 c-26 -17 -51 -11 -81 19 -31 31 -37 59 -17 79 10 10 23 2
63 -38 41 -41 47 -52 35 -60z"/>
<path d="M1417 2233 c-15 -14 -6 -24 16 -18 35 11 44 25 16 25 -14 0 -29 -3
-32 -7z"/>
<path d="M5043 2233 c-23 -9 -14 -25 10 -18 31 10 45 25 22 24 -11 0 -26 -3
-32 -6z"/>
<path d="M6939 2218 c-29 -47 -39 -80 -39 -137 0 -163 191 -324 338 -285 41
11 22 20 -41 20 -62 -1 -147 26 -147 46 0 5 18 8 40 7 52 -4 62 8 14 16 -66
11 -72 16 -34 30 45 17 105 18 153 1 29 -11 37 -11 37 -1 0 19 -83 38 -140 33
-59 -6 -62 -11 58 108 45 45 82 88 82 95 0 7 -58 -45 -130 -116 -127 -125
-130 -128 -150 -110 -34 31 -60 98 -60 153 0 52 19 114 37 125 16 10 56 -54
74 -118 11 -41 19 -55 24 -44 10 26 -12 92 -48 145 -38 57 -50 62 -68 32z"/>
<path d="M810 2225 c0 -3 12 -10 26 -15 29 -11 54 -3 33 11 -15 9 -59 12 -59
4z"/>
<path d="M4454 2215 c22 -17 46 -20 46 -6 0 10 -25 21 -48 21 -15 -1 -14 -3 2
-15z"/>
<path d="M2140 2210 c-36 -23 -480 -476 -480 -490 0 -9 22 -37 48 -63 45 -45
51 -47 103 -47 54 0 55 1 119 65 56 57 68 65 95 61 26 -4 36 2 79 50 41 45 47
56 36 69 -11 13 -2 26 59 89 69 71 71 76 71 123 0 48 -3 53 -54 102 -61 57
-56 54 -76 41z m68 -63 c35 -35 42 -50 42 -81 0 -34 -8 -47 -70 -110 -55 -57
-72 -68 -82 -58 -18 18 -20 17 -77 -38 -45 -43 -52 -55 -46 -77 5 -23 -2 -35
-57 -90 -59 -59 -65 -63 -109 -63 -41 0 -51 5 -88 42 -23 22 -40 45 -39 50 5
15 463 468 473 468 6 0 30 -19 53 -43z m-104 -286 c22 -24 12 -47 -37 -84 -34
-26 -42 -25 -66 6 -13 16 -10 22 24 57 44 45 55 48 79 21z"/>
<path d="M5528 1983 c-186 -186 -238 -244 -238 -263 0 -17 15 -40 43 -68 40
-39 47 -42 97 -42 52 0 55 1 121 65 59 57 71 65 94 59 23 -6 34 1 76 42 43 42
48 52 44 79 -5 27 1 37 59 95 65 64 66 65 66 119 0 51 -2 56 -49 102 -26 27
-54 49 -62 49 -7 0 -120 -107 -251 -237z m304 170 c33 -32 38 -43 38 -82 0
-43 -4 -50 -66 -112 -58 -59 -69 -66 -85 -56 -16 10 -27 4 -76 -46 -50 -49
-56 -59 -46 -76 10 -16 3 -27 -54 -85 -63 -63 -68 -66 -113 -66 -44 0 -51 4
-90 46 -23 25 -39 49 -36 52 93 100 465 462 476 462 8 0 31 -17 52 -37z m-98
-295 c15 -22 14 -25 -29 -67 -43 -44 -44 -45 -65 -26 -27 25 -26 33 17 77 43
44 56 47 77 16z"/>
<path d="M1804 2079 c-46 -45 -84 -90 -84 -99 0 -20 40 -60 60 -60 8 0 2 12
-15 30 l-29 30 74 75 c41 41 79 75 84 75 5 0 20 -10 33 -22 28 -27 43 -16 17
13 -43 48 -49 46 -140 -42z"/>
<path d="M5420 2065 l-85 -85 32 -32 c18 -18 36 -28 40 -24 4 5 -2 15 -14 23
-13 9 -23 21 -23 27 0 6 34 45 75 86 l74 74 26 -24 c14 -13 28 -20 32 -17 9
10 -37 57 -56 57 -9 0 -54 -38 -101 -85z"/>
<path d="M2926 2087 c-28 -20 -18 -69 16 -81 51 -18 89 42 50 77 -22 20 -42
21 -66 4z m54 -22 c10 -12 10 -18 0 -30 -25 -30 -61 -7 -46 30 3 8 12 15 19
15 8 0 20 -7 27 -15z"/>
<path d="M6544 2075 c-15 -23 -15 -27 0 -50 19 -29 47 -32 70 -9 31 30 9 84
-34 84 -11 0 -27 -11 -36 -25z m64 -21 c4 -27 -26 -40 -46 -20 -13 13 -13 18
-2 31 18 21 44 15 48 -11z"/>
<path d="M1415 2070 c3 -5 18 -10 33 -10 21 0 24 2 12 10 -20 13 -53 13 -45 0z"/>
<path d="M5035 2070 c3 -5 17 -10 31 -10 14 0 22 4 19 10 -3 6 -17 10 -31 10
-14 0 -22 -4 -19 -10z"/>
<path d="M2310 2053 c0 -4 37 -45 82 -90 l82 -83 -234 -235 c-129 -129 -239
-235 -245 -235 -6 0 -44 34 -85 75 -41 41 -81 75 -90 75 -8 0 23 -38 70 -85
48 -49 93 -85 104 -85 12 0 109 89 253 232 183 182 233 238 233 258 0 19 -21
46 -78 103 -73 73 -92 87 -92 70z"/>
<path d="M6008 1977 c45 -45 82 -87 82 -92 0 -13 -462 -475 -475 -475 -5 0
-44 35 -87 77 -43 42 -81 74 -85 70 -11 -12 149 -167 172 -167 26 0 495 467
495 493 0 21 -152 177 -172 177 -7 0 24 -37 70 -83z"/>
<path d="M1330 1952 c0 -14 39 -46 47 -39 3 4 -2 16 -12 27 -19 21 -35 26 -35
12z"/>
<path d="M4950 1952 c0 -13 35 -42 50 -42 9 0 5 9 -10 25 -24 25 -40 32 -40
17z"/>
<path d="M453 1920 c0 -22 5 -27 27 -27 22 0 27 5 28 27 0 23 -4 27 -27 27
-23 0 -28 -5 -28 -27z"/>
<path d="M4080 1931 c6 -12 5 -22 -2 -29 -7 -7 0 -10 23 -9 29 1 34 4 35 27 1
23 -3 26 -32 27 -29 1 -32 -1 -24 -16z"/>
<path d="M1210 1868 c0 -24 11 -48 22 -48 5 0 6 10 3 23 -10 30 -25 46 -25 25z"/>
<path d="M4835 1853 c8 -32 13 -39 21 -30 10 9 -5 57 -17 57 -7 0 -9 -10 -4
-27z"/>
<path d="M2786 1775 c-93 -38 -162 -116 -181 -202 -10 -47 12 -42 24 5 41 152
223 244 361 181 70 -32 104 -62 133 -122 52 -108 30 -225 -60 -315 -54 -54
-60 -62 -45 -62 21 0 95 77 120 124 23 44 27 63 27 136 0 75 -3 91 -29 138
-35 62 -91 107 -160 127 -70 21 -122 18 -190 -10z"/>
<path d="M6423 1781 c-92 -32 -154 -94 -188 -190 -18 -51 -18 -51 -6 -51 5 0
17 22 26 49 48 144 230 231 361 172 99 -45 157 -131 158 -235 1 -86 -24 -144
-89 -205 -29 -28 -49 -53 -44 -56 15 -10 106 83 130 133 17 36 23 65 23 122 0
64 -4 83 -29 128 -37 68 -79 105 -150 131 -68 25 -123 26 -192 2z"/>
<path d="M1372 1704 c-41 -29 -23 -84 28 -84 50 0 66 44 30 80 -24 24 -29 24
-58 4z m56 -42 c-4 -22 -46 -28 -54 -8 -4 9 -1 23 6 31 16 19 53 1 48 -23z"/>
<path d="M4990 1698 c-24 -26 -24 -28 -4 -56 17 -24 53 -29 72 -10 17 17 15
54 -4 72 -21 22 -39 20 -64 -6z m60 -29 c0 -26 -28 -36 -46 -17 -14 13 -14 17
1 31 19 20 45 12 45 -14z"/>
<path d="M2821 1638 c-44 -23 -87 -81 -74 -101 3 -6 14 6 24 25 46 90 168 99
219 16 25 -42 25 -84 0 -126 -23 -37 -24 -42 -10 -42 19 0 50 65 50 105 0 109
-111 174 -209 123z"/>
<path d="M3618 1422 c-160 -160 -238 -244 -238 -259 0 -25 374 -403 399 -403
20 0 501 480 501 500 0 19 -43 70 -60 70 -6 0 0 -14 14 -31 14 -17 26 -34 26
-38 0 -8 -466 -475 -479 -479 -12 -4 -381 364 -381 380 0 13 435 454 463 470
15 8 27 3 58 -22 46 -37 51 -28 10 18 -17 18 -40 32 -53 32 -16 0 -89 -66
-260 -238z"/>
<path d="M6464 1649 c-39 -11 -94 -72 -93 -102 0 -21 1 -21 12 -3 32 50 62 77
97 86 64 17 128 -20 151 -87 10 -30 8 -40 -14 -84 -19 -35 -22 -49 -13 -49 24
0 49 68 44 122 -6 55 -33 92 -85 114 -36 16 -54 16 -99 3z"/>
<path d="M3423 1608 c-25 -12 -36 -44 -22 -70 12 -22 61 -24 79 -4 30 37 -14
94 -57 74z m42 -43 c0 -13 -8 -21 -22 -23 -19 -3 -23 1 -23 23 0 22 4 26 23
23 14 -2 22 -10 22 -23z"/>
<path d="M7042 1604 c-24 -17 -29 -53 -10 -72 19 -19 66 -15 78 7 14 28 13 38
-10 61 -24 24 -29 24 -58 4z m51 -26 c7 -21 -4 -38 -23 -38 -23 0 -34 16 -26
35 7 18 43 20 49 3z"/>
<path d="M371 1564 c-17 -14 -31 -31 -31 -38 0 -18 163 -176 182 -176 28 0 60
50 53 82 -4 17 -2 35 6 44 10 13 4 23 -36 64 -49 50 -72 59 -92 39 -8 -8 -17
-8 -31 0 -17 9 -26 6 -51 -15z m91 -7 c17 16 21 14 58 -22 41 -40 49 -60 28
-68 -10 -3 -10 -10 1 -31 14 -24 13 -28 -7 -49 l-22 -22 -82 82 -82 82 24 19
c22 17 27 18 44 6 17 -12 22 -11 38 3z"/>
<path d="M4085 1581 c-3 -5 -21 -7 -40 -4 -39 6 -75 -16 -75 -46 0 -9 38 -54
84 -100 65 -64 88 -82 103 -77 27 9 47 49 39 80 -3 13 -2 28 4 31 21 13 8 44
-35 84 -44 40 -68 50 -80 32z m70 -51 c38 -39 38 -40 20 -60 -14 -16 -15 -23
-6 -34 15 -18 6 -52 -16 -60 -18 -7 -167 138 -161 156 8 24 37 33 59 20 18
-12 24 -11 37 2 22 22 23 21 67 -24z"/>
<path d="M2750 1445 c-47 -47 -88 -85 -92 -85 -4 0 -3 12 3 27 5 15 8 37 4 50
-7 28 -51 42 -69 22 -23 -25 -66 -147 -80 -229 -7 -44 -19 -87 -26 -95 -7 -9
-10 -19 -6 -23 12 -12 46 38 46 68 0 63 67 270 87 270 4 0 15 -4 23 -10 12 -7
11 -18 -9 -75 -13 -36 -21 -69 -17 -72 4 -4 58 44 120 106 80 80 119 112 130
108 28 -11 17 -31 -59 -107 -74 -73 -104 -110 -88 -110 4 0 32 23 61 51 43 40
57 48 68 38 21 -17 18 -26 -33 -80 -54 -58 -50 -80 5 -26 69 67 102 34 35 -35
-43 -45 -38 -62 8 -24 17 15 37 25 43 23 28 -9 11 -40 -65 -115 -64 -63 -94
-85 -139 -101 -59 -22 -98 -51 -67 -51 9 0 19 4 22 10 3 5 30 17 59 25 43 13
67 30 139 102 88 88 103 117 72 143 -8 7 -15 26 -15 42 0 16 -6 31 -15 34 -8
4 -15 15 -15 27 0 11 -8 29 -17 39 -15 17 -15 20 10 46 29 30 34 61 15 80 -26
26 -54 11 -138 -73z"/>
<path d="M6377 1443 c-47 -48 -89 -85 -92 -82 -3 3 0 20 6 38 10 29 9 35 -9
53 -14 15 -27 19 -45 14 -31 -7 -58 -73 -89 -211 -10 -49 -24 -98 -29 -107
-12 -24 -11 -38 2 -38 6 0 9 7 5 15 -3 8 0 14 6 12 7 -1 16 24 23 63 14 83 62
225 81 240 11 10 17 10 28 1 13 -11 12 -20 -5 -69 -11 -31 -18 -64 -16 -72 2
-10 43 25 115 98 61 61 118 112 126 112 7 0 17 -7 20 -16 4 -11 -20 -43 -81
-105 -88 -91 -111 -141 -25 -56 26 26 55 47 65 47 30 0 18 -33 -30 -82 -59
-60 -49 -75 13 -18 42 38 48 41 61 27 14 -14 12 -21 -26 -66 -48 -57 -46 -64
5 -24 33 24 36 25 52 10 15 -16 10 -23 -73 -105 -70 -69 -100 -91 -135 -101
-51 -14 -87 -37 -76 -48 4 -4 10 -3 14 3 4 6 34 19 67 29 51 14 71 28 142 98
86 83 102 119 69 147 -8 6 -12 18 -9 26 3 8 -3 26 -13 42 -10 15 -17 31 -16
36 2 4 -4 19 -13 33 -15 23 -15 26 9 54 15 17 26 36 26 43 0 17 -33 46 -51 46
-8 0 -54 -39 -102 -87z"/>
<path d="M1304 1461 l-38 -40 -33 30 c-98 85 -217 -38 -128 -131 l30 -31 -31
-27 c-32 -27 -54 -61 -54 -82 0 -20 92 -110 112 -110 11 0 33 14 48 30 35 37
72 39 105 5 37 -36 31 -68 -21 -120 -30 -30 -25 -43 41 -104 53 -49 72 -48
123 5 18 19 35 34 39 34 4 0 19 -12 34 -26 41 -39 93 -37 130 4 38 42 38 82 0
124 l-29 33 39 42 c22 24 39 53 39 66 0 26 -86 117 -111 117 -8 0 -28 -13 -44
-30 -33 -35 -72 -39 -106 -12 -34 28 -30 76 9 112 18 16 32 35 32 42 0 8 -22
35 -48 61 -60 60 -86 61 -138 8z m124 -24 l43 -43 -31 -32 c-23 -25 -30 -41
-30 -72 0 -94 108 -123 171 -46 18 21 18 21 63 -24 25 -24 46 -50 46 -58 0 -7
-18 -32 -40 -54 -22 -23 -40 -45 -40 -51 0 -5 14 -25 30 -44 35 -40 37 -61 9
-97 -26 -33 -77 -36 -105 -5 -39 43 -52 43 -91 0 -20 -23 -45 -41 -57 -41 -20
0 -96 66 -96 83 0 5 14 25 30 44 32 36 37 61 19 96 -32 63 -103 76 -149 27
-15 -16 -34 -30 -42 -29 -7 0 -30 20 -51 44 -34 39 -37 46 -26 67 6 13 24 33
40 46 36 29 36 48 2 84 -34 35 -36 84 -4 110 33 26 63 22 106 -12 21 -16 40
-30 42 -30 2 0 21 18 43 40 22 22 47 40 58 40 10 0 37 -19 60 -43z"/>
<path d="M4933 1465 c-34 -34 -63 -45 -63 -25 0 14 -55 40 -85 40 -35 0 -85
-50 -85 -85 0 -30 17 -66 36 -78 21 -12 17 -37 -11 -59 -31 -24 -54 -67 -47
-88 9 -28 86 -100 107 -100 12 0 34 14 50 30 35 36 68 38 100 5 33 -33 32 -68
-5 -107 -16 -17 -30 -37 -30 -45 0 -18 77 -101 100 -108 25 -8 73 18 94 49 19
29 41 34 50 11 3 -9 22 -23 41 -31 49 -20 100 1 121 51 13 32 13 39 -2 71 -10
20 -23 38 -31 41 -21 8 -15 23 28 70 31 33 39 49 34 66 -8 27 -88 107 -108
107 -8 0 -28 -13 -45 -30 -41 -39 -83 -40 -111 -4 -29 36 -26 57 10 99 39 44
34 69 -21 119 -52 46 -81 47 -127 1z m119 -22 c21 -20 38 -41 38 -46 0 -5 -13
-25 -30 -44 -40 -45 -40 -85 -1 -124 41 -41 92 -40 132 2 23 25 32 28 47 20
23 -12 82 -78 82 -91 0 -5 -20 -29 -45 -54 -25 -26 -45 -48 -45 -51 0 -2 14
-18 30 -35 81 -83 -17 -181 -100 -100 -17 16 -33 30 -36 30 -3 0 -22 -18 -44
-40 -51 -52 -77 -52 -124 0 -20 22 -36 42 -36 44 0 3 14 18 30 34 41 42 41 92
1 133 -39 39 -79 39 -124 -1 -19 -16 -38 -30 -43 -30 -18 0 -84 75 -84 95 0
13 17 37 40 58 22 19 40 40 40 46 0 6 -13 24 -30 41 -39 40 -40 81 -4 109 37
29 68 26 104 -9 17 -16 35 -30 41 -30 6 0 27 18 46 40 20 22 45 40 57 40 11 0
37 -17 58 -37z"/>
<path d="M180 1450 l0 -30 76 0 c47 0 73 4 69 10 -3 6 -33 10 -66 10 -52 0
-59 2 -59 20 0 11 -4 20 -10 20 -5 0 -10 -13 -10 -30z"/>
<path d="M3800 1450 l0 -30 75 0 c43 0 75 4 75 10 0 6 -27 10 -61 10 -52 0
-62 3 -66 20 -8 30 -23 24 -23 -10z"/>
<path d="M7127 1302 c-70 -71 -127 -135 -127 -143 0 -8 59 -73 130 -144 72
-71 130 -123 130 -115 0 8 -55 70 -122 137 l-123 123 124 124 c68 68 122 129
120 135 -3 7 -62 -46 -132 -117z"/>
<path d="M61 1328 l-1 -38 70 0 c87 0 93 18 8 22 -57 3 -63 5 -69 28 -6 21 -7
20 -8 -12z"/>
<path d="M3680 1325 l0 -35 70 0 c40 0 70 4 70 10 0 6 -27 10 -60 10 -57 0
-60 1 -60 25 0 14 -4 25 -10 25 -5 0 -10 -16 -10 -35z"/>
<path d="M300 1340 c0 -20 137 -156 147 -147 4 4 -28 42 -70 85 -42 42 -77 70
-77 62z"/>
<path d="M3920 1342 c0 -14 149 -156 157 -149 4 4 -26 41 -67 82 -70 71 -90
85 -90 67z"/>
<path d="M3542 1217 l-42 -43 45 -44 45 -44 40 39 c22 21 40 44 40 50 0 11
-71 85 -81 85 -3 0 -24 -19 -47 -43z m81 -15 l27 -28 -30 -29 -30 -29 -30 29
-30 29 27 28 c15 15 30 28 33 28 3 0 18 -13 33 -28z"/>
<path d="M7170 1220 c-22 -24 -40 -46 -40 -50 0 -3 18 -23 39 -44 38 -37 39
-38 65 -21 14 10 26 24 26 33 0 13 -2 13 -18 -1 -25 -22 -34 -21 -60 6 -28 30
-28 38 3 67 l25 23 25 -23 c18 -17 25 -20 25 -8 0 8 -11 25 -25 38 l-25 23
-40 -43z"/>
<path d="M170 1212 c0 -14 146 -153 153 -145 4 4 -25 40 -65 80 -68 69 -88 83
-88 65z"/>
<path d="M3800 1212 c0 -11 143 -152 148 -147 2 2 -10 21 -27 42 -36 45 -121
118 -121 105z"/>
<path d="M5695 1170 c-4 -6 -15 -8 -24 -5 -14 4 -18 -1 -18 -23 0 -25 4 -29
29 -29 21 0 27 4 23 15 -3 8 -1 20 5 27 7 9 7 15 1 19 -5 4 -13 2 -16 -4z"/>
<path d="M2027 1157 c4 -7 6 -19 5 -27 -2 -10 7 -15 26 -16 25 -1 29 2 28 26
-1 25 -5 28 -33 28 -22 0 -31 -4 -26 -11z"/>
<path d="M781 1093 c-26 -18 -27 -59 -2 -73 31 -16 49 -12 66 14 30 45 -20 91
-64 59z m49 -18 c10 -12 10 -18 0 -30 -16 -19 -39 -19 -46 0 -6 15 11 45 26
45 4 0 13 -7 20 -15z"/>
<path d="M4413 1099 c-50 -19 -29 -94 25 -87 32 4 47 28 39 60 -8 29 -32 39
-64 27z m31 -15 c20 -8 21 -43 1 -50 -24 -10 -47 14 -34 37 11 21 11 21 33 13z"/>
<path d="M112 1013 c43 -42 81 -74 85 -70 9 10 -127 147 -147 147 -8 0 20 -35
62 -77z"/>
<path d="M3670 1082 c0 -14 139 -146 147 -139 4 4 -24 39 -62 77 -66 66 -85
80 -85 62z"/>
<path d="M2012 882 c-87 -31 -171 -123 -183 -199 -6 -33 14 -24 27 13 31 92
102 153 200 175 161 36 324 -93 324 -258 0 -169 -160 -301 -323 -264 -74 16
-147 68 -178 125 -13 25 -27 46 -31 46 -15 0 -8 -28 17 -64 14 -20 25 -40 25
-44 0 -4 -25 -32 -55 -62 -44 -43 -61 -54 -82 -52 -21 3 -40 -10 -99 -69 -77
-77 -88 -103 -56 -132 32 -29 55 -19 130 55 58 58 72 78 72 103 0 24 12 42 54
84 l54 53 68 -33 c58 -29 77 -33 138 -32 88 1 150 26 205 83 136 141 90 383
-88 463 -64 28 -154 32 -219 9z m-248 -608 c30 -11 16 -40 -53 -108 -48 -47
-74 -67 -85 -63 -38 15 -29 38 40 108 71 72 73 73 98 63z"/>
<path d="M5649 887 c-52 -15 -96 -44 -134 -88 -47 -57 -81 -139 -57 -139 5 0
14 19 21 42 18 60 101 139 170 161 29 9 68 17 85 17 98 0 210 -72 248 -159 45
-102 18 -232 -62 -304 -42 -39 -134 -77 -185 -77 -85 0 -200 69 -240 144 -11
20 -23 36 -27 36 -14 0 -9 -15 23 -65 l30 -48 -52 -53 c-43 -43 -60 -54 -85
-54 -27 0 -45 -13 -103 -71 -74 -73 -87 -105 -57 -135 30 -29 59 -16 135 60
60 61 73 79 69 99 -5 25 13 50 78 110 l30 27 62 -31 c53 -27 73 -32 134 -32
126 -1 220 59 271 172 60 130 -7 309 -139 370 -57 27 -154 35 -215 18z m-245
-629 c9 -15 0 -29 -60 -89 -58 -58 -75 -70 -93 -64 -37 11 -24 44 44 112 66
65 88 73 109 41z"/>
<path d="M882 810 c-34 -8 -76 -41 -94 -73 -18 -33 -2 -28 39 12 54 54 98 62
156 27 57 -33 81 -81 75 -148 -4 -38 -12 -57 -37 -82 -41 -42 -41 -70 0 -30
43 41 59 76 59 130 0 109 -94 187 -198 164z"/>
<path d="M4496 805 c-22 -8 -47 -22 -57 -32 -24 -24 -51 -90 -40 -98 5 -3 15
11 21 30 13 40 62 82 107 91 17 3 45 -1 66 -10 20 -8 39 -11 42 -7 5 9 -31 26
-75 35 -14 2 -43 -2 -64 -9z"/>
<path d="M625 796 c-19 -8 -25 -15 -17 -20 6 -4 21 -2 33 5 14 7 44 9 81 5 61
-6 81 7 27 18 -47 9 -91 7 -124 -8z"/>
<path d="M4247 796 c-40 -18 -91 -69 -113 -113 -26 -54 -25 -147 2 -194 21
-35 21 -36 3 -70 -10 -19 -18 -56 -19 -83 -1 -140 161 -196 260 -90 32 33 16
44 -18 12 -37 -35 -65 -48 -104 -48 -45 0 -91 30 -111 73 -22 46 -21 75 4 117
29 48 58 70 97 70 17 0 32 4 32 9 0 16 -37 19 -70 5 -18 -8 -34 -14 -36 -14
-2 0 -13 18 -24 40 -37 73 -18 161 50 227 43 42 90 57 151 49 28 -4 49 -3 49
2 0 23 -107 29 -153 8z"/>
<path d="M2910 771 c-13 -24 -13 -61 -1 -61 5 0 11 12 13 28 7 60 35 41 244
-170 l201 -203 -9 -95 c-6 -52 -15 -100 -21 -107 -7 -6 -55 -16 -107 -21 l-95
-11 -120 120 c-66 65 -125 119 -130 119 -6 0 -62 -51 -124 -114 -104 -104
-116 -113 -137 -104 -19 9 -28 6 -54 -16 -36 -30 -43 -31 -60 -11 -7 8 -20 15
-28 15 -10 0 11 -28 53 -70 38 -38 76 -70 84 -70 9 0 -2 17 -27 43 l-43 43 25
27 c14 15 29 27 33 27 13 0 123 -114 123 -128 0 -7 5 -12 11 -12 6 0 8 11 5
28 -6 24 5 38 103 137 l110 109 86 -83 c68 -67 89 -82 107 -78 13 3 58 9 100
13 43 4 85 12 93 18 10 7 19 39 25 81 5 39 12 87 15 108 5 38 3 42 -76 122
l-81 84 21 27 c56 71 -17 148 -86 90 l-30 -25 -79 80 c-84 84 -122 100 -144
60z m321 -121 c25 -14 24 -52 -1 -75 -20 -18 -21 -18 -51 11 l-30 29 26 22
c30 26 30 26 56 13z m-398 -472 l-112 -112 -31 29 -30 29 112 113 113 113 30
-30 30 -30 -112 -112z"/>
<path d="M6531 768 c-5 -13 -12 -47 -16 -76 -4 -29 -13 -59 -20 -66 -8 -7 -40
-17 -72 -21 -73 -9 -93 -20 -93 -50 0 -26 105 -143 117 -131 4 4 -17 30 -45
59 -56 57 -65 84 -29 91 12 3 48 10 80 16 64 13 71 21 81 95 15 105 28 109
106 30 29 -30 58 -51 63 -48 5 3 -17 32 -49 64 -65 66 -107 78 -123 37z"/>
<path d="M544 738 c-33 -40 -54 -88 -54 -125 0 -35 13 -19 29 35 7 24 28 61
48 83 24 26 30 39 20 39 -8 0 -28 -15 -43 -32z"/>
<path d="M4648 765 c-3 -4 5 -25 18 -48 13 -23 24 -53 24 -66 0 -18 3 -22 11
-14 7 7 7 22 0 51 -12 43 -42 87 -53 77z"/>
<path d="M2140 728 c-25 -11 -25 -11 -2 -15 12 -3 22 -7 22 -10 0 -12 -72
-123 -80 -123 -5 0 -29 21 -55 48 l-45 47 -31 -37 -31 -38 -85 0 c-53 0 -82
-4 -78 -10 3 -5 44 -10 90 -10 81 0 84 1 110 32 l27 32 48 -54 47 -54 54 77
c29 42 56 77 60 77 4 0 10 -10 14 -22 10 -34 18 -4 11 38 -8 37 -28 43 -76 22z"/>
<path d="M5775 733 c-34 -8 -41 -23 -12 -23 15 0 27 -2 27 -6 0 -11 -81 -124
-90 -124 -5 0 -25 20 -46 45 -20 25 -41 45 -48 45 -6 0 -21 -16 -34 -35 l-22
-35 -86 0 c-54 0 -83 -4 -79 -10 3 -5 43 -10 88 -10 80 0 83 0 109 32 l27 33
49 -54 48 -55 46 71 c53 81 64 91 73 63 10 -32 25 -23 19 13 -11 61 -14 63
-69 50z"/>
<path d="M770 685 c0 -8 4 -15 10 -15 5 0 7 7 4 15 -4 8 -8 15 -10 15 -2 0 -4
-7 -4 -15z"/>
<path d="M2890 669 c0 -30 -25 -55 -60 -61 -23 -4 -23 -5 -6 -13 42 -18 109
56 78 87 -9 9 -12 6 -12 -13z"/>
<path d="M6781 651 c-12 -22 -5 -27 19 -11 11 7 12 12 3 21 -8 8 -14 6 -22
-10z"/>
<path d="M6858 650 c12 -12 22 -24 22 -29 0 -16 -41 -61 -56 -61 -8 0 -14 -3
-14 -7 0 -4 40 -48 90 -98 l89 -90 -10 -100 c-6 -55 -15 -103 -21 -106 -6 -4
-41 -10 -77 -13 -36 -4 -79 -9 -94 -12 -25 -5 -41 6 -151 115 -67 67 -127 121
-133 121 -14 0 -37 -29 -29 -37 3 -4 11 -2 18 5 14 14 71 -23 66 -43 -3 -12
-144 -162 -197 -209 -21 -19 -21 -19 -46 4 -14 13 -25 27 -25 32 0 5 32 41 70
81 39 40 66 73 61 75 -6 2 -42 -28 -82 -67 -61 -61 -73 -69 -91 -60 -19 10
-25 8 -84 -36 -9 -6 -19 -3 -33 10 -12 10 -24 15 -28 11 -9 -9 118 -136 136
-136 9 0 -2 17 -27 43 l-42 43 30 29 31 30 71 -73 c66 -67 98 -87 70 -42 -11
18 0 31 98 131 124 127 108 124 195 31 74 -80 81 -83 205 -66 58 7 106 14 106
14 7 1 14 43 25 130 l11 102 -83 84 -83 84 21 19 c12 11 24 30 28 41 8 26 -19
70 -42 70 -14 0 -13 -3 5 -20z"/>
<path d="M6720 635 c7 -8 16 -15 21 -15 5 0 6 7 3 15 -4 8 -13 15 -21 15 -13
0 -13 -3 -3 -15z"/>
<path d="M6760 601 c0 -13 29 -35 37 -28 7 8 -15 37 -28 37 -5 0 -9 -4 -9 -9z"/>
<path d="M2740 590 c0 -5 9 -10 20 -10 11 0 20 5 20 10 0 6 -9 10 -20 10 -11
0 -20 -4 -20 -10z"/>
<path d="M2968 535 c-59 -55 -66 -65 -47 -65 15 0 112 97 107 109 -1 5 -29
-15 -60 -44z"/>
<path d="M2706 561 c-8 -12 3 -41 15 -41 5 0 8 11 7 25 -2 25 -12 32 -22 16z"/>
<path d="M6576 516 c-21 -18 -34 -36 -29 -39 5 -3 27 12 48 33 47 48 35 52
-19 6z"/>
<path d="M1373 506 c-1 -27 2 -31 26 -31 23 0 27 4 27 30 0 25 -4 30 -26 31
-23 1 -26 -3 -27 -30z"/>
<path d="M4994 528 c-2 -4 0 -10 6 -13 8 -5 7 -11 -1 -21 -15 -18 -3 -32 13
-16 9 9 15 9 25 0 18 -15 29 -2 14 16 -8 10 -9 16 -1 21 5 3 10 10 10 14 0 10
-60 9 -66 -1z"/>
<path d="M6671 512 c-27 -39 -27 -51 2 -24 22 20 22 20 47 2 24 -18 24 -19 6
-39 -11 -12 -25 -21 -33 -21 -7 0 -13 -4 -13 -10 0 -17 36 -11 53 8 25 27 21
55 -12 86 l-29 27 -21 -29z"/>
<path d="M3016 485 c-47 -45 -62 -75 -27 -54 14 10 23 9 42 -4 13 -10 33 -17
45 -17 24 0 54 29 54 52 0 21 -38 68 -55 68 -7 0 -34 -20 -59 -45z m91 -28
c-7 -21 -36 -32 -54 -21 -25 16 -26 27 -1 53 l21 24 19 -23 c10 -13 17 -28 15
-33z"/>
<path d="M890 502 c0 -5 9 -17 20 -27 21 -19 20 -19 -37 -77 l-57 -58 -23 22
c-13 12 -26 18 -30 14 -4 -4 54 -68 130 -143 124 -125 170 -160 135 -104 -12
19 -8 26 40 73 47 48 54 52 73 40 56 -35 21 11 -101 133 -127 127 -150 147
-150 127z m82 -89 c18 -16 17 -19 -39 -75 -53 -54 -58 -57 -75 -41 -26 23 -23
32 29 85 52 53 58 55 85 31z m60 -60 c18 -16 17 -19 -39 -75 -53 -54 -58 -57
-75 -41 -26 23 -23 32 29 85 52 53 58 55 85 31z m21 -135 c-53 -54 -58 -57
-75 -41 -10 9 -18 21 -18 27 0 6 23 34 52 63 l52 53 23 -22 23 -22 -57 -58z"/>
<path d="M2740 502 c0 -14 79 -86 87 -79 4 4 -11 25 -32 47 -38 39 -55 49 -55
32z"/>
<path d="M4520 501 c0 -5 7 -14 15 -21 22 -18 19 -30 -17 -67 -44 -46 -26 -55
20 -10 37 36 39 37 55 19 23 -25 22 -31 -15 -69 -44 -46 -26 -55 20 -10 37 36
39 37 55 19 23 -25 22 -31 -15 -69 -41 -43 -28 -56 15 -15 18 18 38 32 45 32
26 0 8 26 -75 111 -82 84 -103 101 -103 80z"/>
<path d="M3653 423 c-1 -28 1 -32 13 -22 11 9 17 9 28 0 12 -10 14 -6 13 22
-1 29 -4 34 -27 34 -23 0 -26 -5 -27 -34z"/>
<path d="M6601 447 c-6 -8 -8 -17 -4 -20 7 -8 33 11 33 24 0 13 -16 11 -29 -4z"/>
<path d="M515 423 c-37 -56 -28 -160 16 -184 24 -12 24 -7 -1 33 -25 41 -25
83 -1 131 22 44 11 59 -14 20z"/>
<path d="M2517 443 c-14 -13 -6 -20 18 -15 14 2 25 8 25 13 0 10 -34 12 -43 2z"/>
<path d="M6132 438 c-30 -30 7 -95 47 -81 20 7 41 32 41 49 0 35 -62 58 -88
32z m58 -33 c0 -18 -5 -25 -19 -25 -11 0 -23 5 -26 10 -11 18 3 40 25 40 15 0
20 -7 20 -25z"/>
<path d="M3114 386 c-38 -38 -44 -74 -16 -99 29 -26 55 -20 95 21 42 43 46 63
17 92 -29 29 -57 25 -96 -14z m86 -6 c9 -16 5 -26 -24 -57 -29 -32 -38 -36
-53 -27 -28 17 -27 40 3 73 31 36 59 40 74 11z"/>
<path d="M6737 382 c-41 -42 -44 -57 -21 -90 22 -32 55 -27 97 16 41 42 46 70
19 95 -29 26 -55 20 -95 -21z m87 -4 c9 -15 4 -24 -26 -54 -24 -24 -42 -35
-52 -31 -31 12 -30 37 5 73 36 37 55 40 73 12z"/>
<path d="M2564 385 c-9 -22 1 -29 15 -11 8 10 9 16 1 21 -5 3 -13 -1 -16 -10z"/>
<path d="M2500 382 c0 -12 19 -26 26 -19 2 2 -2 10 -11 17 -9 8 -15 8 -15 2z"/>
<path d="M4380 373 c0 -14 267 -273 280 -273 9 0 7 7 -5 20 -18 20 -18 22 40
80 55 56 60 59 77 43 15 -14 18 -14 18 -1 0 8 -8 23 -19 32 -18 16 -21 14 -76
-44 -59 -61 -83 -72 -105 -45 -10 12 -10 18 0 30 17 20 5 32 -15 15 -14 -11
-19 -10 -38 8 -17 17 -19 24 -9 34 7 7 12 18 12 25 0 11 -5 10 -23 -2 -22 -14
-25 -14 -42 5 -15 16 -16 22 -5 35 16 19 5 32 -13 16 -11 -8 -20 -7 -40 9 -27
21 -37 25 -37 13z"/>
<path d="M722 248 c-29 -30 -38 -33 -92 -33 -59 1 -76 -7 -44 -19 53 -20 118
1 168 53 41 43 11 41 -32 -1z"/>
<path d="M169 88 c-20 -5 -54 -27 -75 -49 -41 -42 -27 -55 16 -14 l26 25 24
-25 c13 -14 30 -25 39 -25 10 0 6 9 -13 29 -35 36 -26 43 71 49 l73 5 0 -42
c0 -22 5 -41 10 -41 6 0 10 23 10 50 l0 50 -72 -1 c-40 -1 -89 -5 -109 -11z"/>
<path d="M3802 90 c-19 -4 -48 -21 -65 -36 -17 -16 -37 -35 -45 -42 -11 -10
-11 -12 1 -12 8 0 27 12 42 26 l29 27 23 -27 c13 -15 29 -26 35 -24 8 3 4 11
-10 23 -12 11 -22 25 -22 32 0 14 68 26 125 21 38 -3 40 -5 43 -40 5 -56 24
-46 20 10 l-3 47 -70 2 c-38 1 -85 -2 -103 -7z"/>
<path d="M3655 69 c-35 -10 -98 -69 -74 -69 9 0 26 11 38 24 13 14 35 26 49
28 14 2 27 9 30 16 4 14 -1 14 -43 1z"/>
<path d="M7225 30 c-20 -21 -24 -30 -13 -30 19 0 51 35 46 50 -2 6 -16 -3 -33
-20z"/>
</g>
</svg>
